<svg width="148" height="153" viewBox="0 0 148 153" fill="none" xmlns="http://www.w3.org/2000/svg">
<g filter="url(#filter0_bii_391_15)">
<path d="M74 0L138.086 38.25V114.75L74 153L9.91412 114.75V38.25L74 0Z" fill="#D9D9D9" fill-opacity="0.1"/>
<path d="M10.9141 38.8177L74 1.16458L137.086 38.8177V114.182L74 151.835L10.9141 114.182V38.8177Z" stroke="white" stroke-width="2"/>
</g>
<path d="M23.104 109V97.192H27.616C28.7253 97.192 29.5467 97.4533 30.08 97.976C30.6133 98.4987 30.88 99.2613 30.88 100.264C30.88 100.733 30.8053 101.149 30.656 101.512C30.5173 101.864 30.3253 102.157 30.08 102.392C29.8347 102.616 29.5467 102.771 29.216 102.856C29.4613 102.92 29.7013 103.021 29.936 103.16C30.1813 103.288 30.4053 103.469 30.608 103.704C30.8107 103.939 30.9707 104.227 31.088 104.568C31.2053 104.899 31.264 105.288 31.264 105.736C31.264 106.547 31.1253 107.192 30.848 107.672C30.5813 108.141 30.1867 108.483 29.664 108.696C29.152 108.899 28.5333 109 27.808 109H23.104ZM25.072 107.224H27.744C28.0747 107.224 28.3627 107.165 28.608 107.048C28.8533 106.931 29.04 106.744 29.168 106.488C29.3067 106.221 29.376 105.859 29.376 105.4C29.376 105.037 29.3067 104.733 29.168 104.488C29.0293 104.243 28.8373 104.056 28.592 103.928C28.3467 103.789 28.064 103.72 27.744 103.72H25.072V107.224ZM25.072 102.184H27.648C28.0427 102.184 28.3627 102.04 28.608 101.752C28.8533 101.453 28.9813 101.064 28.992 100.584C29.0027 99.976 28.8693 99.5547 28.592 99.32C28.3253 99.0853 27.9947 98.968 27.6 98.968H25.072V102.184ZM37.4583 109.096C36.6689 109.096 35.9756 109.021 35.3783 108.872C34.7916 108.712 34.2956 108.429 33.8903 108.024C33.4956 107.608 33.1969 107.005 32.9943 106.216C32.8023 105.427 32.7063 104.397 32.7063 103.128C32.7063 101.848 32.8076 100.813 33.0103 100.024C33.2129 99.224 33.5116 98.616 33.9062 98.2C34.3116 97.7733 34.8076 97.48 35.3943 97.32C35.9916 97.16 36.6796 97.08 37.4583 97.08C38.2583 97.08 38.9569 97.16 39.5543 97.32C40.1516 97.48 40.6476 97.7733 41.0423 98.2C41.4369 98.616 41.7303 99.224 41.9223 100.024C42.1249 100.813 42.2263 101.848 42.2263 103.128C42.2263 104.397 42.1249 105.427 41.9223 106.216C41.7303 107.005 41.4316 107.608 41.0263 108.024C40.6316 108.429 40.1356 108.712 39.5383 108.872C38.9516 109.021 38.2583 109.096 37.4583 109.096ZM37.4583 107.32C37.9809 107.32 38.4183 107.267 38.7703 107.16C39.1329 107.043 39.4209 106.84 39.6343 106.552C39.8476 106.253 40.0023 105.832 40.0983 105.288C40.1943 104.733 40.2423 104.013 40.2423 103.128C40.2423 102.189 40.1889 101.443 40.0823 100.888C39.9863 100.323 39.8316 99.896 39.6183 99.608C39.4049 99.3093 39.1223 99.112 38.7703 99.016C38.4183 98.9093 37.9809 98.856 37.4583 98.856C36.9676 98.856 36.5463 98.9093 36.1943 99.016C35.8423 99.112 35.5543 99.3093 35.3303 99.608C35.1169 99.896 34.9569 100.323 34.8503 100.888C34.7436 101.443 34.6903 102.189 34.6903 103.128C34.6903 104.013 34.7329 104.733 34.8183 105.288C34.9143 105.832 35.0689 106.253 35.2823 106.552C35.4956 106.84 35.7783 107.043 36.1302 107.16C36.4929 107.267 36.9356 107.32 37.4583 107.32ZM48.5833 109.096C47.7939 109.096 47.1006 109.021 46.5033 108.872C45.9166 108.712 45.4206 108.429 45.0153 108.024C44.6206 107.608 44.3219 107.005 44.1193 106.216C43.9273 105.427 43.8313 104.397 43.8313 103.128C43.8313 101.848 43.9326 100.813 44.1353 100.024C44.3379 99.224 44.6366 98.616 45.0312 98.2C45.4366 97.7733 45.9326 97.48 46.5193 97.32C47.1166 97.16 47.8046 97.08 48.5833 97.08C49.3833 97.08 50.0819 97.16 50.6793 97.32C51.2766 97.48 51.7726 97.7733 52.1673 98.2C52.5619 98.616 52.8553 99.224 53.0473 100.024C53.2499 100.813 53.3513 101.848 53.3513 103.128C53.3513 104.397 53.2499 105.427 53.0473 106.216C52.8553 107.005 52.5566 107.608 52.1513 108.024C51.7566 108.429 51.2606 108.712 50.6633 108.872C50.0766 109.021 49.3833 109.096 48.5833 109.096ZM48.5833 107.32C49.1059 107.32 49.5433 107.267 49.8953 107.16C50.2579 107.043 50.5459 106.84 50.7593 106.552C50.9726 106.253 51.1273 105.832 51.2233 105.288C51.3193 104.733 51.3673 104.013 51.3673 103.128C51.3673 102.189 51.3139 101.443 51.2073 100.888C51.1113 100.323 50.9566 99.896 50.7433 99.608C50.5299 99.3093 50.2473 99.112 49.8953 99.016C49.5433 98.9093 49.1059 98.856 48.5833 98.856C48.0926 98.856 47.6713 98.9093 47.3193 99.016C46.9673 99.112 46.6793 99.3093 46.4553 99.608C46.2419 99.896 46.0819 100.323 45.9753 100.888C45.8686 101.443 45.8153 102.189 45.8153 103.128C45.8153 104.013 45.8579 104.733 45.9433 105.288C46.0393 105.832 46.1939 106.253 46.4073 106.552C46.6206 106.84 46.9033 107.043 47.2552 107.16C47.6179 107.267 48.0606 107.32 48.5833 107.32ZM57.7261 109V98.968H54.3341V97.192H63.0861V98.968H59.7101V109H57.7261ZM67.9358 109.096C67.6478 109.096 67.3384 109.085 67.0078 109.064C66.6878 109.053 66.3571 109.032 66.0158 109C65.6851 108.957 65.3704 108.92 65.0718 108.888C64.7731 108.845 64.5064 108.797 64.2718 108.744V107.192C64.5704 107.213 64.9171 107.235 65.3118 107.256C65.7171 107.277 66.1384 107.293 66.5758 107.304C67.0131 107.315 67.4344 107.32 67.8398 107.32C68.2664 107.32 68.6451 107.283 68.9758 107.208C69.3064 107.123 69.5624 106.979 69.7438 106.776C69.9251 106.573 70.0158 106.285 70.0158 105.912V105.352C70.0158 104.936 69.8984 104.616 69.6638 104.392C69.4291 104.168 69.0824 104.056 68.6238 104.056H67.5198C66.4424 104.056 65.6104 103.821 65.0238 103.352C64.4478 102.883 64.1598 102.077 64.1598 100.936V100.328C64.1598 99.1867 64.4744 98.3653 65.1038 97.864C65.7438 97.352 66.6558 97.096 67.8398 97.096C68.2451 97.096 68.6611 97.1173 69.0878 97.16C69.5251 97.192 69.9411 97.2347 70.3358 97.288C70.7304 97.3413 71.0664 97.4 71.3438 97.464V99.016C70.8744 98.984 70.3358 98.952 69.7278 98.92C69.1304 98.888 68.5758 98.872 68.0638 98.872C67.6584 98.872 67.3011 98.9147 66.9918 99C66.6824 99.0853 66.4478 99.24 66.2878 99.464C66.1278 99.6773 66.0478 99.9973 66.0478 100.424V100.808C66.0478 101.309 66.1811 101.661 66.4478 101.864C66.7251 102.067 67.1198 102.168 67.6318 102.168H68.8638C69.5571 102.168 70.1278 102.296 70.5758 102.552C71.0238 102.808 71.3544 103.16 71.5677 103.608C71.7918 104.045 71.9038 104.547 71.9038 105.112V105.864C71.9038 106.739 71.7331 107.411 71.3918 107.88C71.0504 108.349 70.5811 108.669 69.9838 108.84C69.3864 109.011 68.7038 109.096 67.9358 109.096ZM76.3511 109V98.968H72.9591V97.192H81.7111V98.968H78.3351V109H76.3511ZM83.0728 109V97.192H87.8728C88.3101 97.192 88.7208 97.2453 89.1048 97.352C89.4994 97.448 89.8461 97.6293 90.1448 97.896C90.4541 98.1627 90.6941 98.536 90.8648 99.016C91.0461 99.4853 91.1368 100.099 91.1368 100.856C91.1368 101.443 91.0781 101.933 90.9608 102.328C90.8434 102.712 90.6888 103.027 90.4968 103.272C90.3048 103.517 90.0861 103.709 89.8408 103.848C89.6061 103.976 89.3714 104.083 89.1368 104.168L91.4088 109H89.4088L87.3608 104.456C87.2114 104.456 87.0354 104.456 86.8328 104.456C86.6408 104.456 86.4381 104.456 86.2248 104.456C86.0114 104.445 85.8034 104.44 85.6008 104.44C85.3981 104.429 85.2114 104.424 85.0408 104.424V109H83.0728ZM85.0408 102.872H87.5368C87.7714 102.872 87.9848 102.845 88.1768 102.792C88.3688 102.728 88.5394 102.621 88.6888 102.472C88.8381 102.323 88.9501 102.12 89.0248 101.864C89.1101 101.608 89.1528 101.277 89.1528 100.872C89.1528 100.477 89.1101 100.157 89.0248 99.912C88.9501 99.656 88.8381 99.464 88.6888 99.336C88.5394 99.1973 88.3634 99.1013 88.1608 99.048C87.9688 98.9947 87.7608 98.968 87.5368 98.968H85.0408V102.872ZM92.2586 109L96.0986 97.192H98.5946L102.435 109H100.371L99.4586 106.2H95.1866L94.2906 109H92.2586ZM95.6506 104.424H98.9786L97.3146 98.888L95.6506 104.424ZM103.885 109V97.192H108.765C109.139 97.192 109.517 97.24 109.901 97.336C110.285 97.4213 110.637 97.5973 110.957 97.864C111.288 98.1307 111.549 98.5253 111.741 99.048C111.944 99.5707 112.045 100.269 112.045 101.144C112.045 102.019 111.944 102.723 111.741 103.256C111.539 103.789 111.272 104.2 110.941 104.488C110.621 104.765 110.269 104.957 109.885 105.064C109.512 105.16 109.149 105.208 108.797 105.208C108.616 105.208 108.387 105.203 108.109 105.192C107.843 105.171 107.56 105.149 107.261 105.128C106.973 105.096 106.701 105.069 106.445 105.048C106.2 105.016 106.003 104.989 105.853 104.968V109H103.885ZM105.853 103.416H108.509C108.819 103.416 109.091 103.347 109.325 103.208C109.56 103.059 109.741 102.824 109.869 102.504C109.997 102.173 110.061 101.725 110.061 101.16C110.061 100.605 109.992 100.168 109.853 99.848C109.725 99.528 109.549 99.304 109.325 99.176C109.112 99.0373 108.861 98.968 108.573 98.968H105.853V103.416ZM121.965 109.08C121.293 109.08 120.599 109.059 119.885 109.016C119.17 108.973 118.509 108.92 117.901 108.856V107.304H122.045C122.461 107.304 122.802 107.235 123.069 107.096C123.335 106.957 123.533 106.771 123.661 106.536C123.789 106.291 123.853 106.029 123.853 105.752V104.76C123.853 104.323 123.735 103.981 123.501 103.736C123.266 103.48 122.887 103.352 122.365 103.352H121.325C120.93 103.352 120.621 103.437 120.397 103.608C120.183 103.779 120.045 104.04 119.981 104.392H118.109L118.445 97.192H125.405V98.968H120.157L119.997 102.312C120.146 102.12 120.37 101.965 120.669 101.848C120.967 101.731 121.319 101.672 121.725 101.672H123.053C123.671 101.672 124.183 101.795 124.589 102.04C125.005 102.275 125.314 102.6 125.517 103.016C125.73 103.421 125.837 103.885 125.837 104.408V106.152C125.837 106.824 125.682 107.379 125.373 107.816C125.074 108.243 124.637 108.563 124.061 108.776C123.485 108.979 122.786 109.08 121.965 109.08Z" fill="white"/>
<path d="M52.3985 46.0402C52.2893 42.8977 54.7374 40 58.0468 40H91.9578C95.2673 40 97.7154 42.8977 97.6061 46.0402C97.5009 49.0588 97.6374 52.9691 98.6215 56.1573C99.6087 59.3556 101.273 61.3767 104 61.6368V64.582C101.273 64.8421 99.6087 66.8632 98.6215 70.0615C97.6374 73.2497 97.5009 77.16 97.6061 80.1785C97.7154 83.3211 95.2673 86.2183 91.9578 86.2183H58.0468C54.7374 86.2183 52.2893 83.3206 52.3985 80.1785C52.5037 77.16 52.3672 73.2497 51.3827 70.0615C50.3959 66.8636 48.7266 64.8421 46 64.582V61.6368C48.7266 61.3772 50.3959 59.3556 51.3827 56.1573C52.3672 52.9691 52.5032 49.0588 52.3985 46.0402Z" fill="url(#paint0_linear_391_15)"/>
<g filter="url(#filter1_d_391_15)">
<path d="M76.4334 75.5629C81.7911 75.5629 85.0197 72.9396 85.0197 68.6127C85.0197 65.342 82.7161 62.9741 79.2955 62.5993V62.463C81.8086 62.0542 83.7807 59.7204 83.7807 57.114C83.7807 53.4004 80.8488 50.9813 76.381 50.9813H66.3286V75.5629H76.4334ZM70.2379 54.0988H75.4387C78.2659 54.0988 79.8714 55.3593 79.8714 57.642C79.8714 60.0781 78.0041 61.4409 74.6184 61.4409H70.2379V54.0988ZM70.2379 72.4455V64.3538H75.4037C79.1035 64.3538 81.0232 65.7166 81.0232 68.3741C81.0232 71.0315 79.1559 72.4455 75.6306 72.4455H70.2379Z" fill="url(#paint1_linear_391_15)"/>
</g>
<defs>
<filter id="filter0_bii_391_15" x="-38.0159" y="-47.93" width="224.032" height="248.86" filterUnits="userSpaceOnUse" color-interpolation-filters="sRGB">
<feFlood flood-opacity="0" result="BackgroundImageFix"/>
<feGaussianBlur in="BackgroundImageFix" stdDeviation="23.965"/>
<feComposite in2="SourceAlpha" operator="in" result="effect1_backgroundBlur_391_15"/>
<feBlend mode="normal" in="SourceGraphic" in2="effect1_backgroundBlur_391_15" result="shape"/>
<feColorMatrix in="SourceAlpha" type="matrix" values="0 0 0 0 0 0 0 0 0 0 0 0 0 0 0 0 0 0 127 0" result="hardAlpha"/>
<feOffset dx="-23.97" dy="23.97"/>
<feGaussianBlur stdDeviation="11.985"/>
<feComposite in2="hardAlpha" operator="arithmetic" k2="-1" k3="1"/>
<feColorMatrix type="matrix" values="0 0 0 0 0 0 0 0 0 0 0 0 0 0 0 0 0 0 0.25 0"/>
<feBlend mode="normal" in2="shape" result="effect2_innerShadow_391_15"/>
<feColorMatrix in="SourceAlpha" type="matrix" values="0 0 0 0 0 0 0 0 0 0 0 0 0 0 0 0 0 0 127 0" result="hardAlpha"/>
<feOffset dx="23.97" dy="-23.97"/>
<feGaussianBlur stdDeviation="11.985"/>
<feComposite in2="hardAlpha" operator="arithmetic" k2="-1" k3="1"/>
<feColorMatrix type="matrix" values="0 0 0 0 0 0 0 0 0 0 0 0 0 0 0 0 0 0 0.25 0"/>
<feBlend mode="normal" in2="effect2_innerShadow_391_15" result="effect3_innerShadow_391_15"/>
</filter>
<filter id="filter1_d_391_15" x="65.8373" y="50.6128" width="19.6736" height="25.5643" filterUnits="userSpaceOnUse" color-interpolation-filters="sRGB">
<feFlood flood-opacity="0" result="BackgroundImageFix"/>
<feColorMatrix in="SourceAlpha" type="matrix" values="0 0 0 0 0 0 0 0 0 0 0 0 0 0 0 0 0 0 127 0" result="hardAlpha"/>
<feOffset dy="0.12283"/>
<feGaussianBlur stdDeviation="0.24566"/>
<feColorMatrix type="matrix" values="0 0 0 0 0 0 0 0 0 0 0 0 0 0 0 0 0 0 0.15 0"/>
<feBlend mode="normal" in2="BackgroundImageFix" result="effect1_dropShadow_391_15"/>
<feBlend mode="normal" in="SourceGraphic" in2="effect1_dropShadow_391_15" result="shape"/>
</filter>
<linearGradient id="paint0_linear_391_15" x1="54.6186" y1="41.2232" x2="105.3" y2="81.4546" gradientUnits="userSpaceOnUse">
<stop stop-color="#EFEAEA"/>
<stop offset="1" stop-color="white"/>
</linearGradient>
<linearGradient id="paint1_linear_391_15" x1="68.0971" y1="52.599" x2="79.4251" y2="71.7579" gradientUnits="userSpaceOnUse">
<stop/>
<stop offset="1"/>
</linearGradient>
</defs>
</svg>
