<svg width="409" height="378" viewBox="0 0 409 378" fill="none" xmlns="http://www.w3.org/2000/svg">
<g filter="url(#filter0_bii_4_9446)">
<path d="M32.958 260.916V16C32.958 7.71573 39.6737 1 47.958 1H275.342C279.32 1 283.135 2.58029 285.948 5.39322L347.93 67.3727C350.743 70.1858 352.324 74.0011 352.324 77.9795V342.25C352.324 350.534 345.608 357.25 337.324 357.25H129.295C125.317 357.25 121.502 355.67 118.689 352.857L37.3516 271.522C34.5384 268.709 32.958 264.894 32.958 260.916Z" fill="#D9D9D9" fill-opacity="0.1"/>
<path d="M32.958 260.916V16C32.958 7.71573 39.6737 1 47.958 1H275.342C279.32 1 283.135 2.58029 285.948 5.39322L347.93 67.3727C350.743 70.1858 352.324 74.0011 352.324 77.9795V342.25C352.324 350.534 345.608 357.25 337.324 357.25H129.295C125.317 357.25 121.502 355.67 118.689 352.857L37.3516 271.522C34.5384 268.709 32.958 264.894 32.958 260.916Z" stroke="#6AFFB0"/>
</g>
<path d="M56.3486 126.947V39.3901C56.3486 31.1059 63.0644 24.3901 71.3486 24.3901H152.608" stroke="#6AFFB0" stroke-width="2"/>
<path d="M211 325H94.6244C90.6234 325 86.7882 326.598 83.9715 329.44L46.183 367.56C43.3663 370.402 39.5311 372 35.5302 372H6" stroke="#6AFFB0" stroke-width="2"/>
<path d="M310.042 28.8882H353.158C357.148 28.8882 360.973 30.4777 363.788 33.3051L392.935 62.581C395.734 65.3921 397.305 69.1974 397.305 73.1641V220.508" stroke="#6AFFB0" stroke-width="2"/>
<circle cx="6.5" cy="371.5" r="6.5" fill="#6AFFB0"/>
<circle cx="398.205" cy="225.006" r="10.7955" fill="#6AFFB0"/>
<path d="M92.487 93.6185L96.287 97.4185H109.739V92.0985H98.567V78.3805L96.667 76.1005H109.739V70.7805H96.287L92.487 74.5805V93.6185ZM117.901 92.0985V78.3805L116.001 76.1005H124.589V92.0985H117.901ZM115.621 97.4185H126.869L130.669 93.6185V74.5805L126.869 70.7805H115.621L111.821 74.5805V93.6185L115.621 97.4185ZM134.175 97.4185H140.255V81.1545L145.955 97.4185H149.109L154.771 81.1545V97.4185H160.851V70.7805H152.757L147.513 85.7905L142.269 70.7805H133.035L134.175 76.1005V97.4185ZM164.642 97.4185H170.722V81.1545L176.422 97.4185H179.576L185.238 81.1545V97.4185H191.318V70.7805H183.224L177.98 85.7905L172.736 70.7805H163.502L164.642 76.1005V97.4185ZM207.801 70.7805V92.0985H201.113V70.7805H193.893L195.033 76.1005V93.6185L198.833 97.4185H210.081L213.881 93.6185V70.7805H207.801ZM217.486 97.4185H223.566V80.9645L231.812 97.4185H237.892V70.7805H231.812V85.4865L224.44 70.7805H216.346L217.486 76.1005V97.4185ZM241.644 97.4185H247.724V70.7805H240.504L241.644 76.1005V97.4185ZM262.877 78.3805H256.759V97.4185H262.877V78.3805ZM269.261 76.1005V70.7805H249.235L250.375 76.1005H269.261ZM294.284 70.7805H287.14L282.39 82.4465L277.64 70.7805H270.496L279.35 86.7025V97.4185H285.468V86.7025L294.284 70.7805Z" fill="white"/>
<path d="M77.0328 134.151C77.0328 136.185 78.2928 136.419 79.4808 136.419H84.9888V135.087H79.4808C78.9588 135.087 78.3648 135.105 78.3648 134.151V123.243H77.0328V134.151ZM85.7916 131.775C85.7916 135.195 86.7816 136.509 90.0036 136.509C93.2256 136.509 94.2156 135.321 94.2156 131.775C94.2156 127.977 93.2256 126.771 90.0036 126.771C86.8716 126.771 85.7916 127.869 85.7916 131.775ZM87.1236 131.775C87.1236 128.337 87.9876 128.103 90.0036 128.103C92.1096 128.103 92.8836 128.355 92.8836 131.775C92.8836 134.925 91.9476 135.177 90.0036 135.177C88.1496 135.177 87.1236 134.961 87.1236 131.775ZM96.2021 136.419H97.5341V129.147C98.9201 128.481 99.6581 128.103 101.098 128.103C101.62 128.103 102.214 128.157 102.43 128.211V126.897C102.214 126.789 101.62 126.753 101.098 126.753C99.6221 126.753 98.6321 127.437 97.5341 128.067L97.1381 126.861H96.2021V136.419ZM103.335 131.595C103.335 135.339 104.055 136.509 106.485 136.509C107.979 136.509 109.527 136.419 110.985 136.005V134.997C109.635 135.195 108.141 135.177 106.485 135.177C105.081 135.177 104.667 134.619 104.667 132.369H108.699C110.427 132.369 111.165 131.559 111.165 130.173C111.165 127.005 109.761 126.789 107.511 126.789C104.559 126.789 103.335 127.329 103.335 131.595ZM104.667 131.055C104.667 128.139 105.495 128.121 107.529 128.121C109.473 128.121 109.833 128.283 109.833 130.173C109.833 130.767 109.491 131.055 108.699 131.055H104.667ZM112.972 136.419H114.304V129.093C115.69 128.427 116.32 128.085 117.706 128.085C118.642 128.085 119.344 128.769 119.344 129.831V136.419H120.676V129.795V129.093C121.864 128.319 122.782 128.085 124.204 128.085C125.14 128.085 125.824 128.769 125.824 129.831V136.419H127.156V129.831C127.156 127.995 125.86 126.753 124.204 126.753C122.602 126.753 121.288 127.383 120.352 128.157C119.938 127.275 118.876 126.753 117.706 126.753C116.284 126.753 115.402 127.383 114.304 128.013L113.908 126.861H112.972V136.419ZM134.003 136.419H135.335V123.243H134.003V136.419ZM137.493 141.279H138.789V135.843C139.941 136.311 141.525 136.563 142.335 136.563C145.053 136.563 145.485 134.043 145.485 131.595C145.485 129.399 144.945 126.753 142.335 126.753C141.111 126.753 139.257 127.581 138.789 127.923L138.447 126.861H137.493V141.279ZM138.789 134.763V128.913C139.761 128.517 140.913 128.085 142.335 128.085C143.505 128.085 144.153 129.255 144.153 131.595C144.153 134.529 143.487 135.231 142.335 135.231C140.949 135.231 140.031 135.087 138.789 134.763ZM146.836 129.975C146.836 131.829 147.628 132.333 149.32 132.333H152.164C152.956 132.333 153.172 132.693 153.172 133.323V134.205C153.172 135.285 152.164 135.177 152.164 135.177H147.232V136.167C147.916 136.239 151.282 136.509 152.164 136.509C153.316 136.509 154.504 136.167 154.504 134.205V133.323C154.504 131.973 153.73 131.001 152.164 131.001H149.32C148.654 131.001 148.168 130.965 148.168 129.975V129.147C148.168 128.535 148.168 128.085 149.32 128.085H154.018V127.059C153.082 126.969 150.256 126.771 149.32 126.771C147.466 126.771 146.836 127.671 146.836 129.147V129.975ZM156.122 133.521C156.122 135.105 157.166 136.581 159.074 136.581C160.532 136.581 161.504 135.933 162.602 135.303L162.998 136.419H163.934V126.861H162.602V134.223C161.216 134.889 160.514 135.249 159.074 135.249C158.156 135.249 157.454 134.709 157.454 133.521V126.861H156.122V133.521ZM166.093 136.419H167.425V129.093C168.811 128.427 169.441 128.085 170.827 128.085C171.763 128.085 172.465 128.769 172.465 129.831V136.419H173.797V129.795V129.093C174.985 128.319 175.903 128.085 177.325 128.085C178.261 128.085 178.945 128.769 178.945 129.831V136.419H180.277V129.831C180.277 127.995 178.981 126.753 177.325 126.753C175.723 126.753 174.409 127.383 173.473 128.157C173.059 127.275 171.997 126.753 170.827 126.753C169.405 126.753 168.523 127.383 167.425 128.013L167.029 126.861H166.093V136.419ZM186.585 125.313C186.585 125.565 186.765 125.727 187.017 125.727H187.917C188.169 125.727 188.331 125.583 188.331 125.313V124.341C188.331 124.089 188.187 123.891 187.917 123.891H187.017C186.729 123.891 186.585 124.071 186.585 124.341V125.313ZM186.765 136.419H188.097V126.861H186.765V136.419ZM189.955 129.975C189.955 131.829 190.747 132.333 192.439 132.333H195.283C196.075 132.333 196.291 132.693 196.291 133.323V134.205C196.291 135.285 195.283 135.177 195.283 135.177H190.351V136.167C191.035 136.239 194.401 136.509 195.283 136.509C196.435 136.509 197.623 136.167 197.623 134.205V133.323C197.623 131.973 196.849 131.001 195.283 131.001H192.439C191.773 131.001 191.287 130.965 191.287 129.975V129.147C191.287 128.535 191.287 128.085 192.439 128.085H197.137V127.059C196.201 126.969 193.375 126.771 192.439 126.771C190.585 126.771 189.955 127.671 189.955 129.147V129.975ZM203.561 129.975C203.561 131.829 204.353 132.333 206.045 132.333H208.889C209.681 132.333 209.897 132.693 209.897 133.323V134.205C209.897 135.285 208.889 135.177 208.889 135.177H203.957V136.167C204.641 136.239 208.007 136.509 208.889 136.509C210.041 136.509 211.229 136.167 211.229 134.205V133.323C211.229 131.973 210.455 131.001 208.889 131.001H206.045C205.379 131.001 204.893 130.965 204.893 129.975V129.147C204.893 128.535 204.893 128.085 206.045 128.085H210.743V127.059C209.807 126.969 206.981 126.771 206.045 126.771C204.191 126.771 203.561 127.671 203.561 129.147V129.975ZM212.846 125.313C212.846 125.565 213.026 125.727 213.278 125.727H214.178C214.43 125.727 214.592 125.583 214.592 125.313V124.341C214.592 124.089 214.448 123.891 214.178 123.891H213.278C212.99 123.891 212.846 124.071 212.846 124.341V125.313ZM213.026 136.419H214.358V126.861H213.026V136.419ZM216.577 136.419H217.909V129.093C219.295 128.427 219.925 128.085 221.311 128.085C222.247 128.085 222.949 128.769 222.949 129.831V136.419H224.281V129.795V129.093C225.469 128.319 226.387 128.085 227.809 128.085C228.745 128.085 229.429 128.769 229.429 129.831V136.419H230.761V129.831C230.761 127.995 229.465 126.753 227.809 126.753C226.207 126.753 224.893 127.383 223.957 128.157C223.543 127.275 222.481 126.753 221.311 126.753C219.889 126.753 219.007 127.383 217.909 128.013L217.513 126.861H216.577V136.419ZM232.749 141.279H234.045V135.843C235.197 136.311 236.781 136.563 237.591 136.563C240.309 136.563 240.741 134.043 240.741 131.595C240.741 129.399 240.201 126.753 237.591 126.753C236.367 126.753 234.513 127.581 234.045 127.923L233.703 126.861H232.749V141.279ZM234.045 134.763V128.913C235.017 128.517 236.169 128.085 237.591 128.085C238.761 128.085 239.409 129.255 239.409 131.595C239.409 134.529 238.743 135.231 237.591 135.231C236.205 135.231 235.287 135.087 234.045 134.763ZM242.716 133.017C242.716 135.555 243.706 136.419 245.092 136.419H246.676V135.465C246.55 135.465 245.074 135.087 245.074 135.087C244.462 134.943 244.048 134.583 244.048 133.017V122.325H242.716V133.017ZM246.514 126.861L248.854 134.439C249.448 136.383 250.636 136.419 251.014 136.419L249.322 141.279H250.15L251.5 139.443L255.712 126.861H254.218L251.482 135.033C251.5 135.033 250.618 135.357 250.294 134.331L247.972 126.861H246.514ZM261.503 131.685C261.503 133.881 262.043 136.527 264.653 136.527C265.877 136.527 267.713 135.699 268.181 135.357L268.541 136.419H269.495V122.289H268.181V127.437C267.029 126.969 265.463 126.717 264.653 126.717C261.935 126.717 261.503 129.237 261.503 131.685ZM262.835 131.685C262.835 128.751 263.501 128.049 264.653 128.049C266.039 128.049 266.939 128.193 268.181 128.517V134.367C267.209 134.763 266.075 135.195 264.653 135.195C263.483 135.195 262.835 134.025 262.835 131.685ZM271.469 133.521C271.469 135.105 272.513 136.581 274.421 136.581C275.879 136.581 276.851 135.933 277.949 135.303L278.345 136.419H279.281V126.861H277.949V134.223C276.563 134.889 275.861 135.249 274.421 135.249C273.503 135.249 272.801 134.709 272.801 133.521V126.861H271.469V133.521ZM281.44 136.419H282.772V129.093C284.158 128.427 284.788 128.085 286.174 128.085C287.11 128.085 287.812 128.769 287.812 129.831V136.419H289.144V129.795V129.093C290.332 128.319 291.25 128.085 292.672 128.085C293.608 128.085 294.292 128.769 294.292 129.831V136.419H295.624V129.831C295.624 127.995 294.328 126.753 292.672 126.753C291.07 126.753 289.756 127.383 288.82 128.157C288.406 127.275 287.344 126.753 286.174 126.753C284.752 126.753 283.87 127.383 282.772 128.013L282.376 126.861H281.44V136.419ZM297.612 136.419H298.944V129.093C300.33 128.427 300.96 128.085 302.346 128.085C303.282 128.085 303.984 128.769 303.984 129.831V136.419H305.316V129.795V129.093C306.504 128.319 307.422 128.085 308.844 128.085C309.78 128.085 310.464 128.769 310.464 129.831V136.419H311.796V129.831C311.796 127.995 310.5 126.753 308.844 126.753C307.242 126.753 305.928 127.383 304.992 128.157C304.578 127.275 303.516 126.753 302.346 126.753C300.924 126.753 300.042 127.383 298.944 128.013L298.548 126.861H297.612V136.419ZM312.818 126.861L315.158 134.439C315.752 136.383 316.94 136.419 317.318 136.419L315.626 141.279H316.454L317.804 139.443L322.016 126.861H320.522L317.786 135.033C317.804 135.033 316.922 135.357 316.598 134.331L314.276 126.861H312.818ZM107.716 152.175H109.498V156.999C109.498 159.537 110.488 160.401 111.874 160.401H113.458V159.447C113.332 159.447 111.856 159.069 111.856 159.069C111.244 158.925 110.83 158.565 110.83 156.999V152.175H113.62V150.843H110.83V148.179H109.822L109.498 150.843L107.716 151.167V152.175ZM115.059 155.595C115.059 159.339 115.779 160.509 118.209 160.509C119.703 160.509 121.251 160.419 122.709 160.005V158.997C121.359 159.195 119.865 159.177 118.209 159.177C116.805 159.177 116.391 158.619 116.391 156.369H120.423C122.151 156.369 122.889 155.559 122.889 154.173C122.889 151.005 121.485 150.789 119.235 150.789C116.283 150.789 115.059 151.329 115.059 155.595ZM116.391 155.055C116.391 152.139 117.219 152.121 119.253 152.121C121.197 152.121 121.557 152.283 121.557 154.173C121.557 154.767 121.215 155.055 120.423 155.055H116.391ZM124.048 160.419H125.704L128.332 156.783L130.96 160.419H132.472L129.124 155.685L132.616 150.861H130.96L128.296 154.533L125.704 150.861H124.048L127.504 155.631L124.048 160.419ZM133.416 152.175H135.198V156.999C135.198 159.537 136.188 160.401 137.574 160.401H139.158V159.447C139.032 159.447 137.556 159.069 137.556 159.069C136.944 158.925 136.53 158.565 136.53 156.999V152.175H139.32V150.843H136.53V148.179H135.522L135.198 150.843L133.416 151.167V152.175ZM145.258 155.775C145.258 159.195 146.248 160.509 149.47 160.509C152.692 160.509 153.682 159.321 153.682 155.775C153.682 151.977 152.692 150.771 149.47 150.771C146.338 150.771 145.258 151.869 145.258 155.775ZM146.59 155.775C146.59 152.337 147.454 152.103 149.47 152.103C151.576 152.103 152.35 152.355 152.35 155.775C152.35 158.925 151.414 159.177 149.47 159.177C147.616 159.177 146.59 158.961 146.59 155.775ZM154.597 152.193H156.343V160.419H157.675V152.193H160.339V150.861H157.675V149.079C157.675 148.215 157.711 147.549 158.863 147.567C158.863 147.567 161.059 147.585 161.077 147.585V146.703C160.195 146.433 159.439 146.271 158.557 146.271C156.397 146.271 156.343 148.107 156.343 149.079V150.861L154.597 151.167V152.193ZM166.304 152.175H168.086V156.999C168.086 159.537 169.076 160.401 170.462 160.401H172.046V159.447C171.92 159.447 170.444 159.069 170.444 159.069C169.832 158.925 169.418 158.565 169.418 156.999V152.175H172.208V150.843H169.418V148.179H168.41L168.086 150.843L166.304 151.167V152.175ZM173.827 160.419H175.159V153.057C176.545 152.391 177.247 152.031 178.687 152.031C179.623 152.031 180.307 152.571 180.307 153.759V160.419H181.639V153.759C181.639 152.175 180.595 150.699 178.687 150.699C177.229 150.699 176.257 151.347 175.159 151.977V146.307H173.827V160.419ZM183.262 155.595C183.262 159.339 183.982 160.509 186.412 160.509C187.906 160.509 189.454 160.419 190.912 160.005V158.997C189.562 159.195 188.068 159.177 186.412 159.177C185.008 159.177 184.594 158.619 184.594 156.369H188.626C190.354 156.369 191.092 155.559 191.092 154.173C191.092 151.005 189.688 150.789 187.438 150.789C184.486 150.789 183.262 151.329 183.262 155.595ZM184.594 155.055C184.594 152.139 185.422 152.121 187.456 152.121C189.4 152.121 189.76 152.283 189.76 154.173C189.76 154.767 189.418 155.055 188.626 155.055H184.594ZM197.399 165.279H198.695V159.843C199.847 160.311 201.431 160.563 202.241 160.563C204.959 160.563 205.391 158.043 205.391 155.595C205.391 153.399 204.851 150.753 202.241 150.753C201.017 150.753 199.163 151.581 198.695 151.923L198.353 150.861H197.399V165.279ZM198.695 158.763V152.913C199.667 152.517 200.819 152.085 202.241 152.085C203.411 152.085 204.059 153.255 204.059 155.595C204.059 158.529 203.393 159.231 202.241 159.231C200.855 159.231 199.937 159.087 198.695 158.763ZM207.366 160.419H208.698V153.147C210.084 152.481 210.822 152.103 212.262 152.103C212.784 152.103 213.378 152.157 213.594 152.211V150.897C213.378 150.789 212.784 150.753 212.262 150.753C210.786 150.753 209.796 151.437 208.698 152.067L208.302 150.861H207.366V160.419ZM214.85 149.313C214.85 149.565 215.03 149.727 215.282 149.727H216.182C216.434 149.727 216.596 149.583 216.596 149.313V148.341C216.596 148.089 216.452 147.891 216.182 147.891H215.282C214.994 147.891 214.85 148.071 214.85 148.341V149.313ZM215.03 160.419H216.362V150.861H215.03V160.419ZM218.581 160.419H219.913V153.057C221.299 152.391 222.001 152.031 223.441 152.031C224.359 152.031 225.061 152.571 225.061 153.759V160.419H226.393V153.759C226.393 152.175 225.349 150.699 223.441 150.699C221.983 150.699 221.011 151.347 219.913 151.977L219.517 150.861H218.581V160.419ZM227.476 152.175H229.258V156.999C229.258 159.537 230.248 160.401 231.634 160.401H233.218V159.447C233.092 159.447 231.616 159.069 231.616 159.069C231.004 158.925 230.59 158.565 230.59 156.999V152.175H233.38V150.843H230.59V148.179H229.582L229.258 150.843L227.476 151.167V152.175ZM234.819 149.313C234.819 149.565 234.999 149.727 235.251 149.727H236.151C236.403 149.727 236.565 149.583 236.565 149.313V148.341C236.565 148.089 236.421 147.891 236.151 147.891H235.251C234.963 147.891 234.819 148.071 234.819 148.341V149.313ZM234.999 160.419H236.331V150.861H234.999V160.419ZM238.55 160.419H239.882V153.057C241.268 152.391 241.97 152.031 243.41 152.031C244.328 152.031 245.03 152.571 245.03 153.759V160.419H246.362V153.759C246.362 152.175 245.318 150.699 243.41 150.699C241.952 150.699 240.98 151.347 239.882 151.977L239.486 150.861H238.55V160.419ZM248.125 158.349C248.125 158.835 248.287 159.447 248.791 159.807L248.071 160.977V162.507C248.071 164.379 249.259 165.279 250.951 165.279H253.651C256.009 165.279 256.351 163.587 256.351 162.507V161.373C256.351 159.879 255.505 158.889 254.029 158.889H250.195C249.781 158.889 249.457 158.745 249.457 158.277C249.457 157.809 249.907 157.737 250.195 157.737H253.003C255.559 157.737 255.973 155.307 255.973 154.227C255.973 152.913 255.613 152.535 255.415 152.157L256.873 151.833V150.825H251.257C249.331 150.825 248.143 151.941 248.143 154.227C248.143 155.181 248.395 156.351 249.187 156.855C248.449 156.999 248.125 157.755 248.125 158.349ZM249.403 162.507V160.077C249.403 160.077 249.655 160.221 250.213 160.221H253.795C254.821 160.221 255.019 160.617 255.019 161.463V162.507C255.019 163.353 254.713 163.947 253.651 163.947H250.951C250.321 163.947 249.403 163.821 249.403 162.507ZM249.475 154.227C249.475 153.237 249.781 152.157 251.257 152.157H252.877C254.299 152.157 254.587 152.967 254.641 154.227C254.677 155.073 254.335 156.405 252.895 156.405H251.131C249.745 156.405 249.475 155.109 249.475 154.227ZM262.448 158.151C262.448 159.681 263.528 160.527 264.842 160.527C266.48 160.527 268.802 159.267 268.838 159.267L269.18 160.419H270.17V153.453C270.17 151.473 268.91 150.663 267.416 150.681C265.634 150.699 264.032 150.861 262.754 151.221V152.193C264.5 152.067 266.066 151.977 267.362 151.977C268.262 151.977 268.838 152.355 268.838 153.453C268.856 153.471 268.838 154.659 268.838 154.659C268.838 154.677 264.842 154.659 264.842 154.659C263.348 154.659 262.448 155.613 262.448 157.053V158.151ZM263.78 158.061V157.161C263.78 156.585 264.068 156.063 264.842 155.991L268.838 155.703V158.277C268.838 158.277 266.282 159.195 264.842 159.195C264.23 159.195 263.78 158.925 263.78 158.061ZM272.142 160.419H273.474V153.057C274.86 152.391 275.562 152.031 277.002 152.031C277.92 152.031 278.622 152.571 278.622 153.759V160.419H279.954V153.759C279.954 152.175 278.91 150.699 277.002 150.699C275.544 150.699 274.572 151.347 273.474 151.977L273.078 150.861H272.142V160.419ZM281.577 155.685C281.577 157.881 282.117 160.527 284.727 160.527C285.951 160.527 287.787 159.699 288.255 159.357L288.615 160.419H289.569V146.289H288.255V151.437C287.103 150.969 285.537 150.717 284.727 150.717C282.009 150.717 281.577 153.237 281.577 155.685ZM282.909 155.685C282.909 152.751 283.575 152.049 284.727 152.049C286.113 152.049 287.013 152.193 288.255 152.517V158.367C287.283 158.763 286.149 159.195 284.727 159.195C283.557 159.195 282.909 158.025 282.909 155.685ZM87.9059 176.175H89.6879V180.999C89.6879 183.537 90.6779 184.401 92.0639 184.401H93.6479V183.447C93.5219 183.447 92.0459 183.069 92.0459 183.069C91.4339 182.925 91.0199 182.565 91.0199 180.999V176.175H93.8099V174.843H91.0199V172.179H90.0119L89.6879 174.843L87.9059 175.167V176.175ZM94.7266 174.861L97.0666 182.439C97.6606 184.383 98.8486 184.419 99.2266 184.419L97.5346 189.279H98.3626L99.7126 187.443L103.925 174.861H102.431L99.6946 183.033C99.7126 183.033 98.8306 183.357 98.5066 182.331L96.1846 174.861H94.7266ZM105.395 189.279H106.691V183.843C107.843 184.311 109.427 184.563 110.237 184.563C112.955 184.563 113.387 182.043 113.387 179.595C113.387 177.399 112.847 174.753 110.237 174.753C109.013 174.753 107.159 175.581 106.691 175.923L106.349 174.861H105.395V189.279ZM106.691 182.763V176.913C107.663 176.517 108.815 176.085 110.237 176.085C111.407 176.085 112.055 177.255 112.055 179.595C112.055 182.529 111.389 183.231 110.237 183.231C108.851 183.231 107.933 183.087 106.691 182.763ZM115.006 179.595C115.006 183.339 115.726 184.509 118.156 184.509C119.65 184.509 121.198 184.419 122.656 184.005V182.997C121.306 183.195 119.812 183.177 118.156 183.177C116.752 183.177 116.338 182.619 116.338 180.369H120.37C122.098 180.369 122.836 179.559 122.836 178.173C122.836 175.005 121.432 174.789 119.182 174.789C116.23 174.789 115.006 175.329 115.006 179.595ZM116.338 179.055C116.338 176.139 117.166 176.121 119.2 176.121C121.144 176.121 121.504 176.283 121.504 178.173C121.504 178.767 121.162 179.055 120.37 179.055H116.338ZM124.283 177.975C124.283 179.829 125.075 180.333 126.767 180.333H129.611C130.403 180.333 130.619 180.693 130.619 181.323V182.205C130.619 183.285 129.611 183.177 129.611 183.177H124.679V184.167C125.363 184.239 128.729 184.509 129.611 184.509C130.763 184.509 131.951 184.167 131.951 182.205V181.323C131.951 179.973 131.177 179.001 129.611 179.001H126.767C126.101 179.001 125.615 178.965 125.615 177.975V177.147C125.615 176.535 125.615 176.085 126.767 176.085H131.465V175.059C130.529 174.969 127.703 174.771 126.767 174.771C124.913 174.771 124.283 175.671 124.283 177.147V177.975ZM133.569 179.595C133.569 183.339 134.289 184.509 136.719 184.509C138.213 184.509 139.761 184.419 141.219 184.005V182.997C139.869 183.195 138.375 183.177 136.719 183.177C135.315 183.177 134.901 182.619 134.901 180.369H138.933C140.661 180.369 141.399 179.559 141.399 178.173C141.399 175.005 139.995 174.789 137.745 174.789C134.793 174.789 133.569 175.329 133.569 179.595ZM134.901 179.055C134.901 176.139 135.729 176.121 137.763 176.121C139.707 176.121 140.067 176.283 140.067 178.173C140.067 178.767 139.725 179.055 138.933 179.055H134.901ZM142.486 176.175H144.268V180.999C144.268 183.537 145.258 184.401 146.644 184.401H148.228V183.447C148.102 183.447 146.626 183.069 146.626 183.069C146.014 182.925 145.6 182.565 145.6 180.999V176.175H148.39V174.843H145.6V172.179H144.592L144.268 174.843L142.486 175.167V176.175ZM149.289 176.175H151.071V180.999C151.071 183.537 152.061 184.401 153.447 184.401H155.031V183.447C154.905 183.447 153.429 183.069 153.429 183.069C152.817 182.925 152.403 182.565 152.403 180.999V176.175H155.193V174.843H152.403V172.179H151.395L151.071 174.843L149.289 175.167V176.175ZM156.631 173.313C156.631 173.565 156.811 173.727 157.063 173.727H157.963C158.215 173.727 158.377 173.583 158.377 173.313V172.341C158.377 172.089 158.233 171.891 157.963 171.891H157.063C156.775 171.891 156.631 172.071 156.631 172.341V173.313ZM156.811 184.419H158.143V174.861H156.811V184.419ZM160.362 184.419H161.694V177.057C163.08 176.391 163.782 176.031 165.222 176.031C166.14 176.031 166.842 176.571 166.842 177.759V184.419H168.174V177.759C168.174 176.175 167.13 174.699 165.222 174.699C163.764 174.699 162.792 175.347 161.694 175.977L161.298 174.861H160.362V184.419ZM169.937 182.349C169.937 182.835 170.099 183.447 170.603 183.807L169.883 184.977V186.507C169.883 188.379 171.071 189.279 172.763 189.279H175.463C177.821 189.279 178.163 187.587 178.163 186.507V185.373C178.163 183.879 177.317 182.889 175.841 182.889H172.007C171.593 182.889 171.269 182.745 171.269 182.277C171.269 181.809 171.719 181.737 172.007 181.737H174.815C177.371 181.737 177.785 179.307 177.785 178.227C177.785 176.913 177.425 176.535 177.227 176.157L178.685 175.833V174.825H173.069C171.143 174.825 169.955 175.941 169.955 178.227C169.955 179.181 170.207 180.351 170.999 180.855C170.261 180.999 169.937 181.755 169.937 182.349ZM171.215 186.507V184.077C171.215 184.077 171.467 184.221 172.025 184.221H175.607C176.633 184.221 176.831 184.617 176.831 185.463V186.507C176.831 187.353 176.525 187.947 175.463 187.947H172.763C172.133 187.947 171.215 187.821 171.215 186.507ZM171.287 178.227C171.287 177.237 171.593 176.157 173.069 176.157H174.689C176.111 176.157 176.399 176.967 176.453 178.227C176.489 179.073 176.147 180.405 174.707 180.405H172.943C171.557 180.405 171.287 179.109 171.287 178.227ZM184.44 173.313C184.44 173.565 184.62 173.727 184.872 173.727H185.772C186.024 173.727 186.186 173.583 186.186 173.313V172.341C186.186 172.089 186.042 171.891 185.772 171.891H184.872C184.584 171.891 184.44 172.071 184.44 172.341V173.313ZM184.62 184.419H185.952V174.861H184.62V184.419ZM188.171 184.419H189.503V177.057C190.889 176.391 191.591 176.031 193.031 176.031C193.949 176.031 194.651 176.571 194.651 177.759V184.419H195.983V177.759C195.983 176.175 194.939 174.699 193.031 174.699C191.573 174.699 190.601 175.347 189.503 175.977L189.107 174.861H188.171V184.419ZM197.606 179.685C197.606 181.881 198.146 184.527 200.756 184.527C201.98 184.527 203.816 183.699 204.284 183.357L204.644 184.419H205.598V170.289H204.284V175.437C203.132 174.969 201.566 174.717 200.756 174.717C198.038 174.717 197.606 177.237 197.606 179.685ZM198.938 179.685C198.938 176.751 199.604 176.049 200.756 176.049C202.142 176.049 203.042 176.193 204.284 176.517V182.367C203.312 182.763 202.178 183.195 200.756 183.195C199.586 183.195 198.938 182.025 198.938 179.685ZM207.573 181.521C207.573 183.105 208.617 184.581 210.525 184.581C211.983 184.581 212.955 183.933 214.053 183.303L214.449 184.419H215.385V174.861H214.053V182.223C212.667 182.889 211.965 183.249 210.525 183.249C209.607 183.249 208.905 182.709 208.905 181.521V174.861H207.573V181.521ZM217.184 177.975C217.184 179.829 217.976 180.333 219.668 180.333H222.512C223.304 180.333 223.52 180.693 223.52 181.323V182.205C223.52 183.285 222.512 183.177 222.512 183.177H217.58V184.167C218.264 184.239 221.63 184.509 222.512 184.509C223.664 184.509 224.852 184.167 224.852 182.205V181.323C224.852 179.973 224.078 179.001 222.512 179.001H219.668C219.002 179.001 218.516 178.965 218.516 177.975V177.147C218.516 176.535 218.516 176.085 219.668 176.085H224.366V175.059C223.43 174.969 220.604 174.771 219.668 174.771C217.814 174.771 217.184 175.671 217.184 177.147V177.975ZM225.578 176.175H227.36V180.999C227.36 183.537 228.35 184.401 229.736 184.401H231.32V183.447C231.194 183.447 229.718 183.069 229.718 183.069C229.106 182.925 228.692 182.565 228.692 180.999V176.175H231.482V174.843H228.692V172.179H227.684L227.36 174.843L225.578 175.167V176.175ZM233.101 184.419H234.433V177.147C235.819 176.481 236.557 176.103 237.997 176.103C238.519 176.103 239.113 176.157 239.329 176.211V174.897C239.113 174.789 238.519 174.753 237.997 174.753C236.521 174.753 235.531 175.437 234.433 176.067L234.037 174.861H233.101V184.419ZM240.063 174.861L242.403 182.439C242.997 184.383 244.185 184.419 244.563 184.419L242.871 189.279H243.699L245.049 187.443L249.261 174.861H247.767L245.031 183.033C245.049 183.033 244.167 183.357 243.843 182.331L241.521 174.861H240.063ZM250.109 184.005C250.109 184.257 250.289 184.419 250.541 184.419H251.495C251.747 184.419 251.945 184.329 251.945 184.005V182.979C251.945 182.691 251.819 182.529 251.495 182.529H250.541C250.253 182.529 250.109 182.709 250.109 182.979V184.005ZM259.423 182.151C259.423 184.185 260.683 184.419 261.871 184.419H267.379V183.087H261.871C261.349 183.087 260.755 183.105 260.755 182.151V171.243H259.423V182.151ZM268.182 179.775C268.182 183.195 269.172 184.509 272.394 184.509C275.616 184.509 276.606 183.321 276.606 179.775C276.606 175.977 275.616 174.771 272.394 174.771C269.262 174.771 268.182 175.869 268.182 179.775ZM269.514 179.775C269.514 176.337 270.378 176.103 272.394 176.103C274.5 176.103 275.274 176.355 275.274 179.775C275.274 182.925 274.338 183.177 272.394 183.177C270.54 183.177 269.514 182.961 269.514 179.775ZM278.593 184.419H279.925V177.147C281.311 176.481 282.049 176.103 283.489 176.103C284.011 176.103 284.605 176.157 284.821 176.211V174.897C284.605 174.789 284.011 174.753 283.489 174.753C282.013 174.753 281.023 175.437 279.925 176.067L279.529 174.861H278.593V184.419ZM285.725 179.595C285.725 183.339 286.445 184.509 288.875 184.509C290.369 184.509 291.917 184.419 293.375 184.005V182.997C292.025 183.195 290.531 183.177 288.875 183.177C287.471 183.177 287.057 182.619 287.057 180.369H291.089C292.817 180.369 293.555 179.559 293.555 178.173C293.555 175.005 292.151 174.789 289.901 174.789C286.949 174.789 285.725 175.329 285.725 179.595ZM287.057 179.055C287.057 176.139 287.885 176.121 289.919 176.121C291.863 176.121 292.223 176.283 292.223 178.173C292.223 178.767 291.881 179.055 291.089 179.055H287.057ZM295.362 184.419H296.694V177.093C298.08 176.427 298.71 176.085 300.096 176.085C301.032 176.085 301.734 176.769 301.734 177.831V184.419H303.066V177.795V177.093C304.254 176.319 305.172 176.085 306.594 176.085C307.53 176.085 308.214 176.769 308.214 177.831V184.419H309.546V177.831C309.546 175.995 308.25 174.753 306.594 174.753C304.992 174.753 303.678 175.383 302.742 176.157C302.328 175.275 301.266 174.753 300.096 174.753C298.674 174.753 297.792 175.383 296.694 176.013L296.298 174.861H295.362V184.419ZM81.5591 208.419H82.8911V195.243H81.5591V208.419ZM85.0488 213.279H86.3447V207.843C87.4968 208.311 89.0808 208.563 89.8908 208.563C92.6088 208.563 93.0408 206.043 93.0408 203.595C93.0408 201.399 92.5008 198.753 89.8908 198.753C88.6668 198.753 86.8128 199.581 86.3447 199.923L86.0028 198.861H85.0488V213.279ZM86.3447 206.763V200.913C87.3168 200.517 88.4688 200.085 89.8908 200.085C91.0608 200.085 91.7088 201.255 91.7088 203.595C91.7088 206.529 91.0428 207.231 89.8908 207.231C88.5048 207.231 87.5868 207.087 86.3447 206.763ZM94.3919 201.975C94.3919 203.829 95.1839 204.333 96.8759 204.333H99.7199C100.512 204.333 100.728 204.693 100.728 205.323V206.205C100.728 207.285 99.7199 207.177 99.7199 207.177H94.7879V208.167C95.4719 208.239 98.8379 208.509 99.7199 208.509C100.872 208.509 102.06 208.167 102.06 206.205V205.323C102.06 203.973 101.286 203.001 99.7199 203.001H96.8759C96.2099 203.001 95.7239 202.965 95.7239 201.975V201.147C95.7239 200.535 95.7239 200.085 96.8759 200.085H101.574V199.059C100.638 198.969 97.8119 198.771 96.8759 198.771C95.0219 198.771 94.3919 199.671 94.3919 201.147V201.975ZM103.677 205.521C103.677 207.105 104.721 208.581 106.629 208.581C108.087 208.581 109.059 207.933 110.157 207.303L110.553 208.419H111.489V198.861H110.157V206.223C108.771 206.889 108.069 207.249 106.629 207.249C105.711 207.249 105.009 206.709 105.009 205.521V198.861H103.677V205.521ZM113.648 208.419H114.98V201.093C116.366 200.427 116.996 200.085 118.382 200.085C119.318 200.085 120.02 200.769 120.02 201.831V208.419H121.352V201.795V201.093C122.54 200.319 123.458 200.085 124.88 200.085C125.816 200.085 126.5 200.769 126.5 201.831V208.419H127.832V201.831C127.832 199.995 126.536 198.753 124.88 198.753C123.278 198.753 121.964 199.383 121.028 200.157C120.614 199.275 119.552 198.753 118.382 198.753C116.96 198.753 116.078 199.383 114.98 200.013L114.584 198.861H113.648V208.419ZM134.32 208.419H135.652V201.057C137.038 200.391 137.74 200.031 139.18 200.031C140.116 200.031 140.8 200.571 140.8 201.759V208.419H142.132V201.759C142.132 200.175 141.088 198.699 139.18 198.699C137.722 198.699 136.75 199.347 135.652 199.977V194.307H134.32V208.419ZM143.751 206.151C143.751 207.681 144.831 208.527 146.145 208.527C147.783 208.527 150.105 207.267 150.141 207.267L150.483 208.419H151.473V201.453C151.473 199.473 150.213 198.663 148.719 198.681C146.937 198.699 145.335 198.861 144.057 199.221V200.193C145.803 200.067 147.369 199.977 148.665 199.977C149.565 199.977 150.141 200.355 150.141 201.453C150.159 201.471 150.141 202.659 150.141 202.659C150.141 202.677 146.145 202.659 146.145 202.659C144.651 202.659 143.751 203.613 143.751 205.053V206.151ZM145.083 206.061V205.161C145.083 204.585 145.371 204.063 146.145 203.991L150.141 203.703V206.277C150.141 206.277 147.585 207.195 146.145 207.195C145.533 207.195 145.083 206.925 145.083 206.061ZM153.085 201.975C153.085 203.829 153.877 204.333 155.569 204.333H158.413C159.205 204.333 159.421 204.693 159.421 205.323V206.205C159.421 207.285 158.413 207.177 158.413 207.177H153.481V208.167C154.165 208.239 157.531 208.509 158.413 208.509C159.565 208.509 160.753 208.167 160.753 206.205V205.323C160.753 203.973 159.979 203.001 158.413 203.001H155.569C154.903 203.001 154.417 202.965 154.417 201.975V201.147C154.417 200.535 154.417 200.085 155.569 200.085H160.267V199.059C159.331 198.969 156.505 198.771 155.569 198.771C153.715 198.771 153.085 199.671 153.085 201.147V201.975ZM167.051 208.419H168.005L168.365 207.357C168.833 207.699 170.669 208.527 171.893 208.527C174.503 208.527 175.043 205.881 175.043 203.685C175.043 201.237 174.611 198.717 171.893 198.717C171.083 198.717 169.499 198.969 168.347 199.437V194.289H167.051V208.419ZM168.365 206.367V200.517C169.607 200.193 170.507 200.049 171.893 200.049C173.045 200.049 173.711 200.751 173.711 203.685C173.711 206.025 173.063 207.195 171.893 207.195C170.471 207.195 169.337 206.763 168.365 206.367ZM176.662 203.595C176.662 207.339 177.382 208.509 179.812 208.509C181.306 208.509 182.854 208.419 184.312 208.005V206.997C182.962 207.195 181.468 207.177 179.812 207.177C178.408 207.177 177.994 206.619 177.994 204.369H182.026C183.754 204.369 184.492 203.559 184.492 202.173C184.492 199.005 183.088 198.789 180.838 198.789C177.886 198.789 176.662 199.329 176.662 203.595ZM177.994 203.055C177.994 200.139 178.822 200.121 180.856 200.121C182.8 200.121 183.16 200.283 183.16 202.173C183.16 202.767 182.818 203.055 182.026 203.055H177.994ZM186.119 203.595C186.119 207.339 186.839 208.509 189.269 208.509C190.763 208.509 192.311 208.419 193.769 208.005V206.997C192.419 207.195 190.925 207.177 189.269 207.177C187.865 207.177 187.451 206.619 187.451 204.369H191.483C193.211 204.369 193.949 203.559 193.949 202.173C193.949 199.005 192.545 198.789 190.295 198.789C187.343 198.789 186.119 199.329 186.119 203.595ZM187.451 203.055C187.451 200.139 188.279 200.121 190.313 200.121C192.257 200.121 192.617 200.283 192.617 202.173C192.617 202.767 192.275 203.055 191.483 203.055H187.451ZM195.756 208.419H197.088V201.057C198.474 200.391 199.176 200.031 200.616 200.031C201.534 200.031 202.236 200.571 202.236 201.759V208.419H203.568V201.759C203.568 200.175 202.524 198.699 200.616 198.699C199.158 198.699 198.186 199.347 197.088 199.977L196.692 198.861H195.756V208.419ZM209.327 200.175H211.109V204.999C211.109 207.537 212.099 208.401 213.485 208.401H215.069V207.447C214.943 207.447 213.467 207.069 213.467 207.069C212.855 206.925 212.441 206.565 212.441 204.999V200.175H215.231V198.843H212.441V196.179H211.433L211.109 198.843L209.327 199.167V200.175ZM216.85 208.419H218.182V201.057C219.568 200.391 220.27 200.031 221.71 200.031C222.646 200.031 223.33 200.571 223.33 201.759V208.419H224.662V201.759C224.662 200.175 223.618 198.699 221.71 198.699C220.252 198.699 219.28 199.347 218.182 199.977V194.307H216.85V208.419ZM226.285 203.595C226.285 207.339 227.005 208.509 229.435 208.509C230.929 208.509 232.477 208.419 233.935 208.005V206.997C232.585 207.195 231.091 207.177 229.435 207.177C228.031 207.177 227.617 206.619 227.617 204.369H231.649C233.377 204.369 234.115 203.559 234.115 202.173C234.115 199.005 232.711 198.789 230.461 198.789C227.509 198.789 226.285 199.329 226.285 203.595ZM227.617 203.055C227.617 200.139 228.445 200.121 230.479 200.121C232.423 200.121 232.783 200.283 232.783 202.173C232.783 202.767 232.441 203.055 231.649 203.055H227.617ZM240.242 197.313C240.242 197.565 240.422 197.727 240.674 197.727H241.574C241.826 197.727 241.988 197.583 241.988 197.313V196.341C241.988 196.089 241.844 195.891 241.574 195.891H240.674C240.386 195.891 240.242 196.071 240.242 196.341V197.313ZM240.422 208.419H241.754V198.861H240.422V208.419ZM243.973 208.419H245.305V201.057C246.691 200.391 247.393 200.031 248.833 200.031C249.751 200.031 250.453 200.571 250.453 201.759V208.419H251.785V201.759C251.785 200.175 250.741 198.699 248.833 198.699C247.375 198.699 246.403 199.347 245.305 199.977L244.909 198.861H243.973V208.419ZM253.408 203.685C253.408 205.881 253.948 208.527 256.558 208.527C257.782 208.527 259.618 207.699 260.086 207.357L260.446 208.419H261.4V194.289H260.086V199.437C258.934 198.969 257.368 198.717 256.558 198.717C253.84 198.717 253.408 201.237 253.408 203.685ZM254.74 203.685C254.74 200.751 255.406 200.049 256.558 200.049C257.944 200.049 258.844 200.193 260.086 200.517V206.367C259.114 206.763 257.98 207.195 256.558 207.195C255.388 207.195 254.74 206.025 254.74 203.685ZM263.375 205.521C263.375 207.105 264.419 208.581 266.327 208.581C267.785 208.581 268.757 207.933 269.855 207.303L270.251 208.419H271.187V198.861H269.855V206.223C268.469 206.889 267.767 207.249 266.327 207.249C265.409 207.249 264.707 206.709 264.707 205.521V198.861H263.375V205.521ZM272.986 201.975C272.986 203.829 273.778 204.333 275.47 204.333H278.314C279.106 204.333 279.322 204.693 279.322 205.323V206.205C279.322 207.285 278.314 207.177 278.314 207.177H273.382V208.167C274.066 208.239 277.432 208.509 278.314 208.509C279.466 208.509 280.654 208.167 280.654 206.205V205.323C280.654 203.973 279.88 203.001 278.314 203.001H275.47C274.804 203.001 274.318 202.965 274.318 201.975V201.147C274.318 200.535 274.318 200.085 275.47 200.085H280.168V199.059C279.232 198.969 276.406 198.771 275.47 198.771C273.616 198.771 272.986 199.671 272.986 201.147V201.975ZM281.38 200.175H283.162V204.999C283.162 207.537 284.152 208.401 285.538 208.401H287.122V207.447C286.996 207.447 285.52 207.069 285.52 207.069C284.908 206.925 284.494 206.565 284.494 204.999V200.175H287.284V198.843H284.494V196.179H283.486L283.162 198.843L281.38 199.167V200.175ZM288.902 208.419H290.234V201.147C291.62 200.481 292.358 200.103 293.798 200.103C294.32 200.103 294.914 200.157 295.13 200.211V198.897C294.914 198.789 294.32 198.753 293.798 198.753C292.322 198.753 291.332 199.437 290.234 200.067L289.838 198.861H288.902V208.419ZM295.864 198.861L298.204 206.439C298.798 208.383 299.986 208.419 300.364 208.419L298.672 213.279H299.5L300.85 211.443L305.062 198.861H303.568L300.832 207.033C300.85 207.033 299.968 207.357 299.644 206.331L297.322 198.861H295.864ZM306.443 196.449L306.641 198.861H307.613L307.793 196.449V195.243H306.443V196.449ZM309.495 201.975C309.495 203.829 310.287 204.333 311.979 204.333H314.823C315.615 204.333 315.831 204.693 315.831 205.323V206.205C315.831 207.285 314.823 207.177 314.823 207.177H309.891V208.167C310.575 208.239 313.941 208.509 314.823 208.509C315.975 208.509 317.163 208.167 317.163 206.205V205.323C317.163 203.973 316.389 203.001 314.823 203.001H311.979C311.313 203.001 310.827 202.965 310.827 201.975V201.147C310.827 200.535 310.827 200.085 311.979 200.085H316.677V199.059C315.741 198.969 312.915 198.771 311.979 198.771C310.125 198.771 309.495 199.671 309.495 201.147V201.975ZM69.9846 225.975C69.9846 227.829 70.7766 228.333 72.4686 228.333H75.3126C76.1046 228.333 76.3206 228.693 76.3206 229.323V230.205C76.3206 231.285 75.3126 231.177 75.3126 231.177H70.3806V232.167C71.0646 232.239 74.4306 232.509 75.3126 232.509C76.4646 232.509 77.6526 232.167 77.6526 230.205V229.323C77.6526 227.973 76.8786 227.001 75.3126 227.001H72.4686C71.8026 227.001 71.3166 226.965 71.3166 225.975V225.147C71.3166 224.535 71.3166 224.085 72.4686 224.085H77.1666V223.059C76.2306 222.969 73.4046 222.771 72.4686 222.771C70.6146 222.771 69.9846 223.671 69.9846 225.147V225.975ZM78.3786 224.175H80.1606V228.999C80.1606 231.537 81.1506 232.401 82.5366 232.401H84.1206V231.447C83.9946 231.447 82.5186 231.069 82.5186 231.069C81.9066 230.925 81.4926 230.565 81.4926 228.999V224.175H84.2826V222.843H81.4926V220.179H80.4846L80.1606 222.843L78.3786 223.167V224.175ZM85.5413 230.151C85.5413 231.681 86.6213 232.527 87.9353 232.527C89.5733 232.527 91.8953 231.267 91.9313 231.267L92.2733 232.419H93.2633V225.453C93.2633 223.473 92.0033 222.663 90.5093 222.681C88.7273 222.699 87.1253 222.861 85.8473 223.221V224.193C87.5933 224.067 89.1593 223.977 90.4553 223.977C91.3553 223.977 91.9313 224.355 91.9313 225.453C91.9493 225.471 91.9313 226.659 91.9313 226.659C91.9313 226.677 87.9353 226.659 87.9353 226.659C86.4413 226.659 85.5413 227.613 85.5413 229.053V230.151ZM86.8733 230.061V229.161C86.8733 228.585 87.1613 228.063 87.9353 227.991L91.9313 227.703V230.277C91.9313 230.277 89.3753 231.195 87.9353 231.195C87.3233 231.195 86.8733 230.925 86.8733 230.061ZM95.2353 232.419H96.5673V225.057C97.9533 224.391 98.6553 224.031 100.095 224.031C101.013 224.031 101.715 224.571 101.715 225.759V232.419H103.047V225.759C103.047 224.175 102.003 222.699 100.095 222.699C98.6373 222.699 97.6653 223.347 96.5673 223.977L96.1713 222.861H95.2353V232.419ZM104.671 227.685C104.671 229.881 105.211 232.527 107.821 232.527C109.045 232.527 110.881 231.699 111.349 231.357L111.709 232.419H112.663V218.289H111.349V223.437C110.197 222.969 108.631 222.717 107.821 222.717C105.103 222.717 104.671 225.237 104.671 227.685ZM106.003 227.685C106.003 224.751 106.669 224.049 107.821 224.049C109.207 224.049 110.107 224.193 111.349 224.517V230.367C110.377 230.763 109.243 231.195 107.821 231.195C106.651 231.195 106.003 230.025 106.003 227.685ZM114.457 230.151C114.457 231.681 115.537 232.527 116.851 232.527C118.489 232.527 120.811 231.267 120.847 231.267L121.189 232.419H122.179V225.453C122.179 223.473 120.919 222.663 119.425 222.681C117.643 222.699 116.041 222.861 114.763 223.221V224.193C116.509 224.067 118.075 223.977 119.371 223.977C120.271 223.977 120.847 224.355 120.847 225.453C120.865 225.471 120.847 226.659 120.847 226.659C120.847 226.677 116.851 226.659 116.851 226.659C115.357 226.659 114.457 227.613 114.457 229.053V230.151ZM115.789 230.061V229.161C115.789 228.585 116.077 228.063 116.851 227.991L120.847 227.703V230.277C120.847 230.277 118.291 231.195 116.851 231.195C116.239 231.195 115.789 230.925 115.789 230.061ZM124.151 232.419H125.483V225.147C126.869 224.481 127.607 224.103 129.047 224.103C129.569 224.103 130.163 224.157 130.379 224.211V222.897C130.163 222.789 129.569 222.753 129.047 222.753C127.571 222.753 126.581 223.437 125.483 224.067L125.087 222.861H124.151V232.419ZM131.284 227.685C131.284 229.881 131.824 232.527 134.434 232.527C135.658 232.527 137.494 231.699 137.962 231.357L138.322 232.419H139.276V218.289H137.962V223.437C136.81 222.969 135.244 222.717 134.434 222.717C131.716 222.717 131.284 225.237 131.284 227.685ZM132.616 227.685C132.616 224.751 133.282 224.049 134.434 224.049C135.82 224.049 136.72 224.193 137.962 224.517V230.367C136.99 230.763 135.856 231.195 134.434 231.195C133.264 231.195 132.616 230.025 132.616 227.685ZM145.751 227.685C145.751 229.881 146.291 232.527 148.901 232.527C150.125 232.527 151.961 231.699 152.429 231.357L152.789 232.419H153.743V218.289H152.429V223.437C151.277 222.969 149.711 222.717 148.901 222.717C146.183 222.717 145.751 225.237 145.751 227.685ZM147.083 227.685C147.083 224.751 147.749 224.049 148.901 224.049C150.287 224.049 151.187 224.193 152.429 224.517V230.367C151.457 230.763 150.323 231.195 148.901 231.195C147.731 231.195 147.083 230.025 147.083 227.685ZM155.717 229.521C155.717 231.105 156.761 232.581 158.669 232.581C160.127 232.581 161.099 231.933 162.197 231.303L162.593 232.419H163.529V222.861H162.197V230.223C160.811 230.889 160.109 231.249 158.669 231.249C157.751 231.249 157.049 230.709 157.049 229.521V222.861H155.717V229.521ZM165.688 232.419H167.02V225.093C168.406 224.427 169.036 224.085 170.422 224.085C171.358 224.085 172.06 224.769 172.06 225.831V232.419H173.392V225.795V225.093C174.58 224.319 175.498 224.085 176.92 224.085C177.856 224.085 178.54 224.769 178.54 225.831V232.419H179.872V225.831C179.872 223.995 178.576 222.753 176.92 222.753C175.318 222.753 174.004 223.383 173.068 224.157C172.654 223.275 171.592 222.753 170.422 222.753C169 222.753 168.118 223.383 167.02 224.013L166.624 222.861H165.688V232.419ZM181.86 232.419H183.192V225.093C184.578 224.427 185.208 224.085 186.594 224.085C187.53 224.085 188.232 224.769 188.232 225.831V232.419H189.564V225.795V225.093C190.752 224.319 191.67 224.085 193.092 224.085C194.028 224.085 194.712 224.769 194.712 225.831V232.419H196.044V225.831C196.044 223.995 194.748 222.753 193.092 222.753C191.49 222.753 190.176 223.383 189.24 224.157C188.826 223.275 187.764 222.753 186.594 222.753C185.172 222.753 184.29 223.383 183.192 224.013L182.796 222.861H181.86V232.419ZM197.066 222.861L199.406 230.439C200 232.383 201.188 232.419 201.566 232.419L199.874 237.279H200.702L202.052 235.443L206.264 222.861H204.77L202.034 231.033C202.052 231.033 201.17 231.357 200.846 230.331L198.524 222.861H197.066ZM211.515 224.175H213.297V228.999C213.297 231.537 214.287 232.401 215.673 232.401H217.257V231.447C217.131 231.447 215.655 231.069 215.655 231.069C215.043 230.925 214.629 230.565 214.629 228.999V224.175H217.419V222.843H214.629V220.179H213.621L213.297 222.843L211.515 223.167V224.175ZM218.858 227.595C218.858 231.339 219.578 232.509 222.008 232.509C223.502 232.509 225.05 232.419 226.508 232.005V230.997C225.158 231.195 223.664 231.177 222.008 231.177C220.604 231.177 220.19 230.619 220.19 228.369H224.222C225.95 228.369 226.688 227.559 226.688 226.173C226.688 223.005 225.284 222.789 223.034 222.789C220.082 222.789 218.858 223.329 218.858 227.595ZM220.19 227.055C220.19 224.139 221.018 224.121 223.052 224.121C224.996 224.121 225.356 224.283 225.356 226.173C225.356 226.767 225.014 227.055 224.222 227.055H220.19ZM227.847 232.419H229.503L232.131 228.783L234.759 232.419H236.271L232.923 227.685L236.415 222.861H234.759L232.095 226.533L229.503 222.861H227.847L231.303 227.631L227.847 232.419ZM237.214 224.175H238.996V228.999C238.996 231.537 239.986 232.401 241.372 232.401H242.956V231.447C242.83 231.447 241.354 231.069 241.354 231.069C240.742 230.925 240.328 230.565 240.328 228.999V224.175H243.118V222.843H240.328V220.179H239.32L238.996 222.843L237.214 223.167V224.175ZM249.057 227.595C249.057 231.339 249.777 232.509 252.207 232.509C253.701 232.509 255.249 232.419 256.707 232.005V230.997C255.357 231.195 253.863 231.177 252.207 231.177C250.803 231.177 250.389 230.619 250.389 228.369H254.421C256.149 228.369 256.887 227.559 256.887 226.173C256.887 223.005 255.483 222.789 253.233 222.789C250.281 222.789 249.057 223.329 249.057 227.595ZM250.389 227.055C250.389 224.139 251.217 224.121 253.251 224.121C255.195 224.121 255.555 224.283 255.555 226.173C255.555 226.767 255.213 227.055 254.421 227.055H250.389ZM257.798 222.861L261.56 232.419H262.892L266.726 222.861H265.268L262.244 230.457L259.256 222.861H257.798ZM267.637 227.595C267.637 231.339 268.357 232.509 270.787 232.509C272.281 232.509 273.829 232.419 275.287 232.005V230.997C273.937 231.195 272.443 231.177 270.787 231.177C269.383 231.177 268.969 230.619 268.969 228.369H273.001C274.729 228.369 275.467 227.559 275.467 226.173C275.467 223.005 274.063 222.789 271.813 222.789C268.861 222.789 267.637 223.329 267.637 227.595ZM268.969 227.055C268.969 224.139 269.797 224.121 271.831 224.121C273.775 224.121 274.135 224.283 274.135 226.173C274.135 226.767 273.793 227.055 273.001 227.055H268.969ZM277.274 232.419H278.606V225.147C279.992 224.481 280.73 224.103 282.17 224.103C282.692 224.103 283.286 224.157 283.502 224.211V222.897C283.286 222.789 282.692 222.753 282.17 222.753C280.694 222.753 279.704 223.437 278.606 224.067L278.21 222.861H277.274V232.419ZM289.078 225.975C289.078 227.829 289.87 228.333 291.562 228.333H294.406C295.198 228.333 295.414 228.693 295.414 229.323V230.205C295.414 231.285 294.406 231.177 294.406 231.177H289.474V232.167C290.158 232.239 293.524 232.509 294.406 232.509C295.558 232.509 296.746 232.167 296.746 230.205V229.323C296.746 227.973 295.972 227.001 294.406 227.001H291.562C290.896 227.001 290.41 226.965 290.41 225.975V225.147C290.41 224.535 290.41 224.085 291.562 224.085H296.26V223.059C295.324 222.969 292.498 222.771 291.562 222.771C289.708 222.771 289.078 223.671 289.078 225.147V225.975ZM298.364 221.313C298.364 221.565 298.544 221.727 298.796 221.727H299.696C299.948 221.727 300.11 221.583 300.11 221.313V220.341C300.11 220.089 299.966 219.891 299.696 219.891H298.796C298.508 219.891 298.364 220.071 298.364 220.341V221.313ZM298.544 232.419H299.876V222.861H298.544V232.419ZM302.095 232.419H303.427V225.057C304.813 224.391 305.515 224.031 306.955 224.031C307.873 224.031 308.575 224.571 308.575 225.759V232.419H309.907V225.759C309.907 224.175 308.863 222.699 306.955 222.699C305.497 222.699 304.525 223.347 303.427 223.977L303.031 222.861H302.095V232.419ZM311.53 227.631C311.53 231.825 312.898 232.509 314.68 232.509C316.174 232.491 317.452 232.401 318.91 231.987V230.979C318.91 230.979 316.336 231.177 314.68 231.177C313.384 231.177 312.862 230.457 312.862 227.703C312.862 224.301 313.6 224.103 314.68 224.103C316.282 224.103 318.784 224.211 318.784 224.211V223.239C317.524 223.005 315.616 222.771 314.68 222.771C312.844 222.771 311.53 223.455 311.53 227.631ZM320.178 227.595C320.178 231.339 320.898 232.509 323.328 232.509C324.822 232.509 326.37 232.419 327.828 232.005V230.997C326.478 231.195 324.984 231.177 323.328 231.177C321.924 231.177 321.51 230.619 321.51 228.369H325.542C327.27 228.369 328.008 227.559 328.008 226.173C328.008 223.005 326.604 222.789 324.354 222.789C321.402 222.789 320.178 223.329 320.178 227.595ZM321.51 227.055C321.51 224.139 322.338 224.121 324.372 224.121C326.316 224.121 326.676 224.283 326.676 226.173C326.676 226.767 326.334 227.055 325.542 227.055H321.51ZM83.2213 248.175H85.0033V252.999C85.0033 255.537 85.9933 256.401 87.3793 256.401H88.9633V255.447C88.8373 255.447 87.3613 255.069 87.3613 255.069C86.7493 254.925 86.3353 254.565 86.3353 252.999V248.175H89.1253V246.843H86.3353V244.179H85.3273L85.0033 246.843L83.2213 247.167V248.175ZM90.7441 256.419H92.0761V249.057C93.4621 248.391 94.1641 248.031 95.6041 248.031C96.5401 248.031 97.2241 248.571 97.2241 249.759V256.419H98.5561V249.759C98.5561 248.175 97.5121 246.699 95.6041 246.699C94.1461 246.699 93.1741 247.347 92.0761 247.977V242.307H90.7441V256.419ZM100.179 251.595C100.179 255.339 100.899 256.509 103.329 256.509C104.823 256.509 106.371 256.419 107.829 256.005V254.997C106.479 255.195 104.985 255.177 103.329 255.177C101.925 255.177 101.511 254.619 101.511 252.369H105.543C107.271 252.369 108.009 251.559 108.009 250.173C108.009 247.005 106.605 246.789 104.355 246.789C101.403 246.789 100.179 247.329 100.179 251.595ZM101.511 251.055C101.511 248.139 102.339 248.121 104.373 248.121C106.317 248.121 106.677 248.283 106.677 250.173C106.677 250.767 106.335 251.055 105.543 251.055H101.511ZM113.956 245.727L116.98 244.755V256.419H118.312V243.243H116.98L113.956 244.773V245.727ZM121.126 256.059C123.538 256.473 124.366 256.491 126.598 256.491C127.714 256.491 129.55 255.897 129.55 253.431V251.379C129.55 249.633 128.722 248.391 126.598 248.391C126.04 248.391 124.87 248.265 123.898 248.391C123.322 248.463 122.818 248.625 122.566 248.931L122.782 244.575H129.154V243.243H121.558L121.162 251.073H122.35C122.35 250.101 123.124 249.723 123.826 249.723H126.598C128.2 249.723 128.218 250.821 128.218 251.415V253.395C128.218 254.187 127.84 255.069 126.598 255.069H121.126V256.059ZM131.864 253.503C131.864 255.663 133.322 256.419 134.96 256.419H137.912C139.694 256.419 140.918 255.645 140.918 253.503V246.159C140.918 244.611 140.108 243.243 137.912 243.243H134.96C133.25 243.243 131.864 244.215 131.864 246.159V253.503ZM133.196 253.503V246.159C133.196 245.295 133.7 244.575 134.96 244.575H137.912C139.244 244.575 139.586 245.331 139.586 246.159V253.503C139.586 254.475 139.064 255.087 137.912 255.087H134.96C134.096 255.087 133.196 254.709 133.196 253.503ZM143.43 253.503C143.43 255.663 144.888 256.419 146.526 256.419H149.478C151.26 256.419 152.484 255.645 152.484 253.503V246.159C152.484 244.611 151.674 243.243 149.478 243.243H146.526C144.816 243.243 143.43 244.215 143.43 246.159V253.503ZM144.762 253.503V246.159C144.762 245.295 145.266 244.575 146.526 244.575H149.478C150.81 244.575 151.152 245.331 151.152 246.159V253.503C151.152 254.475 150.63 255.087 149.478 255.087H146.526C145.662 255.087 144.762 254.709 144.762 253.503ZM154.456 249.975C154.456 251.829 155.248 252.333 156.94 252.333H159.784C160.576 252.333 160.792 252.693 160.792 253.323V254.205C160.792 255.285 159.784 255.177 159.784 255.177H154.852V256.167C155.536 256.239 158.902 256.509 159.784 256.509C160.936 256.509 162.124 256.167 162.124 254.205V253.323C162.124 251.973 161.35 251.001 159.784 251.001H156.94C156.274 251.001 155.788 250.965 155.788 249.975V249.147C155.788 248.535 155.788 248.085 156.94 248.085H161.638V247.059C160.702 246.969 157.876 246.771 156.94 246.771C155.086 246.771 154.456 247.671 154.456 249.147V249.975ZM163.827 255.969C163.827 256.275 164.025 256.419 164.277 256.419H164.475V256.869C164.475 257.067 164.457 257.445 163.917 257.427V258.003C163.917 258.003 165.627 258.327 165.627 256.617V254.997C165.627 254.727 165.519 254.511 165.195 254.511H164.277C163.989 254.511 163.827 254.673 163.827 254.997V255.969ZM172.008 246.861L175.59 256.419H177.03L178.596 251.739L180.72 256.419H182.052L185.706 246.861H184.248L181.332 254.457L179.244 249.921L180.216 246.861H178.776L176.292 254.457L173.466 246.861H172.008ZM187.143 256.419H188.475V249.057C189.861 248.391 190.562 248.031 192.003 248.031C192.939 248.031 193.623 248.571 193.623 249.759V256.419H194.955V249.759C194.955 248.175 193.911 246.699 192.003 246.699C190.545 246.699 189.573 247.347 188.475 247.977V242.307H187.143V256.419ZM196.578 251.595C196.578 255.339 197.298 256.509 199.728 256.509C201.222 256.509 202.77 256.419 204.228 256.005V254.997C202.878 255.195 201.384 255.177 199.728 255.177C198.324 255.177 197.91 254.619 197.91 252.369H201.942C203.67 252.369 204.408 251.559 204.408 250.173C204.408 247.005 203.004 246.789 200.754 246.789C197.802 246.789 196.578 247.329 196.578 251.595ZM197.91 251.055C197.91 248.139 198.738 248.121 200.772 248.121C202.716 248.121 203.076 248.283 203.076 250.173C203.076 250.767 202.734 251.055 201.942 251.055H197.91ZM206.215 256.419H207.547V249.057C208.933 248.391 209.635 248.031 211.075 248.031C211.993 248.031 212.695 248.571 212.695 249.759V256.419H214.027V249.759C214.027 248.175 212.983 246.699 211.075 246.699C209.617 246.699 208.645 247.347 207.547 247.977L207.151 246.861H206.215V256.419ZM220.146 254.151C220.146 255.681 221.226 256.527 222.54 256.527C224.178 256.527 226.5 255.267 226.536 255.267L226.878 256.419H227.868V249.453C227.868 247.473 226.608 246.663 225.114 246.681C223.332 246.699 221.73 246.861 220.452 247.221V248.193C222.198 248.067 223.764 247.977 225.06 247.977C225.96 247.977 226.536 248.355 226.536 249.453C226.554 249.471 226.536 250.659 226.536 250.659C226.536 250.677 222.54 250.659 222.54 250.659C221.046 250.659 220.146 251.613 220.146 253.053V254.151ZM221.478 254.061V253.161C221.478 252.585 221.766 252.063 222.54 251.991L226.536 251.703V254.277C226.536 254.277 223.98 255.195 222.54 255.195C221.928 255.195 221.478 254.925 221.478 254.061ZM229.84 256.419H231.172V249.057C232.558 248.391 233.26 248.031 234.7 248.031C235.618 248.031 236.32 248.571 236.32 249.759V256.419H237.652V249.759C237.652 248.175 236.608 246.699 234.7 246.699C233.242 246.699 232.27 247.347 231.172 247.977L230.776 246.861H229.84V256.419ZM243.951 253.521C243.951 255.105 244.995 256.581 246.903 256.581C248.361 256.581 249.333 255.933 250.431 255.303L250.827 256.419H251.763V246.861H250.431V254.223C249.045 254.889 248.343 255.249 246.903 255.249C245.985 255.249 245.283 254.709 245.283 253.521V246.861H243.951V253.521ZM253.922 256.419H255.254V249.057C256.64 248.391 257.342 248.031 258.782 248.031C259.7 248.031 260.402 248.571 260.402 249.759V256.419H261.734V249.759C261.734 248.175 260.69 246.699 258.782 246.699C257.324 246.699 256.352 247.347 255.254 247.977L254.858 246.861H253.922V256.419ZM263.713 256.419H265.045V251.595H265.765L269.617 256.419H271.273L267.025 250.929L271.273 246.861H269.419L265.765 250.263H265.045V242.343H263.713V256.419ZM272.713 256.419H274.045V249.057C275.431 248.391 276.133 248.031 277.573 248.031C278.491 248.031 279.193 248.571 279.193 249.759V256.419H280.525V249.759C280.525 248.175 279.481 246.699 277.573 246.699C276.115 246.699 275.143 247.347 274.045 247.977L273.649 246.861H272.713V256.419ZM282.148 251.775C282.148 255.195 283.138 256.509 286.36 256.509C289.582 256.509 290.572 255.321 290.572 251.775C290.572 247.977 289.582 246.771 286.36 246.771C283.228 246.771 282.148 247.869 282.148 251.775ZM283.48 251.775C283.48 248.337 284.344 248.103 286.36 248.103C288.466 248.103 289.24 248.355 289.24 251.775C289.24 254.925 288.304 255.177 286.36 255.177C284.506 255.177 283.48 254.961 283.48 251.775ZM291.294 246.861L294.876 256.419H296.316L297.882 251.739L300.006 256.419H301.338L304.992 246.861H303.534L300.618 254.457L298.53 249.921L299.502 246.861H298.062L295.578 254.457L292.752 246.861H291.294ZM306.428 256.419H307.76V249.057C309.146 248.391 309.848 248.031 311.288 248.031C312.206 248.031 312.908 248.571 312.908 249.759V256.419H314.24V249.759C314.24 248.175 313.196 246.699 311.288 246.699C309.83 246.699 308.858 247.347 307.76 247.977L307.364 246.861H306.428V256.419ZM152.426 285.279H153.722V279.843C154.874 280.311 156.458 280.563 157.268 280.563C159.986 280.563 160.418 278.043 160.418 275.595C160.418 273.399 159.878 270.753 157.268 270.753C156.044 270.753 154.19 271.581 153.722 271.923L153.38 270.861H152.426V285.279ZM153.722 278.763V272.913C154.694 272.517 155.846 272.085 157.268 272.085C158.438 272.085 159.086 273.255 159.086 275.595C159.086 278.529 158.42 279.231 157.268 279.231C155.882 279.231 154.964 279.087 153.722 278.763ZM162.393 280.419H163.725V273.147C165.111 272.481 165.849 272.103 167.289 272.103C167.811 272.103 168.405 272.157 168.621 272.211V270.897C168.405 270.789 167.811 270.753 167.289 270.753C165.812 270.753 164.823 271.437 163.725 272.067L163.329 270.861H162.393V280.419ZM169.877 269.313C169.877 269.565 170.057 269.727 170.309 269.727H171.209C171.461 269.727 171.623 269.583 171.623 269.313V268.341C171.623 268.089 171.479 267.891 171.209 267.891H170.309C170.021 267.891 169.877 268.071 169.877 268.341V269.313ZM170.057 280.419H171.389V270.861H170.057V280.419ZM173.607 280.419H174.939V273.057C176.325 272.391 177.027 272.031 178.467 272.031C179.385 272.031 180.087 272.571 180.087 273.759V280.419H181.419V273.759C181.419 272.175 180.375 270.699 178.467 270.699C177.009 270.699 176.037 271.347 174.939 271.977L174.543 270.861H173.607V280.419ZM182.503 272.175H184.285V276.999C184.285 279.537 185.275 280.401 186.661 280.401H188.245V279.447C188.119 279.447 186.643 279.069 186.643 279.069C186.031 278.925 185.617 278.565 185.617 276.999V272.175H188.407V270.843H185.617V268.179H184.609L184.285 270.843L182.503 271.167V272.175ZM189.845 275.595C189.845 279.339 190.565 280.509 192.995 280.509C194.489 280.509 196.037 280.419 197.495 280.005V278.997C196.145 279.195 194.651 279.177 192.995 279.177C191.591 279.177 191.177 278.619 191.177 276.369H195.209C196.937 276.369 197.675 275.559 197.675 274.173C197.675 271.005 196.271 270.789 194.021 270.789C191.069 270.789 189.845 271.329 189.845 275.595ZM191.177 275.055C191.177 272.139 192.005 272.121 194.039 272.121C195.983 272.121 196.343 272.283 196.343 274.173C196.343 274.767 196.001 275.055 195.209 275.055H191.177ZM199.482 280.419H200.814V273.147C202.2 272.481 202.938 272.103 204.378 272.103C204.9 272.103 205.494 272.157 205.71 272.211V270.897C205.494 270.789 204.9 270.753 204.378 270.753C202.902 270.753 201.912 271.437 200.814 272.067L200.418 270.861H199.482V280.419ZM210.926 272.175H212.708V276.999C212.708 279.537 213.698 280.401 215.084 280.401H216.668V279.447C216.542 279.447 215.066 279.069 215.066 279.069C214.454 278.925 214.04 278.565 214.04 276.999V272.175H216.83V270.843H214.04V268.179H213.032L212.708 270.843L210.926 271.167V272.175ZM218.269 275.775C218.269 279.195 219.259 280.509 222.481 280.509C225.703 280.509 226.693 279.321 226.693 275.775C226.693 271.977 225.703 270.771 222.481 270.771C219.349 270.771 218.269 271.869 218.269 275.775ZM219.601 275.775C219.601 272.337 220.465 272.103 222.481 272.103C224.587 272.103 225.361 272.355 225.361 275.775C225.361 278.925 224.425 279.177 222.481 279.177C220.627 279.177 219.601 278.961 219.601 275.775ZM228.324 275.775C228.324 279.195 229.314 280.509 232.536 280.509C235.758 280.509 236.748 279.321 236.748 275.775C236.748 271.977 235.758 270.771 232.536 270.771C229.404 270.771 228.324 271.869 228.324 275.775ZM229.656 275.775C229.656 272.337 230.52 272.103 232.536 272.103C234.642 272.103 235.416 272.355 235.416 275.775C235.416 278.925 234.48 279.177 232.536 279.177C230.682 279.177 229.656 278.961 229.656 275.775ZM238.734 280.419H240.066V275.595H240.786L244.638 280.419H246.294L242.046 274.929L246.294 270.861H244.44L240.786 274.263H240.066V266.343H238.734V280.419Z" fill="white"/>
<defs>
<filter id="filter0_bii_4_9446" x="-4.77533" y="-36.7333" width="394.832" height="431.717" filterUnits="userSpaceOnUse" color-interpolation-filters="sRGB">
<feFlood flood-opacity="0" result="BackgroundImageFix"/>
<feGaussianBlur in="BackgroundImageFix" stdDeviation="18.6167"/>
<feComposite in2="SourceAlpha" operator="in" result="effect1_backgroundBlur_4_9446"/>
<feBlend mode="normal" in="SourceGraphic" in2="effect1_backgroundBlur_4_9446" result="shape"/>
<feColorMatrix in="SourceAlpha" type="matrix" values="0 0 0 0 0 0 0 0 0 0 0 0 0 0 0 0 0 0 127 0" result="hardAlpha"/>
<feOffset dx="-18.6167" dy="18.6167"/>
<feGaussianBlur stdDeviation="9.30833"/>
<feComposite in2="hardAlpha" operator="arithmetic" k2="-1" k3="1"/>
<feColorMatrix type="matrix" values="0 0 0 0 1 0 0 0 0 1 0 0 0 0 1 0 0 0 0.1 0"/>
<feBlend mode="normal" in2="shape" result="effect2_innerShadow_4_9446"/>
<feColorMatrix in="SourceAlpha" type="matrix" values="0 0 0 0 0 0 0 0 0 0 0 0 0 0 0 0 0 0 127 0" result="hardAlpha"/>
<feOffset dx="18.6167" dy="-18.6167"/>
<feGaussianBlur stdDeviation="9.30833"/>
<feComposite in2="hardAlpha" operator="arithmetic" k2="-1" k3="1"/>
<feColorMatrix type="matrix" values="0 0 0 0 0.646745 0 0 0 0 0.646745 0 0 0 0 0.646745 0 0 0 0.1 0"/>
<feBlend mode="normal" in2="effect2_innerShadow_4_9446" result="effect3_innerShadow_4_9446"/>
</filter>
</defs>
</svg>
