<svg width="150" height="153" viewBox="0 0 150 153" fill="none" xmlns="http://www.w3.org/2000/svg">
<g filter="url(#filter0_bii_391_3)">
<path d="M75 0L139.952 38.25V114.75L75 153L10.0481 114.75V38.25L75 0Z" fill="#D9D9D9" fill-opacity="0.1"/>
<path d="M11.0481 38.8216L75 1.16052L138.952 38.8216V114.178L75 151.839L11.0481 114.178V38.8216Z" stroke="white" stroke-width="2"/>
</g>
<path d="M64.67 112.108C63.89 112.108 63.2 112.018 62.6 111.838C62.012 111.658 61.514 111.328 61.106 110.848C60.71 110.368 60.41 109.684 60.206 108.796C60.002 107.908 59.9 106.744 59.9 105.304C59.9 103.948 60.002 102.832 60.206 101.956C60.422 101.08 60.734 100.396 61.142 99.904C61.562 99.412 62.072 99.07 62.672 98.878C63.272 98.686 63.956 98.59 64.724 98.59C65.252 98.59 65.762 98.62 66.254 98.68C66.758 98.74 67.22 98.812 67.64 98.896C68.072 98.98 68.444 99.07 68.756 99.166V100.876C68.552 100.828 68.264 100.786 67.892 100.75C67.52 100.702 67.1 100.666 66.632 100.642C66.164 100.606 65.678 100.588 65.174 100.588C64.622 100.588 64.148 100.654 63.752 100.786C63.368 100.906 63.056 101.134 62.816 101.47C62.576 101.806 62.402 102.286 62.294 102.91C62.186 103.534 62.132 104.344 62.132 105.34C62.132 106.324 62.18 107.128 62.276 107.752C62.384 108.376 62.546 108.862 62.762 109.21C62.99 109.546 63.296 109.78 63.68 109.912C64.076 110.044 64.568 110.11 65.156 110.11C66.056 110.11 66.794 110.092 67.37 110.056C67.946 110.008 68.408 109.96 68.756 109.912V111.622C68.42 111.718 68.036 111.802 67.604 111.874C67.184 111.946 66.728 112 66.236 112.036C65.756 112.084 65.234 112.108 64.67 112.108ZM74.6777 112.108C74.3537 112.108 74.0057 112.096 73.6337 112.072C73.2737 112.06 72.9017 112.036 72.5177 112C72.1457 111.952 71.7917 111.91 71.4557 111.874C71.1197 111.826 70.8197 111.772 70.5557 111.712V109.966C70.8917 109.99 71.2817 110.014 71.7257 110.038C72.1817 110.062 72.6557 110.08 73.1477 110.092C73.6397 110.104 74.1137 110.11 74.5697 110.11C75.0497 110.11 75.4757 110.068 75.8477 109.984C76.2197 109.888 76.5077 109.726 76.7117 109.498C76.9157 109.27 77.0177 108.946 77.0177 108.526V107.896C77.0177 107.428 76.8857 107.068 76.6217 106.816C76.3577 106.564 75.9677 106.438 75.4517 106.438H74.2097C72.9977 106.438 72.0617 106.174 71.4017 105.646C70.7537 105.118 70.4297 104.212 70.4297 102.928V102.244C70.4297 100.96 70.7837 100.036 71.4917 99.472C72.2117 98.896 73.2377 98.608 74.5697 98.608C75.0257 98.608 75.4937 98.632 75.9737 98.68C76.4657 98.716 76.9337 98.764 77.3777 98.824C77.8217 98.884 78.1997 98.95 78.5117 99.022V100.768C77.9837 100.732 77.3777 100.696 76.6937 100.66C76.0217 100.624 75.3977 100.606 74.8217 100.606C74.3657 100.606 73.9637 100.654 73.6157 100.75C73.2677 100.846 73.0037 101.02 72.8237 101.272C72.6437 101.512 72.5537 101.872 72.5537 102.352V102.784C72.5537 103.348 72.7037 103.744 73.0037 103.972C73.3157 104.2 73.7597 104.314 74.3357 104.314H75.7217C76.5017 104.314 77.1437 104.458 77.6477 104.746C78.1517 105.034 78.5237 105.43 78.7637 105.934C79.0157 106.426 79.1417 106.99 79.1417 107.626V108.472C79.1417 109.456 78.9497 110.212 78.5657 110.74C78.1817 111.268 77.6537 111.628 76.9817 111.82C76.3097 112.012 75.5417 112.108 74.6777 112.108ZM85.207 112.108C84.883 112.108 84.535 112.096 84.163 112.072C83.803 112.06 83.431 112.036 83.047 112C82.675 111.952 82.321 111.91 81.985 111.874C81.649 111.826 81.349 111.772 81.085 111.712V109.966C81.421 109.99 81.811 110.014 82.255 110.038C82.711 110.062 83.185 110.08 83.677 110.092C84.169 110.104 84.643 110.11 85.099 110.11C85.579 110.11 86.005 110.068 86.377 109.984C86.749 109.888 87.037 109.726 87.241 109.498C87.445 109.27 87.547 108.946 87.547 108.526V107.896C87.547 107.428 87.415 107.068 87.151 106.816C86.887 106.564 86.497 106.438 85.981 106.438H84.739C83.527 106.438 82.591 106.174 81.931 105.646C81.283 105.118 80.959 104.212 80.959 102.928V102.244C80.959 100.96 81.313 100.036 82.021 99.472C82.741 98.896 83.767 98.608 85.099 98.608C85.555 98.608 86.023 98.632 86.503 98.68C86.995 98.716 87.463 98.764 87.907 98.824C88.351 98.884 88.729 98.95 89.041 99.022V100.768C88.513 100.732 87.907 100.696 87.223 100.66C86.551 100.624 85.927 100.606 85.351 100.606C84.895 100.606 84.493 100.654 84.145 100.75C83.797 100.846 83.533 101.02 83.353 101.272C83.173 101.512 83.083 101.872 83.083 102.352V102.784C83.083 103.348 83.233 103.744 83.533 103.972C83.845 104.2 84.289 104.314 84.865 104.314H86.251C87.031 104.314 87.673 104.458 88.177 104.746C88.681 105.034 89.053 105.43 89.293 105.934C89.545 106.426 89.671 106.99 89.671 107.626V108.472C89.671 109.456 89.479 110.212 89.095 110.74C88.711 111.268 88.183 111.628 87.511 111.82C86.839 112.012 86.071 112.108 85.207 112.108Z" fill="white"/>
<path d="M74.9719 87.1689L56.1864 81.9539L52 35H98L93.8093 81.9467L74.9719 87.1689Z" fill="white"/>
<path d="M90.3017 78.7347L93.8827 38.6166H75.0801V82.9546L90.3017 78.7347Z" fill="#EFE8E8"/>
<path d="M61.6773 56.0312L62.1934 61.7899H75.0803V56.0312H61.6773ZM60.6401 44.3755L61.1636 50.1342H75.0803V44.3755H60.6401ZM75.0803 70.9872L75.055 70.9939L68.6416 69.2621L68.2316 64.6693H62.4507L63.2574 73.7114L75.0537 76.9859L75.0803 76.9787V70.9872Z" fill="black"/>
<path d="M88.4462 56.0312L89.4858 44.3755H75.0602V50.1342H83.1747L82.6508 56.0312H75.0602V61.7899H82.1515L81.4829 69.2585L75.0601 70.9921V76.9832L86.8658 73.7114L86.9523 72.7384L88.3058 57.5776L88.4462 56.0312Z" fill="#050505"/>
<defs>
<filter id="filter0_bii_391_3" x="-37.8821" y="-47.93" width="225.764" height="248.86" filterUnits="userSpaceOnUse" color-interpolation-filters="sRGB">
<feFlood flood-opacity="0" result="BackgroundImageFix"/>
<feGaussianBlur in="BackgroundImageFix" stdDeviation="23.965"/>
<feComposite in2="SourceAlpha" operator="in" result="effect1_backgroundBlur_391_3"/>
<feBlend mode="normal" in="SourceGraphic" in2="effect1_backgroundBlur_391_3" result="shape"/>
<feColorMatrix in="SourceAlpha" type="matrix" values="0 0 0 0 0 0 0 0 0 0 0 0 0 0 0 0 0 0 127 0" result="hardAlpha"/>
<feOffset dx="-23.97" dy="23.97"/>
<feGaussianBlur stdDeviation="11.985"/>
<feComposite in2="hardAlpha" operator="arithmetic" k2="-1" k3="1"/>
<feColorMatrix type="matrix" values="0 0 0 0 0 0 0 0 0 0 0 0 0 0 0 0 0 0 0.25 0"/>
<feBlend mode="normal" in2="shape" result="effect2_innerShadow_391_3"/>
<feColorMatrix in="SourceAlpha" type="matrix" values="0 0 0 0 0 0 0 0 0 0 0 0 0 0 0 0 0 0 127 0" result="hardAlpha"/>
<feOffset dx="23.97" dy="-23.97"/>
<feGaussianBlur stdDeviation="11.985"/>
<feComposite in2="hardAlpha" operator="arithmetic" k2="-1" k3="1"/>
<feColorMatrix type="matrix" values="0 0 0 0 0 0 0 0 0 0 0 0 0 0 0 0 0 0 0.25 0"/>
<feBlend mode="normal" in2="effect2_innerShadow_391_3" result="effect3_innerShadow_391_3"/>
</filter>
</defs>
</svg>
