<svg width="45" height="39" viewBox="0 0 45 39" fill="none" xmlns="http://www.w3.org/2000/svg">
<path fill-rule="evenodd" clip-rule="evenodd" d="M44.9227 1.88364C44.6409 1.58212 44.3531 1.28621 44.0596 0.996094H44.9227V1.88364ZM0.316807 0.996094H0V1.31376C0.104842 1.20711 0.210447 1.10122 0.316807 0.996094ZM36.233 10.447C33.6494 9.28183 30.8799 8.4206 27.9838 7.93088C27.958 7.92593 27.9313 7.92912 27.9074 7.94001C27.8835 7.9509 27.8636 7.96896 27.8504 7.99167C27.4958 8.6148 27.1006 9.42706 26.8237 10.0688C23.7521 9.60983 20.6294 9.60983 17.5579 10.0688C17.2494 9.35758 16.9015 8.66415 16.5159 7.99167C16.5029 7.96868 16.4831 7.95021 16.4593 7.93875C16.4354 7.92728 16.4087 7.92336 16.3825 7.9275C13.4881 8.41722 10.7187 9.27845 8.1333 10.4453C8.11105 10.4547 8.0922 10.4706 8.07926 10.4909C2.82406 18.2167 1.38361 25.7516 2.09117 33.1919C2.09314 33.2102 2.0988 33.2278 2.1078 33.2438C2.1168 33.2597 2.12895 33.2737 2.14352 33.2848C5.21084 35.518 8.63203 37.2192 12.2638 38.3171C12.2891 38.3249 12.3162 38.3249 12.3415 38.3171C12.3668 38.3092 12.3892 38.2939 12.4057 38.2732C13.1872 37.228 13.8797 36.1192 14.476 34.9583C14.4843 34.9424 14.489 34.925 14.49 34.9071C14.4909 34.8892 14.488 34.8714 14.4815 34.8547C14.4749 34.8381 14.4648 34.823 14.4519 34.8106C14.4391 34.7982 14.4236 34.7886 14.4068 34.7827C13.3159 34.3719 12.2589 33.8761 11.2455 33.3C11.2273 33.2896 11.212 33.2749 11.2009 33.2571C11.1898 33.2393 11.1833 33.219 11.1819 33.1981C11.1806 33.1772 11.1845 33.1563 11.1932 33.1372C11.202 33.1182 11.2153 33.1016 11.232 33.0889C11.4448 32.9319 11.6576 32.7681 11.8602 32.6043C11.8785 32.5896 11.9004 32.5802 11.9237 32.5772C11.947 32.5742 11.9706 32.5777 11.9919 32.5874C18.6234 35.5662 25.8054 35.5662 32.3592 32.5874C32.3806 32.5772 32.4045 32.5732 32.4281 32.5759C32.4517 32.5786 32.474 32.5878 32.4926 32.6026C32.6952 32.7681 32.9063 32.9319 33.1208 33.0889C33.1377 33.1013 33.1513 33.1177 33.1603 33.1366C33.1693 33.1555 33.1735 33.1763 33.1725 33.1972C33.1715 33.2181 33.1653 33.2385 33.1545 33.2564C33.1437 33.2743 33.1287 33.2893 33.1107 33.3C32.1008 33.8809 31.0505 34.3723 29.9478 34.781C29.9308 34.7871 29.9154 34.7968 29.9025 34.8094C29.8896 34.822 29.8796 34.8372 29.873 34.854C29.8664 34.8708 29.8635 34.8888 29.8645 34.9067C29.8655 34.9247 29.8702 34.9423 29.8785 34.9583C30.4864 36.1184 31.1822 37.2228 31.9472 38.2715C31.9631 38.293 31.9852 38.3091 32.0106 38.3176C32.036 38.326 32.0634 38.3265 32.089 38.3188C35.727 37.2239 39.1538 35.522 42.2245 33.2848C42.2395 33.2744 42.2521 33.2608 42.2614 33.2451C42.2707 33.2293 42.2766 33.2118 42.2785 33.1936C43.1229 24.5915 40.8634 17.1173 36.2854 10.4943C36.2742 10.4728 36.2556 10.456 36.233 10.447ZM15.4673 28.6612C13.4712 28.6612 11.8248 26.856 11.8248 24.6421C11.8248 22.4266 13.4392 20.623 15.4673 20.623C17.5106 20.623 19.1418 22.4418 19.1098 24.6421C19.1098 26.8577 17.4954 28.6612 15.4673 28.6612ZM28.9345 28.6612C26.9368 28.6612 25.292 26.856 25.292 24.6421C25.292 22.4266 26.9047 20.623 28.9345 20.623C30.9779 20.623 32.6091 22.4418 32.577 24.6421C32.577 26.8577 30.9795 28.6612 28.9345 28.6612Z" fill="white"/>
</svg>
