<svg width="150" height="150" viewBox="0 0 150 150" fill="none" xmlns="http://www.w3.org/2000/svg">
<g filter="url(#filter0_bii_366_27)">
<path d="M75 0L139.952 37.5V112.5L75 150L10.0481 112.5V37.5L75 0Z" fill="#D9D9D9" fill-opacity="0.1"/>
<path d="M11.0481 38.0774L75 1.1547L138.952 38.0774V111.923L75 148.845L11.0481 111.923V38.0774Z" stroke="white" stroke-width="2"/>
</g>
<path d="M50.8931 47.5H102V86.0714H50.8931V47.5Z" fill="black"/>
<path d="M48 34V88H102V34H48ZM77.3866 76.1152C77.3866 81.3705 74.3009 83.7692 69.8049 83.7692C65.7429 83.7692 63.3924 81.6719 62.1871 79.1286L66.3214 76.6335C67.117 78.0438 67.8402 79.2371 69.5879 79.2371C71.2513 79.2371 72.3121 78.5862 72.3121 76.0429V58.7942H77.3866V76.1152ZM89.392 83.7692C84.679 83.7692 81.6295 81.5272 80.1469 78.5862L84.2812 76.1996C85.3661 77.9714 86.7884 79.2853 89.2835 79.2853C91.3808 79.2853 92.7308 78.2366 92.7308 76.7781C92.7308 75.0424 91.3567 74.4277 89.0304 73.4031L87.7647 72.8607C84.1004 71.3058 81.6777 69.3411 81.6777 65.2067C81.6777 61.3978 84.5826 58.5049 89.1027 58.5049C92.333 58.5049 94.6473 59.6259 96.3107 62.567L92.3571 65.0982C91.4893 63.5433 90.5491 62.9286 89.0906 62.9286C87.608 62.9286 86.6679 63.8687 86.6679 65.0982C86.6679 66.617 87.608 67.2317 89.7897 68.1839L91.0554 68.7263C95.3705 70.5705 97.7933 72.4629 97.7933 76.7058C97.7933 81.2621 94.2013 83.7692 89.392 83.7692Z" fill="white"/>
<path d="M26.61 111.108C26.238 111.108 25.854 111.072 25.458 111C25.062 110.916 24.732 110.826 24.468 110.73V108.966C24.72 109.002 24.996 109.038 25.296 109.074C25.596 109.098 25.872 109.11 26.124 109.11C26.46 109.11 26.742 109.062 26.97 108.966C27.198 108.858 27.372 108.696 27.492 108.48C27.624 108.252 27.69 107.94 27.69 107.544V97.716H29.922V107.868C29.922 108.612 29.802 109.224 29.562 109.704C29.334 110.184 28.974 110.538 28.482 110.766C28.002 110.994 27.378 111.108 26.61 111.108ZM31.5683 111L35.8883 97.716H38.6963L43.0163 111H40.6943L39.6683 107.85H34.8623L33.8543 111H31.5683ZM35.3843 105.852H39.1283L37.2563 99.624L35.3843 105.852ZM47.5074 111L43.1874 97.716H45.4914L48.9114 108.606L52.3314 97.716H54.6354L50.3154 111H47.5074ZM54.8066 111L59.1266 97.716H61.9346L66.2546 111H63.9326L62.9066 107.85H58.1006L57.0926 111H54.8066ZM58.6226 105.852H62.3666L60.4946 99.624L58.6226 105.852ZM71.8105 111.108C71.4865 111.108 71.1385 111.096 70.7665 111.072C70.4065 111.06 70.0345 111.036 69.6505 111C69.2785 110.952 68.9245 110.91 68.5885 110.874C68.2525 110.826 67.9525 110.772 67.6885 110.712V108.966C68.0245 108.99 68.4145 109.014 68.8585 109.038C69.3145 109.062 69.7885 109.08 70.2805 109.092C70.7725 109.104 71.2465 109.11 71.7025 109.11C72.1825 109.11 72.6085 109.068 72.9805 108.984C73.3525 108.888 73.6405 108.726 73.8445 108.498C74.0485 108.27 74.1505 107.946 74.1505 107.526V106.896C74.1505 106.428 74.0185 106.068 73.7545 105.816C73.4905 105.564 73.1005 105.438 72.5845 105.438H71.3425C70.1305 105.438 69.1945 105.174 68.5345 104.646C67.8865 104.118 67.5625 103.212 67.5625 101.928V101.244C67.5625 99.96 67.9165 99.036 68.6245 98.472C69.3445 97.896 70.3705 97.608 71.7025 97.608C72.1585 97.608 72.6265 97.632 73.1065 97.68C73.5985 97.716 74.0665 97.764 74.5105 97.824C74.9545 97.884 75.3325 97.95 75.6445 98.022V99.768C75.1165 99.732 74.5105 99.696 73.8265 99.66C73.1545 99.624 72.5305 99.606 71.9545 99.606C71.4985 99.606 71.0965 99.654 70.7485 99.75C70.4005 99.846 70.1365 100.02 69.9565 100.272C69.7765 100.512 69.6865 100.872 69.6865 101.352V101.784C69.6865 102.348 69.8365 102.744 70.1365 102.972C70.4485 103.2 70.8925 103.314 71.4685 103.314H72.8545C73.6345 103.314 74.2765 103.458 74.7805 103.746C75.2845 104.034 75.6565 104.43 75.8965 104.934C76.1485 105.426 76.2745 105.99 76.2745 106.626V107.472C76.2745 108.456 76.0825 109.212 75.6985 109.74C75.3145 110.268 74.7865 110.628 74.1145 110.82C73.4425 111.012 72.6745 111.108 71.8105 111.108ZM82.8438 111.108C82.0638 111.108 81.3738 111.018 80.7738 110.838C80.1858 110.658 79.6878 110.328 79.2798 109.848C78.8838 109.368 78.5838 108.684 78.3798 107.796C78.1758 106.908 78.0738 105.744 78.0738 104.304C78.0738 102.948 78.1758 101.832 78.3798 100.956C78.5958 100.08 78.9078 99.396 79.3158 98.904C79.7358 98.412 80.2458 98.07 80.8458 97.878C81.4458 97.686 82.1298 97.59 82.8978 97.59C83.4258 97.59 83.9358 97.62 84.4278 97.68C84.9318 97.74 85.3938 97.812 85.8138 97.896C86.2458 97.98 86.6178 98.07 86.9298 98.166V99.876C86.7258 99.828 86.4378 99.786 86.0658 99.75C85.6938 99.702 85.2738 99.666 84.8058 99.642C84.3378 99.606 83.8518 99.588 83.3478 99.588C82.7958 99.588 82.3218 99.654 81.9258 99.786C81.5418 99.906 81.2298 100.134 80.9898 100.47C80.7498 100.806 80.5758 101.286 80.4678 101.91C80.3598 102.534 80.3058 103.344 80.3058 104.34C80.3058 105.324 80.3538 106.128 80.4498 106.752C80.5578 107.376 80.7198 107.862 80.9358 108.21C81.1638 108.546 81.4698 108.78 81.8538 108.912C82.2498 109.044 82.7418 109.11 83.3298 109.11C84.2298 109.11 84.9678 109.092 85.5438 109.056C86.1198 109.008 86.5818 108.96 86.9298 108.912V110.622C86.5938 110.718 86.2098 110.802 85.7778 110.874C85.3578 110.946 84.9018 111 84.4098 111.036C83.9298 111.084 83.4078 111.108 82.8438 111.108ZM88.9275 111V97.716H94.3275C94.8195 97.716 95.2815 97.776 95.7135 97.896C96.1575 98.004 96.5475 98.208 96.8835 98.508C97.2315 98.808 97.5015 99.228 97.6935 99.768C97.8975 100.296 97.9995 100.986 97.9995 101.838C97.9995 102.498 97.9335 103.05 97.8015 103.494C97.6695 103.926 97.4955 104.28 97.2795 104.556C97.0635 104.832 96.8175 105.048 96.5415 105.204C96.2775 105.348 96.0135 105.468 95.7495 105.564L98.3055 111H96.0555L93.7515 105.888C93.5835 105.888 93.3855 105.888 93.1575 105.888C92.9415 105.888 92.7135 105.888 92.4735 105.888C92.2335 105.876 91.9995 105.87 91.7715 105.87C91.5435 105.858 91.3335 105.852 91.1415 105.852V111H88.9275ZM91.1415 104.106H93.9495C94.2135 104.106 94.4535 104.076 94.6695 104.016C94.8855 103.944 95.0775 103.824 95.2455 103.656C95.4135 103.488 95.5395 103.26 95.6235 102.972C95.7195 102.684 95.7675 102.312 95.7675 101.856C95.7675 101.412 95.7195 101.052 95.6235 100.776C95.5395 100.488 95.4135 100.272 95.2455 100.128C95.0775 99.972 94.8795 99.864 94.6515 99.804C94.4355 99.744 94.2015 99.714 93.9495 99.714H91.1415V104.106ZM100.09 111V97.716H102.304V111H100.09ZM104.783 111V97.716H110.273C110.693 97.716 111.119 97.77 111.551 97.878C111.983 97.974 112.379 98.172 112.739 98.472C113.111 98.772 113.405 99.216 113.621 99.804C113.849 100.392 113.963 101.178 113.963 102.162C113.963 103.146 113.849 103.938 113.621 104.538C113.393 105.138 113.093 105.6 112.721 105.924C112.361 106.236 111.965 106.452 111.533 106.572C111.113 106.68 110.705 106.734 110.309 106.734C110.105 106.734 109.847 106.728 109.535 106.716C109.235 106.692 108.917 106.668 108.581 106.644C108.257 106.608 107.951 106.578 107.663 106.554C107.387 106.518 107.165 106.488 106.997 106.464V111H104.783ZM106.997 104.718H109.985C110.333 104.718 110.639 104.64 110.903 104.484C111.167 104.316 111.371 104.052 111.515 103.692C111.659 103.32 111.731 102.816 111.731 102.18C111.731 101.556 111.653 101.064 111.497 100.704C111.353 100.344 111.155 100.092 110.903 99.948C110.663 99.792 110.381 99.714 110.057 99.714H106.997V104.718ZM118.719 111V99.714H114.903V97.716H124.749V99.714H120.951V111H118.719Z" fill="white"/>
<defs>
<filter id="filter0_bii_366_27" x="-37.8821" y="-47.93" width="225.764" height="245.86" filterUnits="userSpaceOnUse" color-interpolation-filters="sRGB">
<feFlood flood-opacity="0" result="BackgroundImageFix"/>
<feGaussianBlur in="BackgroundImageFix" stdDeviation="23.965"/>
<feComposite in2="SourceAlpha" operator="in" result="effect1_backgroundBlur_366_27"/>
<feBlend mode="normal" in="SourceGraphic" in2="effect1_backgroundBlur_366_27" result="shape"/>
<feColorMatrix in="SourceAlpha" type="matrix" values="0 0 0 0 0 0 0 0 0 0 0 0 0 0 0 0 0 0 127 0" result="hardAlpha"/>
<feOffset dx="-23.97" dy="23.97"/>
<feGaussianBlur stdDeviation="11.985"/>
<feComposite in2="hardAlpha" operator="arithmetic" k2="-1" k3="1"/>
<feColorMatrix type="matrix" values="0 0 0 0 0 0 0 0 0 0 0 0 0 0 0 0 0 0 0.25 0"/>
<feBlend mode="normal" in2="shape" result="effect2_innerShadow_366_27"/>
<feColorMatrix in="SourceAlpha" type="matrix" values="0 0 0 0 0 0 0 0 0 0 0 0 0 0 0 0 0 0 127 0" result="hardAlpha"/>
<feOffset dx="23.97" dy="-23.97"/>
<feGaussianBlur stdDeviation="11.985"/>
<feComposite in2="hardAlpha" operator="arithmetic" k2="-1" k3="1"/>
<feColorMatrix type="matrix" values="0 0 0 0 0 0 0 0 0 0 0 0 0 0 0 0 0 0 0.25 0"/>
<feBlend mode="normal" in2="effect2_innerShadow_366_27" result="effect3_innerShadow_366_27"/>
</filter>
</defs>
</svg>
