<svg width="150" height="150" viewBox="0 0 150 150" fill="none" xmlns="http://www.w3.org/2000/svg">
<g filter="url(#filter0_bii_391_8)">
<path d="M75 0L139.952 37.5V112.5L75 150L10.0481 112.5V37.5L75 0Z" fill="#D9D9D9" fill-opacity="0.1"/>
<path d="M11.0481 38.0774L75 1.1547L138.952 38.0774V111.923L75 148.845L11.0481 111.923V38.0774Z" stroke="white" stroke-width="2"/>
</g>
<path d="M41.212 112C40.588 112 40.048 111.904 39.592 111.712C39.148 111.52 38.812 111.208 38.584 110.776C38.356 110.332 38.242 109.75 38.242 109.03V98.716H40.456V108.67C40.456 109.006 40.516 109.276 40.636 109.48C40.756 109.672 40.912 109.804 41.104 109.876C41.308 109.948 41.53 109.984 41.77 109.984H46.18V112H41.212ZM47.0292 112L51.3492 98.716H54.1572L58.4772 112H56.1552L55.1292 108.85H50.3232L49.3152 112H47.0292ZM50.8452 106.852H54.5892L52.7172 100.624L50.8452 106.852ZM60.1092 112V98.716H65.5092C66.0012 98.716 66.4632 98.776 66.8952 98.896C67.3392 99.004 67.7292 99.208 68.0652 99.508C68.4132 99.808 68.6832 100.228 68.8752 100.768C69.0792 101.296 69.1812 101.986 69.1812 102.838C69.1812 103.498 69.1152 104.05 68.9832 104.494C68.8512 104.926 68.6772 105.28 68.4612 105.556C68.2452 105.832 67.9992 106.048 67.7232 106.204C67.4592 106.348 67.1952 106.468 66.9312 106.564L69.4872 112H67.2372L64.9332 106.888C64.7652 106.888 64.5672 106.888 64.3392 106.888C64.1232 106.888 63.8952 106.888 63.6552 106.888C63.4152 106.876 63.1812 106.87 62.9532 106.87C62.7252 106.858 62.5152 106.852 62.3232 106.852V112H60.1092ZM62.3232 105.106H65.1312C65.3952 105.106 65.6352 105.076 65.8512 105.016C66.0672 104.944 66.2592 104.824 66.4272 104.656C66.5952 104.488 66.7212 104.26 66.8052 103.972C66.9012 103.684 66.9492 103.312 66.9492 102.856C66.9492 102.412 66.9012 102.052 66.8052 101.776C66.7212 101.488 66.5952 101.272 66.4272 101.128C66.2592 100.972 66.0612 100.864 65.8332 100.804C65.6172 100.744 65.3832 100.714 65.1312 100.714H62.3232V105.106ZM70.4433 112L74.7633 98.716H77.5713L81.8913 112H79.5693L78.5433 108.85H73.7373L72.7293 112H70.4433ZM74.2593 106.852H78.0033L76.1313 100.624L74.2593 106.852ZM86.3824 112L82.0624 98.716H84.3664L87.7864 109.606L91.2064 98.716H93.5104L89.1904 112H86.3824ZM97.7634 112.09C97.4754 112.09 97.1514 112.06 96.7914 112C96.4434 111.952 96.1074 111.838 95.7834 111.658C95.4594 111.466 95.1954 111.184 94.9914 110.812C94.7874 110.44 94.6854 109.93 94.6854 109.282V101.614C94.6854 101.05 94.7694 100.582 94.9374 100.21C95.1054 99.826 95.3274 99.526 95.6034 99.31C95.8914 99.094 96.2034 98.944 96.5394 98.86C96.8874 98.764 97.2294 98.716 97.5654 98.716C98.4054 98.716 99.1614 98.728 99.8334 98.752C100.505 98.776 101.117 98.8 101.669 98.824C102.233 98.848 102.755 98.878 103.235 98.914V100.768H98.2134C97.8054 100.768 97.4814 100.87 97.2414 101.074C97.0134 101.278 96.8994 101.596 96.8994 102.028V104.386L102.425 104.512V106.258L96.8994 106.384V108.67C96.8994 109.03 96.9594 109.306 97.0794 109.498C97.2114 109.69 97.3734 109.822 97.5654 109.894C97.7694 109.966 97.9794 110.002 98.1954 110.002H103.235V111.856C102.707 111.904 102.131 111.946 101.507 111.982C100.883 112.006 100.247 112.024 99.5994 112.036C98.9634 112.06 98.3514 112.078 97.7634 112.09ZM108.343 112C107.719 112 107.179 111.904 106.723 111.712C106.279 111.52 105.943 111.208 105.715 110.776C105.487 110.332 105.373 109.75 105.373 109.03V98.716H107.587V108.67C107.587 109.006 107.647 109.276 107.767 109.48C107.887 109.672 108.043 109.804 108.235 109.876C108.439 109.948 108.661 109.984 108.901 109.984H113.311V112H108.343Z" fill="white"/>
<path d="M102.969 45.8088C102.989 45.8843 103 45.962 103 46.0402V58.1935C103 58.511 102.83 58.8043 102.555 58.9622L92.3545 64.8354V76.4756C92.3544 76.6314 92.3135 76.7844 92.2357 76.9193C92.158 77.0542 92.0462 77.1664 91.9115 77.2446L70.6187 89.502C70.57 89.5295 70.5169 89.5472 70.4636 89.5663C70.4437 89.5727 70.425 89.585 70.4039 89.5906C70.2551 89.6298 70.0986 89.6298 69.9497 89.5906C69.9252 89.5841 69.9031 89.5706 69.8799 89.5618C69.8311 89.5439 69.7802 89.5285 69.7338 89.502L48.4454 77.2444C48.3101 77.1667 48.1977 77.0547 48.1195 76.9197C48.0414 76.7848 48.0001 76.6316 48 76.4756V40.0158C48 39.9359 48.0112 39.8583 48.0309 39.7831C48.0376 39.7576 48.0531 39.7343 48.0621 39.7088C48.0786 39.6624 48.0943 39.6147 48.1186 39.5715C48.1351 39.5427 48.1594 39.5195 48.1794 39.4929C48.205 39.4574 48.2282 39.4209 48.258 39.3897C48.2836 39.3644 48.3169 39.3455 48.3457 39.3234C48.3779 39.2967 48.4065 39.2679 48.443 39.2469H48.4441L59.0887 33.1182C59.2236 33.0408 59.3763 33 59.5318 33C59.6873 33 59.8401 33.0408 59.975 33.1182L70.6196 39.2469H70.6218C70.6572 39.2692 70.6873 39.2967 70.7193 39.3223C70.7481 39.3444 70.7803 39.3644 70.8057 39.3889C70.8368 39.4209 70.8589 39.4576 70.8854 39.4929C70.9043 39.5195 70.9298 39.5427 70.9453 39.5715C70.9707 39.6158 70.9851 39.6624 71.0029 39.709C71.0117 39.7343 71.0272 39.7576 71.0338 39.7842C71.0542 39.8596 71.0648 39.9376 71.065 40.0158V62.7879L79.935 57.6805V46.0392C79.935 45.9618 79.9462 45.883 79.9662 45.8088C79.9739 45.7822 79.9883 45.759 79.9971 45.7336C80.0149 45.687 80.0304 45.6391 80.0547 45.5961C80.0712 45.5674 80.0955 45.5442 80.1146 45.5175C80.1411 45.4821 80.1632 45.4455 80.1941 45.4144C80.2199 45.389 80.2519 45.3701 80.2807 45.348C80.314 45.3214 80.3428 45.2926 80.3782 45.2715H80.3793L91.025 39.1429C91.1598 39.0652 91.3126 39.0243 91.4682 39.0243C91.6237 39.0243 91.7765 39.0652 91.9113 39.1429L102.556 45.2715C102.594 45.2936 102.622 45.3214 102.656 45.3467C102.683 45.3691 102.715 45.389 102.741 45.4133C102.772 45.4455 102.794 45.4821 102.82 45.5175C102.841 45.5442 102.865 45.5674 102.881 45.5961C102.906 45.6391 102.92 45.687 102.938 45.7336C102.948 45.759 102.962 45.7822 102.969 45.8088ZM101.226 57.6807V47.5744L97.5004 49.7188L92.3543 52.6819V62.7882L101.227 57.6807H101.226ZM90.581 75.9628V65.8495L85.5188 68.7406L71.0639 76.9906V87.1987L90.581 75.9628ZM49.7744 41.5498V75.9628L69.2893 87.1978V76.9917L59.0945 71.2218L59.0913 71.2197L59.087 71.2176C59.0526 71.1976 59.0236 71.1688 58.9916 71.1445C58.9637 71.1222 58.9317 71.1045 58.9074 71.0801L58.9053 71.0768C58.8765 71.0491 58.8565 71.0147 58.8322 70.9838C58.8099 70.9537 58.7834 70.9284 58.7656 70.8974L58.7645 70.894C58.7446 70.8609 58.7323 70.8209 58.7179 70.7834C58.7035 70.7501 58.6848 70.7189 58.6758 70.6837V70.6826C58.6648 70.6405 58.6627 70.596 58.6582 70.5528C58.6539 70.5197 58.6449 70.4864 58.6449 70.4531V46.6575L53.4996 43.6931L49.7744 41.5511V41.5498ZM59.533 34.9105L50.6638 40.0158L59.5309 45.1209L68.3988 40.0145L59.5309 34.9105H59.533ZM64.1453 66.7714L69.2904 63.8095V41.5498L65.5656 43.6943L60.419 46.6573V68.9168L64.1453 66.7714ZM91.468 40.9351L82.6002 46.0402L91.468 51.1456L100.335 46.0392L91.468 40.9351ZM90.5807 52.6819L85.4346 49.7188L81.7096 47.5744V57.6807L86.8547 60.6427L90.581 62.7882L90.5807 52.6819ZM70.1755 75.4566L83.1828 68.0308L89.6848 64.32L80.8234 59.2181L70.6207 65.0919L61.3218 70.4454L70.1755 75.4566Z" fill="white"/>
<defs>
<filter id="filter0_bii_391_8" x="-37.8821" y="-47.93" width="225.764" height="245.86" filterUnits="userSpaceOnUse" color-interpolation-filters="sRGB">
<feFlood flood-opacity="0" result="BackgroundImageFix"/>
<feGaussianBlur in="BackgroundImageFix" stdDeviation="23.965"/>
<feComposite in2="SourceAlpha" operator="in" result="effect1_backgroundBlur_391_8"/>
<feBlend mode="normal" in="SourceGraphic" in2="effect1_backgroundBlur_391_8" result="shape"/>
<feColorMatrix in="SourceAlpha" type="matrix" values="0 0 0 0 0 0 0 0 0 0 0 0 0 0 0 0 0 0 127 0" result="hardAlpha"/>
<feOffset dx="-23.97" dy="23.97"/>
<feGaussianBlur stdDeviation="11.985"/>
<feComposite in2="hardAlpha" operator="arithmetic" k2="-1" k3="1"/>
<feColorMatrix type="matrix" values="0 0 0 0 0 0 0 0 0 0 0 0 0 0 0 0 0 0 0.25 0"/>
<feBlend mode="normal" in2="shape" result="effect2_innerShadow_391_8"/>
<feColorMatrix in="SourceAlpha" type="matrix" values="0 0 0 0 0 0 0 0 0 0 0 0 0 0 0 0 0 0 127 0" result="hardAlpha"/>
<feOffset dx="23.97" dy="-23.97"/>
<feGaussianBlur stdDeviation="11.985"/>
<feComposite in2="hardAlpha" operator="arithmetic" k2="-1" k3="1"/>
<feColorMatrix type="matrix" values="0 0 0 0 0 0 0 0 0 0 0 0 0 0 0 0 0 0 0.25 0"/>
<feBlend mode="normal" in2="effect2_innerShadow_391_8" result="effect3_innerShadow_391_8"/>
</filter>
</defs>
</svg>
