<svg width="24" height="34" viewBox="0 0 24 34" fill="none" xmlns="http://www.w3.org/2000/svg">
<path d="M12 16.15C10.8634 16.15 9.77327 15.7022 8.96954 14.9052C8.16582 14.1082 7.71429 13.0272 7.71429 11.9C7.71429 10.7728 8.16582 9.69183 8.96954 8.8948C9.77327 8.09777 10.8634 7.65 12 7.65C13.1366 7.65 14.2267 8.09777 15.0305 8.8948C15.8342 9.69183 16.2857 10.7728 16.2857 11.9C16.2857 12.4581 16.1749 13.0108 15.9595 13.5264C15.7441 14.042 15.4284 14.5106 15.0305 14.9052C14.6325 15.2999 14.16 15.6129 13.6401 15.8265C13.1201 16.0401 12.5628 16.15 12 16.15ZM12 0C8.8174 0 5.76515 1.25375 3.51472 3.48543C1.26428 5.71711 0 8.74392 0 11.9C0 20.825 12 34 12 34C12 34 24 20.825 24 11.9C24 8.74392 22.7357 5.71711 20.4853 3.48543C18.2348 1.25375 15.1826 0 12 0Z" fill="white"/>
</svg>
