<svg width="150" height="150" viewBox="0 0 150 150" fill="none" xmlns="http://www.w3.org/2000/svg">
<g filter="url(#filter0_bii_391_14)">
<path d="M75 0L139.952 37.5V112.5L75 150L10.0481 112.5V37.5L75 0Z" fill="#D9D9D9" fill-opacity="0.1"/>
<path d="M11.0481 38.0774L75 1.1547L138.952 38.0774V111.923L75 148.845L11.0481 111.923V38.0774Z" stroke="white" stroke-width="2"/>
</g>
<path d="M30.882 104L32.412 90.716H34.572L37.794 101.354L40.998 90.716H43.158L44.724 104H42.564L41.34 93.56L41.7 93.596L38.82 104H36.732L33.816 93.596L34.194 93.578L33.024 104H30.882ZM50.582 104.09C49.826 104.09 49.172 104.012 48.62 103.856C48.068 103.7 47.618 103.436 47.27 103.064C46.922 102.692 46.664 102.188 46.496 101.552C46.328 100.916 46.244 100.118 46.244 99.158C46.244 98.162 46.328 97.346 46.496 96.71C46.664 96.062 46.922 95.558 47.27 95.198C47.63 94.826 48.086 94.574 48.638 94.442C49.19 94.298 49.838 94.226 50.582 94.226C51.35 94.226 52.01 94.304 52.562 94.46C53.114 94.604 53.564 94.856 53.912 95.216C54.26 95.576 54.518 96.08 54.686 96.728C54.854 97.364 54.938 98.174 54.938 99.158C54.938 100.13 54.854 100.94 54.686 101.588C54.53 102.224 54.278 102.728 53.93 103.1C53.582 103.46 53.132 103.718 52.58 103.874C52.028 104.018 51.362 104.09 50.582 104.09ZM50.582 102.308C50.954 102.308 51.272 102.278 51.536 102.218C51.8 102.146 52.016 102.008 52.184 101.804C52.364 101.588 52.496 101.27 52.58 100.85C52.664 100.418 52.706 99.848 52.706 99.14C52.706 98.444 52.664 97.886 52.58 97.466C52.496 97.046 52.364 96.734 52.184 96.53C52.016 96.314 51.8 96.176 51.536 96.116C51.272 96.044 50.954 96.008 50.582 96.008C50.222 96.008 49.91 96.044 49.646 96.116C49.382 96.176 49.166 96.314 48.998 96.53C48.83 96.734 48.698 97.046 48.602 97.466C48.518 97.886 48.476 98.444 48.476 99.14C48.476 99.848 48.518 100.418 48.602 100.85C48.698 101.27 48.83 101.588 48.998 101.804C49.166 102.008 49.382 102.146 49.646 102.218C49.91 102.278 50.222 102.308 50.582 102.308ZM56.9211 104V94.352H58.7391L59.1531 95.36C59.5491 95.06 60.0291 94.79 60.5931 94.55C61.1691 94.31 61.7631 94.19 62.3751 94.19C63.1311 94.19 63.7251 94.346 64.1571 94.658C64.5891 94.958 64.8951 95.366 65.0751 95.882C65.2671 96.398 65.3631 96.962 65.3631 97.574V104H63.1311V97.844C63.1311 97.496 63.0651 97.202 62.9331 96.962C62.8011 96.722 62.6151 96.536 62.3751 96.404C62.1471 96.272 61.8651 96.206 61.5291 96.206C61.2171 96.206 60.9231 96.236 60.6471 96.296C60.3831 96.356 60.1311 96.446 59.8911 96.566C59.6511 96.686 59.4051 96.83 59.1531 96.998V104H56.9211ZM71.623 104.09C70.867 104.09 70.213 104.012 69.661 103.856C69.109 103.7 68.659 103.436 68.311 103.064C67.963 102.692 67.705 102.188 67.537 101.552C67.369 100.916 67.285 100.118 67.285 99.158C67.285 98.162 67.369 97.346 67.537 96.71C67.705 96.062 67.963 95.558 68.311 95.198C68.671 94.826 69.127 94.574 69.679 94.442C70.231 94.298 70.879 94.226 71.623 94.226C72.391 94.226 73.051 94.304 73.603 94.46C74.155 94.604 74.605 94.856 74.953 95.216C75.301 95.576 75.559 96.08 75.727 96.728C75.895 97.364 75.979 98.174 75.979 99.158C75.979 100.13 75.895 100.94 75.727 101.588C75.571 102.224 75.319 102.728 74.971 103.1C74.623 103.46 74.173 103.718 73.621 103.874C73.069 104.018 72.403 104.09 71.623 104.09ZM71.623 102.308C71.995 102.308 72.313 102.278 72.577 102.218C72.841 102.146 73.057 102.008 73.225 101.804C73.405 101.588 73.537 101.27 73.621 100.85C73.705 100.418 73.747 99.848 73.747 99.14C73.747 98.444 73.705 97.886 73.621 97.466C73.537 97.046 73.405 96.734 73.225 96.53C73.057 96.314 72.841 96.176 72.577 96.116C72.313 96.044 71.995 96.008 71.623 96.008C71.263 96.008 70.951 96.044 70.687 96.116C70.423 96.176 70.207 96.314 70.039 96.53C69.871 96.734 69.739 97.046 69.643 97.466C69.559 97.886 69.517 98.444 69.517 99.14C69.517 99.848 69.559 100.418 69.643 100.85C69.739 101.27 69.871 101.588 70.039 101.804C70.207 102.008 70.423 102.146 70.687 102.218C70.951 102.278 71.263 102.308 71.623 102.308ZM80.4281 108.446C79.8161 108.446 79.2701 108.356 78.7901 108.176C78.3101 108.008 77.9321 107.744 77.6561 107.384C77.3921 107.036 77.2601 106.61 77.2601 106.106V105.764C77.2601 105.236 77.4101 104.786 77.7101 104.414C78.0101 104.054 78.3941 103.778 78.8621 103.586C79.3301 103.394 79.8161 103.298 80.3201 103.298L80.9681 104.036C80.6681 104.036 80.3981 104.084 80.1581 104.18C79.9181 104.276 79.7261 104.42 79.5821 104.612C79.4381 104.804 79.3661 105.044 79.3661 105.332V105.62C79.3661 106.052 79.5101 106.364 79.7981 106.556C80.0861 106.76 80.4941 106.862 81.0221 106.862H82.9841C83.5361 106.862 83.9681 106.754 84.2801 106.538C84.6041 106.334 84.7661 106.016 84.7661 105.584V105.278C84.7661 105.014 84.7121 104.792 84.6041 104.612C84.4961 104.432 84.3221 104.288 84.0821 104.18C83.8421 104.084 83.5181 104.036 83.1101 104.036H80.6981C79.7381 104.036 79.0121 103.85 78.5201 103.478C78.0401 103.106 77.8001 102.638 77.8001 102.074C77.8001 101.594 77.9381 101.198 78.2141 100.886C78.5021 100.574 78.8981 100.364 79.4021 100.256C78.9941 100.064 78.6701 99.818 78.4301 99.518C78.2021 99.218 78.0401 98.894 77.9441 98.546C77.8481 98.198 77.8001 97.844 77.8001 97.484C77.8001 96.752 77.9501 96.158 78.2501 95.702C78.5501 95.234 78.9881 94.892 79.5641 94.676C80.1401 94.448 80.8541 94.334 81.7061 94.334H86.9081V95.576L85.1981 95.81C85.3181 95.93 85.4441 96.074 85.5761 96.242C85.7201 96.41 85.8401 96.632 85.9361 96.908C86.0321 97.184 86.0801 97.544 86.0801 97.988C86.0801 98.528 85.9661 99.02 85.7381 99.464C85.5221 99.908 85.1621 100.262 84.6581 100.526C84.1541 100.79 83.4761 100.922 82.6241 100.922H80.9861C80.6021 100.922 80.2901 100.982 80.0501 101.102C79.8101 101.222 79.6901 101.426 79.6901 101.714C79.6901 101.954 79.7861 102.122 79.9781 102.218C80.1701 102.314 80.3741 102.362 80.5901 102.362H83.4521C84.1841 102.362 84.8021 102.458 85.3061 102.65C85.8221 102.842 86.2121 103.142 86.4761 103.55C86.7401 103.958 86.8721 104.498 86.8721 105.17V105.476C86.8721 106.4 86.5721 107.126 85.9721 107.654C85.3841 108.182 84.4781 108.446 83.2541 108.446H80.4281ZM81.3461 99.248H82.3901C82.8341 99.248 83.1761 99.182 83.4161 99.05C83.6681 98.906 83.8361 98.72 83.9201 98.492C84.0161 98.252 84.0641 97.988 84.0641 97.7C84.0641 97.292 83.9981 96.968 83.8661 96.728C83.7461 96.476 83.5661 96.296 83.3261 96.188C83.0981 96.08 82.8161 96.026 82.4801 96.026H81.4721C80.9321 96.026 80.5181 96.146 80.2301 96.386C79.9541 96.626 79.8161 97.034 79.8161 97.61C79.8161 98.186 79.9481 98.606 80.2121 98.87C80.4761 99.122 80.8541 99.248 81.3461 99.248ZM92.4355 104.09C91.6795 104.09 91.0255 104.012 90.4735 103.856C89.9215 103.7 89.4715 103.436 89.1235 103.064C88.7755 102.692 88.5175 102.188 88.3495 101.552C88.1815 100.916 88.0975 100.118 88.0975 99.158C88.0975 98.162 88.1815 97.346 88.3495 96.71C88.5175 96.062 88.7755 95.558 89.1235 95.198C89.4835 94.826 89.9395 94.574 90.4915 94.442C91.0435 94.298 91.6915 94.226 92.4355 94.226C93.2035 94.226 93.8635 94.304 94.4155 94.46C94.9675 94.604 95.4175 94.856 95.7655 95.216C96.1135 95.576 96.3715 96.08 96.5395 96.728C96.7075 97.364 96.7915 98.174 96.7915 99.158C96.7915 100.13 96.7075 100.94 96.5395 101.588C96.3835 102.224 96.1315 102.728 95.7835 103.1C95.4355 103.46 94.9855 103.718 94.4335 103.874C93.8815 104.018 93.2155 104.09 92.4355 104.09ZM92.4355 102.308C92.8075 102.308 93.1255 102.278 93.3895 102.218C93.6535 102.146 93.8695 102.008 94.0375 101.804C94.2175 101.588 94.3495 101.27 94.4335 100.85C94.5175 100.418 94.5595 99.848 94.5595 99.14C94.5595 98.444 94.5175 97.886 94.4335 97.466C94.3495 97.046 94.2175 96.734 94.0375 96.53C93.8695 96.314 93.6535 96.176 93.3895 96.116C93.1255 96.044 92.8075 96.008 92.4355 96.008C92.0755 96.008 91.7635 96.044 91.4995 96.116C91.2355 96.176 91.0195 96.314 90.8515 96.53C90.6835 96.734 90.5515 97.046 90.4555 97.466C90.3715 97.886 90.3295 98.444 90.3295 99.14C90.3295 99.848 90.3715 100.418 90.4555 100.85C90.5515 101.27 90.6835 101.588 90.8515 101.804C91.0195 102.008 91.2355 102.146 91.4995 102.218C91.7635 102.278 92.0755 102.308 92.4355 102.308ZM98.8826 104V90.716H104.373C105.237 90.716 105.957 90.872 106.533 91.184C107.121 91.484 107.589 91.928 107.937 92.516C108.285 93.092 108.531 93.788 108.675 94.604C108.831 95.42 108.909 96.338 108.909 97.358C108.909 98.822 108.741 100.046 108.405 101.03C108.069 102.002 107.565 102.74 106.893 103.244C106.221 103.748 105.381 104 104.373 104H98.8826ZM101.097 102.002H104.157C104.769 102.002 105.255 101.822 105.615 101.462C105.987 101.102 106.257 100.574 106.425 99.878C106.605 99.182 106.695 98.342 106.695 97.358C106.695 96.446 106.641 95.69 106.533 95.09C106.425 94.49 106.269 94.016 106.065 93.668C105.861 93.32 105.597 93.074 105.273 92.93C104.961 92.786 104.589 92.714 104.157 92.714H101.097V102.002ZM111.047 104V90.716H116.123C117.371 90.716 118.295 91.01 118.895 91.598C119.495 92.186 119.795 93.044 119.795 94.172C119.795 94.7 119.711 95.168 119.543 95.576C119.387 95.972 119.171 96.302 118.895 96.566C118.619 96.818 118.295 96.992 117.923 97.088C118.199 97.16 118.469 97.274 118.733 97.43C119.009 97.574 119.261 97.778 119.489 98.042C119.717 98.306 119.897 98.63 120.029 99.014C120.161 99.386 120.227 99.824 120.227 100.328C120.227 101.24 120.071 101.966 119.759 102.506C119.459 103.034 119.015 103.418 118.427 103.658C117.851 103.886 117.155 104 116.339 104H111.047ZM113.261 102.002H116.267C116.639 102.002 116.963 101.936 117.239 101.804C117.515 101.672 117.725 101.462 117.869 101.174C118.025 100.874 118.103 100.466 118.103 99.95C118.103 99.542 118.025 99.2 117.869 98.924C117.713 98.648 117.497 98.438 117.221 98.294C116.945 98.138 116.627 98.06 116.267 98.06H113.261V102.002ZM113.261 96.332H116.159C116.603 96.332 116.963 96.17 117.239 95.846C117.515 95.51 117.659 95.072 117.671 94.532C117.683 93.848 117.533 93.374 117.221 93.11C116.921 92.846 116.549 92.714 116.105 92.714H113.261V96.332Z" fill="white"/>
<path fill-rule="evenodd" clip-rule="evenodd" d="M74.4741 78.1195C73.6355 77.3985 72.7675 76.7092 71.9636 75.951C67.6378 71.8708 64.4738 67.0686 62.9156 61.2789C62.4863 59.6855 62.2 58.0662 62.1082 56.4197C62.0437 55.2674 61.9504 54.1047 62.0317 52.9584C62.2486 49.9094 62.6893 46.8898 63.5835 43.953L63.6326 43.8845C63.7195 44.0001 63.8445 44.1024 63.8887 44.2329C64.7614 46.8034 65.6285 49.3758 66.49 51.95C69.1985 60.0388 71.9036 68.1296 74.6165 76.2164C74.6696 76.3743 74.8071 76.5038 74.9059 76.6462L74.4741 78.1195Z" fill="white"/>
<path fill-rule="evenodd" clip-rule="evenodd" d="M87.5299 44.751C88.3264 47.055 88.9 49.4073 89.0886 51.8453C89.3228 54.8699 89.2157 57.8732 88.578 60.8482C88.5606 60.9301 88.5239 61.007 88.4966 61.0864C88.2966 61.0869 88.0926 61.0621 87.8971 61.0924C86.2451 61.3519 84.5946 61.6209 82.9441 61.8883C81.238 62.1647 79.5294 62.4302 77.8263 62.7255C77.2229 62.8297 76.476 62.7052 76.2324 63.5398C76.2254 63.5627 76.1559 63.5666 76.1157 63.5795L76.1981 58.5918L76.1143 46.5568L76.9092 46.4203C78.2094 46.2075 79.5096 45.9916 80.8107 45.7847C82.3635 45.538 83.9177 45.2983 85.4715 45.0577C86.1568 44.951 86.8431 44.8532 87.5299 44.751Z" fill="white"/>
<path fill-rule="evenodd" clip-rule="evenodd" d="M87.5289 44.7504C86.8421 44.8527 86.1553 44.9504 85.4699 45.0561C83.9162 45.2968 82.362 45.5365 80.8092 45.7831C79.508 45.9901 78.2079 46.2059 76.9077 46.4188L76.1127 46.5553L76.1068 46.0367C76.0805 45.6104 76.0353 45.1847 76.0303 44.7584C75.9961 42.0399 75.9748 39.3215 75.941 36.6031C75.9202 34.9014 75.8889 33.2003 75.8542 31.4992C75.8328 30.4422 75.81 29.3847 75.7624 28.3292C75.7366 27.7619 75.6453 27.1977 75.608 26.6305C75.5872 26.3045 75.616 25.976 75.6224 25.6484C76.0279 26.434 76.4244 27.2255 76.8412 28.0051C77.4997 29.2378 78.5488 30.1459 79.4932 31.1369C83.2264 35.0533 85.8769 39.6068 87.5289 44.7504Z" fill="white"/>
<path fill-rule="evenodd" clip-rule="evenodd" d="M76.1151 63.5791C76.1553 63.5662 76.2253 63.5622 76.2317 63.5394C76.4754 62.7047 77.2222 62.8293 77.8257 62.7251C79.5288 62.4303 81.2374 62.1643 82.9435 61.8879C84.594 61.6204 86.2445 61.3515 87.8965 61.0919C88.092 61.0612 88.296 61.0865 88.496 61.086C88.1873 62.1876 87.9441 63.3131 87.5526 64.3845C87.108 65.5998 86.57 66.7859 85.9989 67.9486C85.1443 69.6831 84.086 71.3096 82.8462 72.7934C81.8939 73.9388 80.8324 74.9973 79.7685 76.0428C79.1804 76.621 78.4872 77.0919 77.8421 77.6115L77.6748 77.4973L77.0724 76.9822L76.4491 75.6161C76.0233 74.0224 75.7911 72.3832 75.7573 70.734L75.7687 70.4556L75.8536 69.2517C75.8819 68.8408 75.9196 68.4304 75.937 68.0185C76.001 66.5387 76.0566 65.0589 76.1151 63.5791Z" fill="white"/>
<path fill-rule="evenodd" clip-rule="evenodd" d="M76.1133 63.5791C76.0547 65.0589 75.9991 66.5387 75.9361 68.019C75.9187 68.4309 75.881 68.8413 75.8527 69.2521L75.4731 69.3956C74.63 66.9133 73.7864 64.4574 72.9611 61.995C71.5964 57.9214 70.2481 53.8412 68.8854 49.7665C67.7848 46.4777 66.6765 43.1913 65.5606 39.9076C65.5085 39.7538 65.3586 39.6337 65.2544 39.4977L67.684 35.0305C67.7674 35.1754 67.8776 35.3109 67.9302 35.4667C69.0554 38.7926 70.1749 42.1204 71.2887 45.4502C72.7358 49.7824 74.1739 54.1181 75.62 58.4509C75.6775 58.624 75.7728 58.7838 75.8636 58.9779L76.1961 58.5908L76.1133 63.5791Z" fill="white"/>
<path fill-rule="evenodd" clip-rule="evenodd" d="M65.256 39.4978C65.3603 39.6338 65.5096 39.7539 65.5622 39.9077C66.6782 43.1914 67.7865 46.4777 68.8871 49.7666C70.2498 53.8413 71.5981 57.9214 72.9627 61.9951C73.7875 64.457 74.6311 66.9134 75.4747 69.3956L75.8544 69.2522L75.7695 70.4561L75.6926 70.7335C75.5606 72.0515 75.4494 73.3726 75.2887 74.6876C75.2078 75.3466 75.0361 75.9937 74.9055 76.6463C74.8073 76.5039 74.6693 76.3743 74.6162 76.2165C71.9033 68.1292 69.1982 60.0389 66.4897 51.9501C65.628 49.3759 64.7609 46.8035 63.8884 44.233C63.8442 44.1025 63.7197 44.0002 63.6323 43.8846L65.256 39.4978Z" fill="white"/>
<path fill-rule="evenodd" clip-rule="evenodd" d="M76.1977 58.591L75.8652 58.9781C75.7744 58.784 75.6791 58.6238 75.6215 58.4511C74.176 54.1183 72.7373 49.7826 71.2903 45.4504C70.1765 42.1207 69.0569 38.7928 67.9317 35.4669C67.8796 35.3111 67.7694 35.1751 67.6855 35.0307L70.6903 31.0781C70.7851 31.2047 70.9201 31.3173 70.9692 31.4597C71.8029 33.9019 72.6305 36.3464 73.4519 38.7933C74.2196 41.078 74.9759 43.3662 75.7525 45.6479C75.8046 45.8008 75.9858 45.9089 76.1068 46.038L76.1128 46.5565C76.1416 50.5675 76.1699 54.579 76.1977 58.591Z" fill="white"/>
<path fill-rule="evenodd" clip-rule="evenodd" d="M76.107 46.0369C75.9859 45.9078 75.8047 45.7997 75.7526 45.6468C74.976 43.3651 74.2197 41.0769 73.452 38.7922C72.6306 36.3457 71.803 33.9012 70.9693 31.4586C70.9202 31.3162 70.7852 31.2036 70.6904 31.077C71.6675 30.1203 72.6144 29.1293 73.6307 28.2167C74.5344 27.4058 75.2609 26.5364 75.2941 25.2551C75.2956 25.202 75.3234 25.1489 75.3661 25L75.6236 25.6481C75.6172 25.9761 75.5879 26.3041 75.6092 26.6302C75.6464 27.1974 75.7378 27.7616 75.7636 28.3288C75.8112 29.3843 75.834 30.4418 75.8554 31.4988C75.8896 33.2 75.9209 34.9011 75.9422 36.6027C75.9755 39.3212 75.9973 42.0396 76.0315 44.758C76.0355 45.1853 76.0802 45.6106 76.107 46.0369Z" fill="white"/>
<path fill-rule="evenodd" clip-rule="evenodd" d="M74.9039 76.6462C75.0344 75.9937 75.2061 75.3461 75.287 74.6876C75.4483 73.373 75.5589 72.0515 75.6909 70.7335L75.7237 70.7285L75.7565 70.734C75.7902 72.3832 76.0225 74.0224 76.4482 75.616C76.3609 75.7312 76.2373 75.8339 76.1912 75.9639C75.8304 76.9812 75.4905 78.0065 75.1277 79.0238C75.0781 79.1627 74.9401 79.2709 74.8429 79.393L74.4722 78.1196L74.9039 76.6462Z" fill="#E0E0DF"/>
<path fill-rule="evenodd" clip-rule="evenodd" d="M74.8442 79.3931C74.9415 79.2711 75.08 79.1629 75.1291 79.0239C75.4918 78.0066 75.8323 76.9819 76.1925 75.9641C76.2387 75.8341 76.3618 75.7313 76.4496 75.6162L77.0724 76.9829C76.9493 77.1576 76.7796 77.3149 76.7111 77.5094L75.5181 81.0124C75.469 81.1528 75.3013 81.2521 75.1891 81.3707L74.8442 79.3931Z" fill="#DEDEDE"/>
<path fill-rule="evenodd" clip-rule="evenodd" d="M75.1895 81.3705C75.3021 81.2524 75.4693 81.1526 75.5185 81.0122L76.7114 77.5092C76.7794 77.3151 76.9496 77.1573 77.0727 76.9827L77.6756 77.4973C77.3843 77.7851 77.2226 78.1176 77.3198 78.5379L77.1367 79.1374C77.0534 79.2401 76.9328 79.3294 76.8916 79.447C76.4752 80.6395 76.0777 81.8384 75.6584 83.0309C75.6053 83.1823 75.4579 83.3009 75.3537 83.4339C75.2995 82.7461 75.2447 82.0583 75.1895 81.3705Z" fill="#E9E8E1"/>
<path fill-rule="evenodd" clip-rule="evenodd" d="M75.3534 83.4339C75.4571 83.3005 75.6045 83.1819 75.6581 83.031C76.0774 81.839 76.4749 80.6401 76.8913 79.4471C76.9324 79.33 77.0525 79.2402 77.1364 79.1375L76.8838 81.8891C76.8163 81.967 76.7186 82.035 76.6863 82.1258C76.401 82.9268 76.132 83.7337 75.8457 84.5346C75.7866 84.6999 75.6735 84.8458 75.5851 85.0001C75.5067 84.8974 75.3663 84.7981 75.3598 84.6909C75.3345 84.2736 75.3519 83.8533 75.3534 83.4339Z" fill="#E7E7E7"/>
<defs>
<filter id="filter0_bii_391_14" x="-37.8821" y="-47.93" width="225.764" height="245.86" filterUnits="userSpaceOnUse" color-interpolation-filters="sRGB">
<feFlood flood-opacity="0" result="BackgroundImageFix"/>
<feGaussianBlur in="BackgroundImageFix" stdDeviation="23.965"/>
<feComposite in2="SourceAlpha" operator="in" result="effect1_backgroundBlur_391_14"/>
<feBlend mode="normal" in="SourceGraphic" in2="effect1_backgroundBlur_391_14" result="shape"/>
<feColorMatrix in="SourceAlpha" type="matrix" values="0 0 0 0 0 0 0 0 0 0 0 0 0 0 0 0 0 0 127 0" result="hardAlpha"/>
<feOffset dx="-23.97" dy="23.97"/>
<feGaussianBlur stdDeviation="11.985"/>
<feComposite in2="hardAlpha" operator="arithmetic" k2="-1" k3="1"/>
<feColorMatrix type="matrix" values="0 0 0 0 0 0 0 0 0 0 0 0 0 0 0 0 0 0 0.25 0"/>
<feBlend mode="normal" in2="shape" result="effect2_innerShadow_391_14"/>
<feColorMatrix in="SourceAlpha" type="matrix" values="0 0 0 0 0 0 0 0 0 0 0 0 0 0 0 0 0 0 127 0" result="hardAlpha"/>
<feOffset dx="23.97" dy="-23.97"/>
<feGaussianBlur stdDeviation="11.985"/>
<feComposite in2="hardAlpha" operator="arithmetic" k2="-1" k3="1"/>
<feColorMatrix type="matrix" values="0 0 0 0 0 0 0 0 0 0 0 0 0 0 0 0 0 0 0.25 0"/>
<feBlend mode="normal" in2="effect2_innerShadow_391_14" result="effect3_innerShadow_391_14"/>
</filter>
</defs>
</svg>
