<svg width="150" height="150" viewBox="0 0 150 150" fill="none" xmlns="http://www.w3.org/2000/svg">
<g filter="url(#filter0_bii_391_11)">
<path d="M75 0L139.952 37.5V112.5L75 150L10.0481 112.5V37.5L75 0Z" fill="#D9D9D9" fill-opacity="0.1"/>
<path d="M11.0481 38.0774L75 1.1547L138.952 38.0774V111.923L75 148.845L11.0481 111.923V38.0774Z" stroke="white" stroke-width="2"/>
</g>
<path d="M89.5005 49.8579C89.135 49.8579 88.8871 49.9019 88.6297 49.9616V50.0024H88.6742C88.8458 50.3292 89.1382 50.5679 89.3543 50.8601C89.526 51.1963 89.6722 51.5325 89.8438 51.8655L89.8883 51.8184C90.1871 51.611 90.3333 51.278 90.3333 50.7722C90.2061 50.6245 90.1871 50.4768 90.079 50.3323C89.9519 50.1218 89.6785 50.0181 89.5069 49.8516L89.5005 49.8579ZM55.6986 91.3112H52.7522C52.6688 86.6826 52.3825 82.0598 51.8941 77.4557H51.8686L47.3871 91.3112H45.1464L40.6967 77.4557H40.6649C40.317 82.067 40.1103 86.6876 40.0451 91.3112H37.3594C37.5352 85.1323 37.9696 79.3408 38.6625 73.9369H42.3176L46.5608 86.7053H46.5862L50.8675 73.9369H54.3478C55.1169 80.2708 55.5704 86.0623 55.7081 91.3112H55.6986ZM68.4661 78.4925C67.2647 84.9207 65.684 89.5916 63.724 92.5051C62.192 94.7547 60.5149 95.8784 58.6926 95.8763C58.2095 95.8763 57.6098 95.7318 56.8936 95.4427V93.8907C57.2454 93.9451 57.6543 93.9724 58.1205 93.9724C58.9723 93.9724 59.6578 93.7399 60.1769 93.2749C60.802 92.7093 61.1145 92.0757 61.1145 91.3741C61.1145 90.886 60.8708 89.8974 60.3835 88.4082L57.1606 78.4925H60.0529L62.3636 85.9073C62.887 87.5913 63.1042 88.7674 63.0152 89.4356C64.2865 86.0885 65.1712 82.4408 65.6691 78.4925H68.4661ZM107.64 91.3112H99.2804V73.9369H102.093V89.1748H107.64V91.3112ZM97.0873 91.7354L93.8581 90.1645C94.1463 89.9278 94.4164 89.666 94.6686 89.379C96.0438 87.7871 96.7303 85.4276 96.7282 82.3004C96.7282 76.5509 94.445 73.6751 89.8788 73.673C87.6412 73.673 85.8931 74.4029 84.6345 75.8628C83.2656 77.4589 82.5812 79.81 82.5812 82.9163C82.5791 85.9722 83.1872 88.2134 84.4056 89.6398C85.5159 90.9279 87.1931 91.572 89.437 91.572C90.2761 91.572 91.0442 91.4694 91.7413 91.2641L95.9526 93.6896L97.0969 91.7354H97.0873ZM86.6241 87.8332C85.91 86.7001 85.553 84.882 85.553 82.379C85.553 78.0014 86.8985 75.8126 89.5895 75.8126C91.0007 75.8126 92.0358 76.3362 92.6948 77.3835C93.4068 78.5208 93.7627 80.3253 93.7627 82.7969C93.7627 87.2101 92.4172 89.4178 89.7262 89.4198C88.3129 89.4198 87.2767 88.8962 86.6178 87.8489L86.6241 87.8332ZM81.3544 86.4979C81.3544 87.9767 80.8077 89.1873 79.7143 90.1299C78.6252 91.0724 77.1589 91.5437 75.3155 91.5437C73.5896 91.5437 71.9337 91.0033 70.3159 89.9257L71.0692 88.4302C72.4592 89.1193 73.7199 89.4628 74.8514 89.4607C75.9067 89.4607 76.7362 89.2303 77.3401 88.7695C77.6427 88.5453 77.887 88.2531 78.0528 87.9171C78.2186 87.5811 78.3011 87.211 78.2936 86.8373C78.2936 85.8005 77.5626 84.9207 76.234 84.1824C75.0008 83.5132 72.5376 82.1182 72.5376 82.1182C71.1963 81.1537 70.5289 80.12 70.5289 78.4203C70.5289 77.0086 71.0268 75.8723 72.0227 75.0114C73.0207 74.1401 74.3132 73.7054 75.9003 73.7075C77.5297 73.7075 79.013 74.1369 80.35 74.9957L79.673 76.4912C78.6071 76.0259 77.4564 75.78 76.2912 75.7686C75.3907 75.7686 74.6978 75.9843 74.2126 76.4158C73.9682 76.6173 73.7712 76.8689 73.6351 77.1532C73.499 77.4374 73.4271 77.7476 73.4243 78.0621C73.4243 79.0926 74.1681 79.9786 75.5411 80.7327C76.7902 81.4082 79.3139 82.8377 79.3139 82.8377C80.6901 83.796 81.3735 84.8171 81.3735 86.5074L81.3544 86.4979ZM111.174 68.1119C109.473 68.0679 108.154 68.2376 107.052 68.7026C106.734 68.8283 106.225 68.8283 106.181 69.2273C106.355 69.3938 106.381 69.6671 106.53 69.8996C106.785 70.3206 107.223 70.883 107.63 71.1784C108.071 71.5282 108.523 71.8528 108.987 72.1523C109.814 72.655 110.751 72.9535 111.562 73.4593C112.022 73.7547 112.493 74.1285 112.96 74.4427C113.192 74.5998 113.342 74.8826 113.64 74.9831V74.9203C113.494 74.7318 113.45 74.4584 113.307 74.2479C113.094 74.0374 112.881 73.8489 112.671 73.6416C112.048 72.8279 111.303 72.1128 110.462 71.5208C109.782 71.0621 108.294 70.4212 108.015 69.6514L107.973 69.6074C108.437 69.5666 108.99 69.4001 109.435 69.2744C110.157 69.0859 110.818 69.1267 111.565 68.9414C111.904 68.8534 112.243 68.755 112.582 68.646V68.4575C112.2 68.0805 111.914 67.5684 111.52 67.2165C110.419 66.2673 109.246 65.4028 108.011 64.6308C107.344 64.2098 106.498 63.9396 105.796 63.5814C105.542 63.4557 105.116 63.3929 104.97 63.1824C104.588 62.7237 104.366 62.1142 104.096 61.5675C103.472 60.3704 102.892 59.1516 102.357 57.9135C101.976 57.0904 101.744 56.2704 101.276 55.5163C99.0833 51.9441 96.7091 49.7793 93.0571 47.6617C92.2721 47.2219 91.3313 47.0334 90.3365 46.8009C89.8057 46.7757 89.2749 46.738 88.7473 46.716C88.3976 46.5684 88.0607 46.1694 87.762 45.9777C86.5542 45.2237 83.4267 43.5899 82.5367 45.7515C81.9646 47.1151 83.3854 48.4598 83.878 49.151C84.2435 49.6317 84.7044 50.1815 84.9587 50.7219C85.108 51.0863 85.1494 51.4602 85.2987 51.8404C85.6356 52.7641 85.9567 53.7946 86.4016 54.6586C86.6337 55.0985 86.8879 55.5603 87.1867 55.9562C87.3583 56.1855 87.6507 56.2924 87.7175 56.6694C87.4187 57.0967 87.3996 57.7187 87.228 58.2403C86.4652 60.6187 86.764 63.5594 87.8446 65.3094C88.1847 65.831 88.9952 66.9872 90.079 66.5442C91.0325 66.1671 90.8227 64.9732 91.0961 63.9207C91.1597 63.6694 91.1183 63.5029 91.2486 63.3332V63.3803C91.5474 63.971 91.8462 64.5334 92.1195 65.124C92.7743 66.1546 93.9185 67.2228 94.8752 67.936C95.3837 68.313 95.7874 68.9665 96.423 69.199V69.1362H96.3754C96.2387 68.9539 96.0575 68.866 95.8859 68.7183C95.4834 68.3279 95.1115 67.9078 94.7735 67.4616C93.8807 66.2502 93.0868 64.9706 92.3992 63.6348C92.0496 62.975 91.7572 62.265 91.4775 61.6146C91.3504 61.3633 91.3504 60.9863 91.1374 60.8606C90.8196 61.3193 90.3524 61.7183 90.1203 62.2838C89.7167 63.1887 89.6754 64.3009 89.5228 65.4571C89.437 65.4791 89.4783 65.4571 89.437 65.5011C88.7568 65.3377 88.5248 64.6402 88.2705 64.0558C87.6348 62.5635 87.53 60.1662 88.0798 58.4477C88.2292 58.0078 88.8649 56.6191 88.6106 56.1981C88.4771 55.7991 88.0576 55.5697 87.8255 55.2461C87.5275 54.8247 87.272 54.3754 87.0627 53.9046C86.5542 52.7295 86.2999 51.4288 85.7469 50.2538C85.4926 49.7102 85.0476 49.1415 84.6853 48.642C84.2817 48.0765 83.8367 47.6775 83.5157 47.0082C83.4108 46.7789 83.2614 46.3987 83.4299 46.1474C83.4744 45.9777 83.5634 45.9117 83.7286 45.8646C84.0083 45.6384 84.7934 45.9337 85.0699 46.0594C85.855 46.3736 86.5161 46.6689 87.174 47.1088C87.4727 47.3161 87.7938 47.7152 88.1752 47.8188H88.6201C89.3003 47.9665 90.0663 47.8628 90.702 48.0482C91.8303 48.4064 92.8474 48.9279 93.7596 49.4934C96.5706 51.268 98.8569 53.7458 100.386 56.6757C100.641 57.1595 100.752 57.6025 100.984 58.1052C101.429 59.142 101.979 60.1882 102.43 61.1905C102.875 62.1802 103.304 63.1887 103.943 64.0087C104.261 64.4486 105.539 64.6779 106.111 64.9073C106.533 65.0958 107.191 65.2686 107.573 65.4979C108.304 65.9378 109.016 66.4405 109.702 66.9243C110.052 67.1631 111.11 67.6878 111.174 68.1119Z" fill="white"/>
<defs>
<filter id="filter0_bii_391_11" x="-37.8821" y="-47.93" width="225.764" height="245.86" filterUnits="userSpaceOnUse" color-interpolation-filters="sRGB">
<feFlood flood-opacity="0" result="BackgroundImageFix"/>
<feGaussianBlur in="BackgroundImageFix" stdDeviation="23.965"/>
<feComposite in2="SourceAlpha" operator="in" result="effect1_backgroundBlur_391_11"/>
<feBlend mode="normal" in="SourceGraphic" in2="effect1_backgroundBlur_391_11" result="shape"/>
<feColorMatrix in="SourceAlpha" type="matrix" values="0 0 0 0 0 0 0 0 0 0 0 0 0 0 0 0 0 0 127 0" result="hardAlpha"/>
<feOffset dx="-23.97" dy="23.97"/>
<feGaussianBlur stdDeviation="11.985"/>
<feComposite in2="hardAlpha" operator="arithmetic" k2="-1" k3="1"/>
<feColorMatrix type="matrix" values="0 0 0 0 0 0 0 0 0 0 0 0 0 0 0 0 0 0 0.25 0"/>
<feBlend mode="normal" in2="shape" result="effect2_innerShadow_391_11"/>
<feColorMatrix in="SourceAlpha" type="matrix" values="0 0 0 0 0 0 0 0 0 0 0 0 0 0 0 0 0 0 127 0" result="hardAlpha"/>
<feOffset dx="23.97" dy="-23.97"/>
<feGaussianBlur stdDeviation="11.985"/>
<feComposite in2="hardAlpha" operator="arithmetic" k2="-1" k3="1"/>
<feColorMatrix type="matrix" values="0 0 0 0 0 0 0 0 0 0 0 0 0 0 0 0 0 0 0.25 0"/>
<feBlend mode="normal" in2="effect2_innerShadow_391_11" result="effect3_innerShadow_391_11"/>
</filter>
</defs>
</svg>
