<svg width="150" height="150" viewBox="0 0 150 150" fill="none" xmlns="http://www.w3.org/2000/svg">
<g filter="url(#filter0_bii_372_5)">
<path d="M75 0L139.952 37.5V112.5L75 150L10.0481 112.5V37.5L75 0Z" fill="#D9D9D9" fill-opacity="0.1"/>
<path d="M11.0481 38.0774L75 1.1547L138.952 38.0774V111.923L75 148.845L11.0481 111.923V38.0774Z" stroke="white" stroke-width="2"/>
</g>
<path d="M42.386 111V97.716H44.168L50.216 107.202V97.716H52.448V111H50.666L44.618 101.514V111H42.386ZM57.8708 111.09C57.5828 111.09 57.2588 111.06 56.8988 111C56.5508 110.952 56.2148 110.838 55.8908 110.658C55.5668 110.466 55.3028 110.184 55.0988 109.812C54.8948 109.44 54.7928 108.93 54.7928 108.282V100.614C54.7928 100.05 54.8768 99.582 55.0448 99.21C55.2128 98.826 55.4348 98.526 55.7108 98.31C55.9988 98.094 56.3108 97.944 56.6468 97.86C56.9948 97.764 57.3368 97.716 57.6728 97.716C58.5128 97.716 59.2688 97.728 59.9408 97.752C60.6128 97.776 61.2248 97.8 61.7768 97.824C62.3408 97.848 62.8628 97.878 63.3428 97.914V99.768H58.3208C57.9128 99.768 57.5888 99.87 57.3488 100.074C57.1208 100.278 57.0068 100.596 57.0068 101.028V103.386L62.5328 103.512V105.258L57.0068 105.384V107.67C57.0068 108.03 57.0668 108.306 57.1868 108.498C57.3188 108.69 57.4808 108.822 57.6728 108.894C57.8768 108.966 58.0868 109.002 58.3028 109.002H63.3428V110.856C62.8148 110.904 62.2388 110.946 61.6148 110.982C60.9908 111.006 60.3548 111.024 59.7068 111.036C59.0708 111.06 58.4588 111.078 57.8708 111.09ZM72.9863 111L64.6703 97.716H67.1183L75.4523 111H72.9863ZM64.7243 111L69.1163 103.836L70.2683 105.726L67.1723 111H64.7243ZM71.0243 105.024L69.9083 103.116L73.0403 97.716H75.5063L71.0243 105.024ZM80.0317 111V99.714H76.2157V97.716H86.0617V99.714H82.2637V111H80.0317ZM93.6725 111.108C93.3005 111.108 92.9165 111.072 92.5205 111C92.1245 110.916 91.7945 110.826 91.5305 110.73V108.966C91.7825 109.002 92.0585 109.038 92.3585 109.074C92.6585 109.098 92.9345 109.11 93.1865 109.11C93.5225 109.11 93.8045 109.062 94.0325 108.966C94.2605 108.858 94.4345 108.696 94.5545 108.48C94.6865 108.252 94.7525 107.94 94.7525 107.544V97.716H96.9845V107.868C96.9845 108.612 96.8645 109.224 96.6245 109.704C96.3965 110.184 96.0365 110.538 95.5445 110.766C95.0645 110.994 94.4405 111.108 93.6725 111.108ZM103.383 111.108C103.059 111.108 102.711 111.096 102.339 111.072C101.979 111.06 101.607 111.036 101.223 111C100.851 110.952 100.497 110.91 100.161 110.874C99.8248 110.826 99.5248 110.772 99.2608 110.712V108.966C99.5968 108.99 99.9868 109.014 100.431 109.038C100.887 109.062 101.361 109.08 101.853 109.092C102.345 109.104 102.819 109.11 103.275 109.11C103.755 109.11 104.181 109.068 104.553 108.984C104.925 108.888 105.213 108.726 105.417 108.498C105.621 108.27 105.723 107.946 105.723 107.526V106.896C105.723 106.428 105.591 106.068 105.327 105.816C105.063 105.564 104.673 105.438 104.157 105.438H102.915C101.703 105.438 100.767 105.174 100.107 104.646C99.4588 104.118 99.1348 103.212 99.1348 101.928V101.244C99.1348 99.96 99.4888 99.036 100.197 98.472C100.917 97.896 101.943 97.608 103.275 97.608C103.731 97.608 104.199 97.632 104.679 97.68C105.171 97.716 105.639 97.764 106.083 97.824C106.527 97.884 106.905 97.95 107.217 98.022V99.768C106.689 99.732 106.083 99.696 105.399 99.66C104.727 99.624 104.103 99.606 103.527 99.606C103.071 99.606 102.669 99.654 102.321 99.75C101.973 99.846 101.709 100.02 101.529 100.272C101.349 100.512 101.259 100.872 101.259 101.352V101.784C101.259 102.348 101.409 102.744 101.709 102.972C102.021 103.2 102.465 103.314 103.041 103.314H104.427C105.207 103.314 105.849 103.458 106.353 103.746C106.857 104.034 107.229 104.43 107.469 104.934C107.721 105.426 107.847 105.99 107.847 106.626V107.472C107.847 108.456 107.655 109.212 107.271 109.74C106.887 110.268 106.359 110.628 105.687 110.82C105.015 111.012 104.247 111.108 103.383 111.108Z" fill="white"/>
<path d="M75.5 89C90.6878 89 103 76.6878 103 61.5C103 46.3122 90.6878 34 75.5 34C60.3122 34 48 46.3122 48 61.5C48 76.6878 60.3122 89 75.5 89Z" fill="white"/>
<path d="M93.6826 82.1311L69.126 50.5001H64.4995V72.4911H68.2008V55.2005L90.7766 84.3694C91.794 83.6888 92.7648 82.9411 93.6826 82.1311Z" fill="url(#paint0_linear_372_5)"/>
<path d="M83.1387 50.5001H86.8052V72.5001H83.1387V50.5001Z" fill="url(#paint1_linear_372_5)"/>
<defs>
<filter id="filter0_bii_372_5" x="-37.8821" y="-47.93" width="225.764" height="245.86" filterUnits="userSpaceOnUse" color-interpolation-filters="sRGB">
<feFlood flood-opacity="0" result="BackgroundImageFix"/>
<feGaussianBlur in="BackgroundImageFix" stdDeviation="23.965"/>
<feComposite in2="SourceAlpha" operator="in" result="effect1_backgroundBlur_372_5"/>
<feBlend mode="normal" in="SourceGraphic" in2="effect1_backgroundBlur_372_5" result="shape"/>
<feColorMatrix in="SourceAlpha" type="matrix" values="0 0 0 0 0 0 0 0 0 0 0 0 0 0 0 0 0 0 127 0" result="hardAlpha"/>
<feOffset dx="-23.97" dy="23.97"/>
<feGaussianBlur stdDeviation="11.985"/>
<feComposite in2="hardAlpha" operator="arithmetic" k2="-1" k3="1"/>
<feColorMatrix type="matrix" values="0 0 0 0 0 0 0 0 0 0 0 0 0 0 0 0 0 0 0.25 0"/>
<feBlend mode="normal" in2="shape" result="effect2_innerShadow_372_5"/>
<feColorMatrix in="SourceAlpha" type="matrix" values="0 0 0 0 0 0 0 0 0 0 0 0 0 0 0 0 0 0 127 0" result="hardAlpha"/>
<feOffset dx="23.97" dy="-23.97"/>
<feGaussianBlur stdDeviation="11.985"/>
<feComposite in2="hardAlpha" operator="arithmetic" k2="-1" k3="1"/>
<feColorMatrix type="matrix" values="0 0 0 0 0 0 0 0 0 0 0 0 0 0 0 0 0 0 0.25 0"/>
<feBlend mode="normal" in2="effect2_innerShadow_372_5" result="effect3_innerShadow_372_5"/>
</filter>
<linearGradient id="paint0_linear_372_5" x1="81.305" y1="69.5973" x2="92.1522" y2="83.0417" gradientUnits="userSpaceOnUse">
<stop/>
<stop offset="1" stop-color="white" stop-opacity="0"/>
</linearGradient>
<linearGradient id="paint1_linear_372_5" x1="84.9719" y1="50.5001" x2="84.9104" y2="66.6563" gradientUnits="userSpaceOnUse">
<stop/>
<stop offset="1" stop-color="white" stop-opacity="0"/>
</linearGradient>
</defs>
</svg>
