<svg width="150" height="150" viewBox="0 0 150 150" fill="none" xmlns="http://www.w3.org/2000/svg">
<g filter="url(#filter0_bii_391_13)">
<path d="M75 0L139.952 37.5V112.5L75 150L10.0481 112.5V37.5L75 0Z" fill="#D9D9D9" fill-opacity="0.1"/>
<path d="M11.0481 38.0774L75 1.1547L138.952 38.0774V111.923L75 148.845L11.0481 111.923V38.0774Z" stroke="white" stroke-width="2"/>
</g>
<path d="M41.386 116V102.716H43.168L49.216 112.202V102.716H51.448V116H49.666L43.618 106.514V116H41.386ZM58.7968 116.108C57.9088 116.108 57.1288 116.024 56.4568 115.856C55.7968 115.676 55.2388 115.358 54.7828 114.902C54.3388 114.434 54.0028 113.756 53.7748 112.868C53.5588 111.98 53.4508 110.822 53.4508 109.394C53.4508 107.954 53.5648 106.79 53.7928 105.902C54.0208 105.002 54.3568 104.318 54.8008 103.85C55.2568 103.37 55.8148 103.04 56.4748 102.86C57.1468 102.68 57.9208 102.59 58.7968 102.59C59.6968 102.59 60.4828 102.68 61.1548 102.86C61.8268 103.04 62.3848 103.37 62.8288 103.85C63.2728 104.318 63.6028 105.002 63.8188 105.902C64.0468 106.79 64.1608 107.954 64.1608 109.394C64.1608 110.822 64.0468 111.98 63.8188 112.868C63.6028 113.756 63.2668 114.434 62.8108 114.902C62.3668 115.358 61.8088 115.676 61.1368 115.856C60.4768 116.024 59.6968 116.108 58.7968 116.108ZM58.7968 114.11C59.3848 114.11 59.8768 114.05 60.2728 113.93C60.6808 113.798 61.0048 113.57 61.2448 113.246C61.4848 112.91 61.6588 112.436 61.7668 111.824C61.8748 111.2 61.9288 110.39 61.9288 109.394C61.9288 108.338 61.8688 107.498 61.7488 106.874C61.6408 106.238 61.4668 105.758 61.2268 105.434C60.9868 105.098 60.6688 104.876 60.2728 104.768C59.8768 104.648 59.3848 104.588 58.7968 104.588C58.2448 104.588 57.7708 104.648 57.3748 104.768C56.9788 104.876 56.6548 105.098 56.4028 105.434C56.1628 105.758 55.9828 106.238 55.8628 106.874C55.7428 107.498 55.6828 108.338 55.6828 109.394C55.6828 110.39 55.7308 111.2 55.8268 111.824C55.9348 112.436 56.1088 112.91 56.3488 113.246C56.5888 113.57 56.9068 113.798 57.3028 113.93C57.7108 114.05 58.2088 114.11 58.7968 114.11ZM66.3084 116V102.716H71.7984C72.6624 102.716 73.3824 102.872 73.9584 103.184C74.5464 103.484 75.0144 103.928 75.3624 104.516C75.7104 105.092 75.9564 105.788 76.1004 106.604C76.2564 107.42 76.3344 108.338 76.3344 109.358C76.3344 110.822 76.1664 112.046 75.8304 113.03C75.4944 114.002 74.9904 114.74 74.3184 115.244C73.6464 115.748 72.8064 116 71.7984 116H66.3084ZM68.5224 114.002H71.5824C72.1944 114.002 72.6804 113.822 73.0404 113.462C73.4124 113.102 73.6824 112.574 73.8504 111.878C74.0304 111.182 74.1204 110.342 74.1204 109.358C74.1204 108.446 74.0664 107.69 73.9584 107.09C73.8504 106.49 73.6944 106.016 73.4904 105.668C73.2864 105.32 73.0224 105.074 72.6984 104.93C72.3864 104.786 72.0144 104.714 71.5824 104.714H68.5224V114.002ZM81.5505 116.09C81.2625 116.09 80.9385 116.06 80.5785 116C80.2305 115.952 79.8945 115.838 79.5705 115.658C79.2465 115.466 78.9825 115.184 78.7785 114.812C78.5745 114.44 78.4725 113.93 78.4725 113.282V105.614C78.4725 105.05 78.5565 104.582 78.7245 104.21C78.8925 103.826 79.1145 103.526 79.3905 103.31C79.6785 103.094 79.9905 102.944 80.3265 102.86C80.6745 102.764 81.0165 102.716 81.3525 102.716C82.1925 102.716 82.9485 102.728 83.6205 102.752C84.2925 102.776 84.9045 102.8 85.4565 102.824C86.0205 102.848 86.5425 102.878 87.0225 102.914V104.768H82.0005C81.5925 104.768 81.2685 104.87 81.0285 105.074C80.8005 105.278 80.6865 105.596 80.6865 106.028V108.386L86.2125 108.512V110.258L80.6865 110.384V112.67C80.6865 113.03 80.7465 113.306 80.8665 113.498C80.9985 113.69 81.1605 113.822 81.3525 113.894C81.5565 113.966 81.7665 114.002 81.9825 114.002H87.0225V115.856C86.4945 115.904 85.9185 115.946 85.2945 115.982C84.6705 116.006 84.0345 116.024 83.3865 116.036C82.7505 116.06 82.1385 116.078 81.5505 116.09ZM95.2389 116.108C94.8669 116.108 94.4829 116.072 94.0869 116C93.6909 115.916 93.3609 115.826 93.0969 115.73V113.966C93.3489 114.002 93.6249 114.038 93.9249 114.074C94.2249 114.098 94.5009 114.11 94.7529 114.11C95.0889 114.11 95.3709 114.062 95.5989 113.966C95.8269 113.858 96.0009 113.696 96.1209 113.48C96.2529 113.252 96.3189 112.94 96.3189 112.544V102.716H98.5509V112.868C98.5509 113.612 98.4309 114.224 98.1909 114.704C97.9629 115.184 97.6029 115.538 97.1109 115.766C96.6309 115.994 96.0069 116.108 95.2389 116.108ZM104.949 116.108C104.625 116.108 104.277 116.096 103.905 116.072C103.545 116.06 103.173 116.036 102.789 116C102.417 115.952 102.063 115.91 101.727 115.874C101.391 115.826 101.091 115.772 100.827 115.712V113.966C101.163 113.99 101.553 114.014 101.997 114.038C102.453 114.062 102.927 114.08 103.419 114.092C103.911 114.104 104.385 114.11 104.841 114.11C105.321 114.11 105.747 114.068 106.119 113.984C106.491 113.888 106.779 113.726 106.983 113.498C107.187 113.27 107.289 112.946 107.289 112.526V111.896C107.289 111.428 107.157 111.068 106.893 110.816C106.629 110.564 106.239 110.438 105.723 110.438H104.481C103.269 110.438 102.333 110.174 101.673 109.646C101.025 109.118 100.701 108.212 100.701 106.928V106.244C100.701 104.96 101.055 104.036 101.763 103.472C102.483 102.896 103.509 102.608 104.841 102.608C105.297 102.608 105.765 102.632 106.245 102.68C106.737 102.716 107.205 102.764 107.649 102.824C108.093 102.884 108.471 102.95 108.783 103.022V104.768C108.255 104.732 107.649 104.696 106.965 104.66C106.293 104.624 105.669 104.606 105.093 104.606C104.637 104.606 104.235 104.654 103.887 104.75C103.539 104.846 103.275 105.02 103.095 105.272C102.915 105.512 102.825 105.872 102.825 106.352V106.784C102.825 107.348 102.975 107.744 103.275 107.972C103.587 108.2 104.031 108.314 104.607 108.314H105.993C106.773 108.314 107.415 108.458 107.919 108.746C108.423 109.034 108.795 109.43 109.035 109.934C109.287 110.426 109.413 110.99 109.413 111.626V112.472C109.413 113.456 109.221 114.212 108.837 114.74C108.453 115.268 107.925 115.628 107.253 115.82C106.581 116.012 105.813 116.108 104.949 116.108Z" fill="white"/>
<path d="M78.0676 28.6989C77.2893 28.2413 76.4029 28 75.5 28C74.5971 28 73.7107 28.2413 72.9324 28.6989L50.4982 41.8931C49.7373 42.3405 49.1065 42.9789 48.6683 43.7451C48.2302 44.5113 47.9998 45.3787 48 46.2613V72.725C48 74.5197 48.9495 76.1813 50.4982 77.0902L58.0911 81.5568C61.9497 83.8321 66.8158 81.0474 66.8158 76.5721V47.1818H61.0263V76.5692L53.7895 72.311V46.6752L75.5 33.9037L97.2105 46.6752V72.311L75.5 85.0826L70.3821 82.0721L67.4468 87.0597L72.9324 90.2874C73.7107 90.745 74.5971 90.9863 75.5 90.9863C76.4029 90.9863 77.2893 90.745 78.0676 90.2874L100.502 77.0902C101.262 76.6431 101.893 76.0052 102.331 75.2395C102.769 74.4739 103 73.6071 103 72.725V46.2613C103 45.3792 102.769 44.5124 102.331 43.7467C101.893 42.9811 101.262 42.3432 100.502 41.896L78.0676 28.6989ZM81.2895 46.4668C77.3439 46.4668 74.5476 47.4829 72.75 49.2747C71.3926 50.6248 70.6254 52.4578 70.6166 54.3723C70.6166 55.9789 71.0711 57.435 72.0118 58.6392C72.9179 59.7971 74.1105 60.5179 75.2539 60.9839C77.3382 61.8437 79.9434 62.1245 82.0392 62.3473L82.291 62.3763C84.6966 62.6368 86.5 62.8597 87.7332 63.375C88.2918 63.6066 88.5205 63.8208 88.6161 63.9452C88.6768 64.0263 88.7955 64.2058 88.7955 64.6979C88.7955 65.4621 88.535 65.9542 87.7158 66.4202C86.7113 66.9905 84.9368 67.4247 82.265 67.4247C79.6163 67.4247 77.7695 66.9326 76.7129 66.2031C75.8937 65.6358 75.2887 64.7645 75.4479 62.8742L69.6787 62.3908C69.3661 66.1221 70.7179 69.095 73.4187 70.965C75.8821 72.6729 79.1213 73.2142 82.265 73.2142C85.3826 73.2142 88.3208 72.7366 90.5816 71.4484C93.0305 70.0589 94.585 67.7374 94.585 64.6979C94.585 63.0855 94.1363 61.6266 93.2042 60.4137C92.3068 59.2442 91.1142 58.5147 89.9679 58.0342C87.8605 57.1513 85.2205 56.8676 83.1132 56.6418L82.9105 56.6187C80.4992 56.3581 78.6958 56.141 77.4539 55.6316C76.8924 55.4 76.6637 55.1916 76.5768 55.0758C76.5189 55.0063 76.4061 54.8442 76.4061 54.3723C76.4061 54.1495 76.4726 53.7384 76.8403 53.3737C77.1934 53.0205 78.2847 52.2563 81.2895 52.2563C84.1553 52.2563 85.8255 52.5602 86.7808 53.1247C87.4032 53.4952 88.0776 54.1755 88.1703 56.4045L93.9539 56.1729C93.8092 52.566 92.4892 49.7813 89.7334 48.1487C87.3105 46.7071 84.2132 46.4668 81.2895 46.4668Z" fill="white"/>
<defs>
<filter id="filter0_bii_391_13" x="-37.8821" y="-47.93" width="225.764" height="245.86" filterUnits="userSpaceOnUse" color-interpolation-filters="sRGB">
<feFlood flood-opacity="0" result="BackgroundImageFix"/>
<feGaussianBlur in="BackgroundImageFix" stdDeviation="23.965"/>
<feComposite in2="SourceAlpha" operator="in" result="effect1_backgroundBlur_391_13"/>
<feBlend mode="normal" in="SourceGraphic" in2="effect1_backgroundBlur_391_13" result="shape"/>
<feColorMatrix in="SourceAlpha" type="matrix" values="0 0 0 0 0 0 0 0 0 0 0 0 0 0 0 0 0 0 127 0" result="hardAlpha"/>
<feOffset dx="-23.97" dy="23.97"/>
<feGaussianBlur stdDeviation="11.985"/>
<feComposite in2="hardAlpha" operator="arithmetic" k2="-1" k3="1"/>
<feColorMatrix type="matrix" values="0 0 0 0 0 0 0 0 0 0 0 0 0 0 0 0 0 0 0.25 0"/>
<feBlend mode="normal" in2="shape" result="effect2_innerShadow_391_13"/>
<feColorMatrix in="SourceAlpha" type="matrix" values="0 0 0 0 0 0 0 0 0 0 0 0 0 0 0 0 0 0 127 0" result="hardAlpha"/>
<feOffset dx="23.97" dy="-23.97"/>
<feGaussianBlur stdDeviation="11.985"/>
<feComposite in2="hardAlpha" operator="arithmetic" k2="-1" k3="1"/>
<feColorMatrix type="matrix" values="0 0 0 0 0 0 0 0 0 0 0 0 0 0 0 0 0 0 0.25 0"/>
<feBlend mode="normal" in2="effect2_innerShadow_391_13" result="effect3_innerShadow_391_13"/>
</filter>
</defs>
</svg>
