<svg width="150" height="150" viewBox="0 0 150 150" fill="none" xmlns="http://www.w3.org/2000/svg">
<g filter="url(#filter0_bii_391_10)">
<path d="M75 0L139.952 37.5V112.5L75 150L10.0481 112.5V37.5L75 0Z" fill="#D9D9D9" fill-opacity="0.1"/>
<path d="M11.0481 38.0774L75 1.1547L138.952 38.0774V111.923L75 148.845L11.0481 111.923V38.0774Z" stroke="white" stroke-width="2"/>
</g>
<path d="M59.242 103V89.716H64.732C65.152 89.716 65.578 89.77 66.01 89.878C66.442 89.974 66.838 90.172 67.198 90.472C67.57 90.772 67.864 91.216 68.08 91.804C68.308 92.392 68.422 93.178 68.422 94.162C68.422 95.146 68.308 95.938 68.08 96.538C67.852 97.138 67.552 97.6 67.18 97.924C66.82 98.236 66.424 98.452 65.992 98.572C65.572 98.68 65.164 98.734 64.768 98.734C64.564 98.734 64.306 98.728 63.994 98.716C63.694 98.692 63.376 98.668 63.04 98.644C62.716 98.608 62.41 98.578 62.122 98.554C61.846 98.518 61.624 98.488 61.456 98.464V103H59.242ZM61.456 96.718H64.444C64.792 96.718 65.098 96.64 65.362 96.484C65.626 96.316 65.83 96.052 65.974 95.692C66.118 95.32 66.19 94.816 66.19 94.18C66.19 93.556 66.112 93.064 65.956 92.704C65.812 92.344 65.614 92.092 65.362 91.948C65.122 91.792 64.84 91.714 64.516 91.714H61.456V96.718ZM70.3162 103V89.716H72.5302V95.458H78.1282V89.716H80.3602V103H78.1282V97.456H72.5302V103H70.3162ZM82.8494 103V89.716H88.3394C88.7594 89.716 89.1854 89.77 89.6174 89.878C90.0494 89.974 90.4454 90.172 90.8054 90.472C91.1774 90.772 91.4714 91.216 91.6874 91.804C91.9154 92.392 92.0294 93.178 92.0294 94.162C92.0294 95.146 91.9154 95.938 91.6874 96.538C91.4594 97.138 91.1594 97.6 90.7874 97.924C90.4274 98.236 90.0314 98.452 89.5994 98.572C89.1794 98.68 88.7714 98.734 88.3754 98.734C88.1714 98.734 87.9134 98.728 87.6014 98.716C87.3014 98.692 86.9834 98.668 86.6474 98.644C86.3234 98.608 86.0174 98.578 85.7294 98.554C85.4534 98.518 85.2314 98.488 85.0634 98.464V103H82.8494ZM85.0634 96.718H88.0514C88.3994 96.718 88.7054 96.64 88.9694 96.484C89.2334 96.316 89.4374 96.052 89.5814 95.692C89.7254 95.32 89.7974 94.816 89.7974 94.18C89.7974 93.556 89.7194 93.064 89.5634 92.704C89.4194 92.344 89.2214 92.092 88.9694 91.948C88.7294 91.792 88.4474 91.714 88.1234 91.714H85.0634V96.718Z" fill="white"/>
<ellipse cx="73.5415" cy="59.9584" rx="30.625" ry="16.0417" fill="black"/>
<path d="M60.4458 54.1804H57.6925L56.1904 61.9037H58.6346C60.2563 61.9037 61.4638 61.5985 62.2571 60.9879C63.0504 60.3754 63.5851 59.3556 63.8612 57.9283C64.1276 56.5575 64.0071 55.5901 63.4996 55.0262C62.9901 54.4624 61.9722 54.1804 60.4458 54.1804ZM75 41C55.6713 41 40 49.2425 40 59.41C40 69.5775 55.6713 77.8229 75 77.8229C94.3288 77.8229 110 69.5775 110 59.41C110 49.2425 94.3288 41 75 41ZM65.4917 62.7321C64.7304 63.4612 63.8146 64.0096 62.8171 64.3392C61.8351 64.6561 60.5858 64.8156 59.0692 64.8175H55.6246L54.6708 69.7204H50.6517L54.2392 51.2696H61.9683C64.2919 51.2696 65.9875 51.8801 67.055 53.1012C68.1225 54.3204 68.4433 56.0237 68.0175 58.2112C67.8562 59.0773 67.5557 59.9116 67.1279 60.6817C66.7099 61.4264 66.1644 62.1099 65.4917 62.7321ZM77.2283 64.8175L78.8121 56.6537C78.9949 55.7243 78.9288 55.0914 78.6138 54.755C78.3026 54.4167 77.6347 54.2475 76.61 54.2475H73.425L71.3717 64.8204H67.3817L70.9692 46.3667H74.9562L74.0025 51.2725H77.555C79.7911 51.2725 81.3331 51.6624 82.1808 52.4421C83.4525 53.6117 83.2833 54.4837 82.9479 56.2308L81.2796 64.8175H77.2283ZM99.3863 58.2112C99.2249 59.0773 98.9245 59.9116 98.4967 60.6817C98.0806 61.4264 97.5351 62.1099 96.8604 62.7321C96.0988 63.459 95.1853 64.0079 94.1858 64.3392C93.2058 64.6561 91.9556 64.8156 90.435 64.8175H86.9933L86.0396 69.7233H82.0204L85.6079 51.2725H93.3342C95.6578 51.2725 97.3533 51.8831 98.4208 53.1042C99.4903 54.3214 99.8121 56.0237 99.3863 58.2112ZM91.8175 54.1804H89.0671L87.5621 61.9037H90.0063C91.6299 61.9037 92.8374 61.5985 93.6287 60.9879C94.4201 60.3754 94.9558 59.3556 95.2358 57.9283C95.5022 56.5575 95.3807 55.5901 94.8713 55.0262C94.1071 54.1804 93.3429 54.1804 91.8175 54.1804Z" fill="white"/>
<defs>
<filter id="filter0_bii_391_10" x="-37.8821" y="-47.93" width="225.764" height="245.86" filterUnits="userSpaceOnUse" color-interpolation-filters="sRGB">
<feFlood flood-opacity="0" result="BackgroundImageFix"/>
<feGaussianBlur in="BackgroundImageFix" stdDeviation="23.965"/>
<feComposite in2="SourceAlpha" operator="in" result="effect1_backgroundBlur_391_10"/>
<feBlend mode="normal" in="SourceGraphic" in2="effect1_backgroundBlur_391_10" result="shape"/>
<feColorMatrix in="SourceAlpha" type="matrix" values="0 0 0 0 0 0 0 0 0 0 0 0 0 0 0 0 0 0 127 0" result="hardAlpha"/>
<feOffset dx="-23.97" dy="23.97"/>
<feGaussianBlur stdDeviation="11.985"/>
<feComposite in2="hardAlpha" operator="arithmetic" k2="-1" k3="1"/>
<feColorMatrix type="matrix" values="0 0 0 0 0 0 0 0 0 0 0 0 0 0 0 0 0 0 0.25 0"/>
<feBlend mode="normal" in2="shape" result="effect2_innerShadow_391_10"/>
<feColorMatrix in="SourceAlpha" type="matrix" values="0 0 0 0 0 0 0 0 0 0 0 0 0 0 0 0 0 0 127 0" result="hardAlpha"/>
<feOffset dx="23.97" dy="-23.97"/>
<feGaussianBlur stdDeviation="11.985"/>
<feComposite in2="hardAlpha" operator="arithmetic" k2="-1" k3="1"/>
<feColorMatrix type="matrix" values="0 0 0 0 0 0 0 0 0 0 0 0 0 0 0 0 0 0 0.25 0"/>
<feBlend mode="normal" in2="effect2_innerShadow_391_10" result="effect3_innerShadow_391_10"/>
</filter>
</defs>
</svg>
