<svg width="150" height="150" viewBox="0 0 150 150" fill="none" xmlns="http://www.w3.org/2000/svg">
<g filter="url(#filter0_bii_372_4)">
<path d="M75 0L139.952 37.5V112.5L75 150L10.0481 112.5V37.5L75 0Z" fill="#D9D9D9" fill-opacity="0.1"/>
<path d="M11.0481 38.0774L75 1.1547L138.952 38.0774V111.923L75 148.845L11.0481 111.923V38.0774Z" stroke="white" stroke-width="2"/>
</g>
<path d="M37.242 110.38V97.0955H42.642C43.134 97.0955 43.596 97.1555 44.028 97.2755C44.472 97.3835 44.862 97.5875 45.198 97.8875C45.546 98.1875 45.816 98.6075 46.008 99.1475C46.212 99.6755 46.314 100.366 46.314 101.218C46.314 101.878 46.248 102.43 46.116 102.874C45.984 103.306 45.81 103.66 45.594 103.936C45.378 104.212 45.132 104.428 44.856 104.584C44.592 104.728 44.328 104.848 44.064 104.944L46.62 110.38H44.37L42.066 105.268C41.898 105.268 41.7 105.268 41.472 105.268C41.256 105.268 41.028 105.268 40.788 105.268C40.548 105.256 40.314 105.25 40.086 105.25C39.858 105.238 39.648 105.232 39.456 105.232V110.38H37.242ZM39.456 103.486H42.264C42.528 103.486 42.768 103.456 42.984 103.396C43.2 103.324 43.392 103.204 43.56 103.036C43.728 102.868 43.854 102.64 43.938 102.352C44.034 102.064 44.082 101.692 44.082 101.236C44.082 100.792 44.034 100.432 43.938 100.156C43.854 99.8675 43.728 99.6515 43.56 99.5075C43.392 99.3515 43.194 99.2435 42.966 99.1835C42.75 99.1235 42.516 99.0935 42.264 99.0935H39.456V103.486ZM51.4821 110.47C51.1941 110.47 50.8701 110.44 50.5101 110.38C50.1621 110.332 49.8261 110.218 49.5021 110.038C49.1781 109.846 48.9141 109.564 48.7101 109.192C48.5061 108.82 48.4041 108.31 48.4041 107.662V99.9935C48.4041 99.4295 48.4881 98.9615 48.6561 98.5895C48.8241 98.2055 49.0461 97.9055 49.3221 97.6895C49.6101 97.4735 49.9221 97.3235 50.2581 97.2395C50.6061 97.1435 50.9481 97.0955 51.2841 97.0955C52.1241 97.0955 52.8801 97.1075 53.5521 97.1315C54.2241 97.1555 54.8361 97.1795 55.3881 97.2035C55.9521 97.2275 56.4741 97.2575 56.9541 97.2935V99.1475H51.9321C51.5241 99.1475 51.2001 99.2495 50.9601 99.4535C50.7321 99.6575 50.6181 99.9755 50.6181 100.408V102.766L56.1441 102.892V104.638L50.6181 104.764V107.05C50.6181 107.41 50.6781 107.686 50.7981 107.878C50.9301 108.07 51.0921 108.202 51.2841 108.274C51.4881 108.346 51.6981 108.382 51.9141 108.382H56.9541V110.236C56.4261 110.284 55.8501 110.326 55.2261 110.362C54.6021 110.386 53.9661 110.404 53.3181 110.416C52.6821 110.44 52.0701 110.458 51.4821 110.47ZM58.2636 110.38L62.5836 97.0955H65.3916L69.7116 110.38H67.3896L66.3636 107.23H61.5576L60.5496 110.38H58.2636ZM62.0796 105.232H65.8236L63.9516 99.0035L62.0796 105.232ZM75.5958 110.488C74.8158 110.488 74.1258 110.398 73.5258 110.218C72.9378 110.038 72.4398 109.708 72.0318 109.228C71.6358 108.748 71.3358 108.064 71.1318 107.176C70.9278 106.288 70.8258 105.124 70.8258 103.684C70.8258 102.328 70.9278 101.212 71.1318 100.336C71.3478 99.4595 71.6598 98.7755 72.0678 98.2835C72.4878 97.7915 72.9978 97.4495 73.5978 97.2575C74.1978 97.0655 74.8818 96.9695 75.6498 96.9695C76.1778 96.9695 76.6878 96.9995 77.1798 97.0595C77.6838 97.1195 78.1458 97.1915 78.5658 97.2755C78.9978 97.3595 79.3698 97.4495 79.6818 97.5455V99.2555C79.4778 99.2075 79.1898 99.1655 78.8178 99.1295C78.4458 99.0815 78.0258 99.0455 77.5578 99.0215C77.0898 98.9855 76.6038 98.9675 76.0998 98.9675C75.5478 98.9675 75.0738 99.0335 74.6778 99.1655C74.2938 99.2855 73.9818 99.5135 73.7418 99.8495C73.5018 100.186 73.3278 100.666 73.2198 101.29C73.1118 101.914 73.0578 102.724 73.0578 103.72C73.0578 104.704 73.1058 105.508 73.2018 106.132C73.3098 106.756 73.4718 107.242 73.6878 107.59C73.9158 107.926 74.2218 108.16 74.6058 108.292C75.0018 108.424 75.4938 108.49 76.0818 108.49C76.9818 108.49 77.7198 108.472 78.2958 108.436C78.8718 108.388 79.3338 108.34 79.6818 108.292V110.002C79.3458 110.098 78.9618 110.182 78.5298 110.254C78.1098 110.326 77.6538 110.38 77.1618 110.416C76.6818 110.464 76.1598 110.488 75.5958 110.488ZM84.5415 110.38V99.0935H80.7255V97.0955H90.5715V99.0935H86.7735V110.38H84.5415ZM98.1823 110.488C97.8103 110.488 97.4263 110.452 97.0303 110.38C96.6343 110.296 96.3043 110.206 96.0403 110.11V108.346C96.2923 108.382 96.5683 108.418 96.8683 108.454C97.1683 108.478 97.4443 108.49 97.6963 108.49C98.0323 108.49 98.3143 108.442 98.5423 108.346C98.7703 108.238 98.9443 108.076 99.0643 107.86C99.1963 107.632 99.2623 107.32 99.2623 106.924V97.0955H101.494V107.248C101.494 107.992 101.374 108.604 101.134 109.084C100.906 109.564 100.546 109.918 100.054 110.146C99.5743 110.374 98.9503 110.488 98.1823 110.488ZM107.893 110.488C107.569 110.488 107.221 110.476 106.849 110.452C106.489 110.44 106.117 110.416 105.733 110.38C105.361 110.332 105.007 110.29 104.671 110.254C104.335 110.206 104.035 110.152 103.771 110.092V108.346C104.107 108.37 104.497 108.394 104.941 108.418C105.397 108.442 105.871 108.46 106.363 108.472C106.855 108.484 107.329 108.49 107.785 108.49C108.265 108.49 108.691 108.448 109.063 108.364C109.435 108.268 109.723 108.106 109.927 107.878C110.131 107.65 110.233 107.326 110.233 106.906V106.276C110.233 105.808 110.101 105.448 109.837 105.196C109.573 104.944 109.183 104.818 108.667 104.818H107.425C106.213 104.818 105.277 104.554 104.617 104.026C103.969 103.498 103.645 102.592 103.645 101.308V100.624C103.645 99.3395 103.999 98.4155 104.707 97.8515C105.427 97.2755 106.453 96.9875 107.785 96.9875C108.241 96.9875 108.709 97.0115 109.189 97.0595C109.681 97.0955 110.149 97.1435 110.593 97.2035C111.037 97.2635 111.415 97.3295 111.727 97.4015V99.1475C111.199 99.1115 110.593 99.0755 109.909 99.0395C109.237 99.0035 108.613 98.9855 108.037 98.9855C107.581 98.9855 107.179 99.0335 106.831 99.1295C106.483 99.2255 106.219 99.3995 106.039 99.6515C105.859 99.8915 105.769 100.252 105.769 100.732V101.164C105.769 101.728 105.919 102.124 106.219 102.352C106.531 102.58 106.975 102.694 107.551 102.694H108.937C109.717 102.694 110.359 102.838 110.863 103.126C111.367 103.414 111.739 103.81 111.979 104.314C112.231 104.806 112.357 105.37 112.357 106.006V106.852C112.357 107.836 112.165 108.592 111.781 109.12C111.397 109.648 110.869 110.008 110.197 110.2C109.525 110.392 108.757 110.488 107.893 110.488Z" fill="white"/>
<path d="M74.7719 63.9328C77.6657 63.9328 80.0116 61.5869 80.0116 58.6931C80.0116 55.7993 77.6657 53.4534 74.7719 53.4534C71.8781 53.4534 69.5322 55.7993 69.5322 58.6931C69.5322 61.5869 71.8781 63.9328 74.7719 63.9328Z" fill="white"/>
<path d="M94.6742 50.052C93.663 49.6843 92.6059 49.3166 91.5028 48.9949C91.7785 47.8918 92.0083 46.7887 92.1922 45.7316C93.1574 39.6645 92.1003 35.39 89.1587 33.7354C88.2854 33.2298 87.3202 33 86.2171 33C82.9997 33 78.9091 35.39 74.7724 39.3888C70.6358 35.39 66.5452 33 63.3278 33C62.2247 33 61.2595 33.2298 60.3862 33.7354C57.4446 35.436 56.3875 39.7105 57.3527 45.7316C57.5366 46.7887 57.7664 47.8918 58.0421 48.9949C56.939 49.3166 55.8819 49.6384 54.8707 50.052C49.1254 52.2582 46 55.2918 46 58.693C46 62.0942 49.1714 65.1277 54.8707 67.3339C55.8819 67.7016 56.939 68.0693 58.0421 68.391C57.7664 69.4941 57.5366 70.5972 57.3527 71.6544C56.3875 77.7214 57.4446 81.9959 60.3862 83.6505C61.2595 84.1561 62.2247 84.3859 63.3278 84.3859C66.5911 84.3859 70.6818 81.9959 74.7724 77.9972C78.9091 81.9959 82.9997 84.3859 86.2171 84.3859C87.3202 84.3859 88.2854 84.1561 89.1587 83.6505C92.1003 81.9499 93.1574 77.6754 92.1922 71.6544C92.0083 70.5972 91.7785 69.4941 91.5028 68.391C92.6059 68.0693 93.663 67.7476 94.6742 67.3339C100.419 65.1277 103.545 62.0942 103.545 58.693C103.545 55.2918 100.419 52.2582 94.6742 50.052ZM87.8717 36.0335C89.7562 37.1366 90.3997 40.5378 89.6183 45.3639C89.4804 46.3291 89.2506 47.3403 88.9748 48.3974C86.5848 47.8458 84.0568 47.4781 81.391 47.2483C79.8283 45.0421 78.2196 43.0658 76.6109 41.2732C80.0122 37.918 83.4593 35.6199 86.263 35.6199C86.8605 35.6199 87.4121 35.7577 87.8717 36.0335ZM82.7239 63.2892C81.8966 64.76 80.9314 66.2308 79.9202 67.7016C78.2196 67.8395 76.519 67.8854 74.7724 67.8854C72.9799 67.8854 71.2793 67.8395 69.6247 67.7016C68.6135 66.2308 67.6942 64.76 66.8669 63.2892C65.9936 61.7724 65.1663 60.2097 64.4309 58.693C65.1663 57.1762 65.9936 55.6135 66.8669 54.0967C67.6942 52.6259 68.6595 51.1551 69.6706 49.6843C71.3712 49.5465 73.0718 49.5005 74.8184 49.5005C76.6109 49.5005 78.3116 49.5465 79.9662 49.6843C80.9774 51.1551 81.8966 52.6259 82.7239 54.0967C83.5972 55.6135 84.4245 57.1762 85.1599 58.693C84.3786 60.2097 83.5972 61.7265 82.7239 63.2892ZM86.5388 61.7724C87.2282 63.3811 87.7798 64.9439 88.2854 66.5066C86.7227 66.8743 85.068 67.15 83.3214 67.3799C83.873 66.5066 84.4705 65.5873 84.9761 64.6221C85.5276 63.6569 86.0332 62.6917 86.5388 61.7724ZM74.7724 74.2283C73.6693 73.0332 72.6122 71.7463 71.601 70.4134C72.6582 70.4593 73.7153 70.5053 74.7724 70.5053C75.8296 70.5053 76.8867 70.4593 77.9439 70.4134C76.9327 71.7463 75.8755 73.0332 74.7724 74.2283ZM66.2234 67.3339C64.4769 67.1041 62.8222 66.8283 61.2595 66.4606C61.7651 64.9439 62.3166 63.3352 63.0061 61.7265C63.5117 62.6457 64.0173 63.6109 64.5688 64.5302C65.1203 65.5414 65.6719 66.4146 66.2234 67.3339ZM63.0061 55.6135C62.3166 54.0048 61.7651 52.4421 61.2595 50.8794C62.8222 50.5117 64.4769 50.2359 66.2234 50.0061C65.6719 50.8794 65.0744 51.7986 64.5688 52.7638C64.0173 53.729 63.5117 54.6942 63.0061 55.6135ZM74.7724 43.1577C75.8755 44.3527 76.9327 45.6397 77.9439 46.9726C76.8867 46.9266 75.8296 46.8806 74.7724 46.8806C73.7153 46.8806 72.6582 46.9266 71.601 46.9726C72.6122 45.6397 73.6693 44.3527 74.7724 43.1577ZM84.9761 52.8098L83.3214 50.052C85.068 50.2819 86.7227 50.5576 88.2854 50.9253C87.7798 52.4421 87.2282 54.0508 86.5388 55.6595C86.0332 54.6942 85.5276 53.729 84.9761 52.8098ZM59.9266 45.3639C59.1452 40.5378 59.7887 37.1366 61.6732 36.0335C62.1328 35.7577 62.6843 35.6199 63.2819 35.6199C66.0396 35.6199 69.4868 37.872 72.934 41.2732C71.3253 43.0198 69.7166 45.0421 68.1539 47.2483C65.488 47.4781 62.9601 47.8918 60.5701 48.3974C60.2943 47.3403 60.1104 46.3291 59.9266 45.3639ZM48.5739 58.693C48.5739 56.5327 51.1937 54.2346 55.79 52.534C56.7092 52.1663 57.7204 51.8446 58.7316 51.5688C59.467 53.8669 60.3862 56.3029 61.4893 58.7389C60.3862 61.1749 59.421 63.565 58.7316 65.8631C52.3888 64.0246 48.5739 61.2669 48.5739 58.693ZM61.6732 81.3524C59.7887 80.2493 59.1452 76.8481 59.9266 72.0221C60.0645 71.0568 60.2943 70.0457 60.5701 68.9885C62.9601 69.5401 65.488 69.9078 68.1539 70.1376C69.7166 72.3438 71.3253 74.3202 72.934 76.1127C69.5327 79.468 66.0856 81.7661 63.2819 81.7661C62.6843 81.7661 62.1328 81.6282 61.6732 81.3524ZM89.6183 72.0221C90.3997 76.8481 89.7562 80.2493 87.8717 81.3524C87.4121 81.6282 86.8605 81.7661 86.263 81.7661C83.5053 81.7661 80.0581 79.5139 76.6109 76.1127C78.2196 74.3661 79.8283 72.3438 81.391 70.1376C84.0568 69.9078 86.5848 69.4941 88.9748 68.9885C89.2506 70.0457 89.4344 71.0568 89.6183 72.0221ZM93.7549 64.8519C92.8357 65.2196 91.8245 65.5414 90.8133 65.8171C90.0779 63.519 89.1587 61.083 88.0556 58.647C89.1587 56.211 90.1239 53.821 90.8133 51.5228C97.1561 53.3613 100.971 56.1191 100.971 58.693C100.971 60.8532 98.3052 63.1513 93.7549 64.8519Z" fill="white"/>
<defs>
<filter id="filter0_bii_372_4" x="-37.8821" y="-47.93" width="225.764" height="245.86" filterUnits="userSpaceOnUse" color-interpolation-filters="sRGB">
<feFlood flood-opacity="0" result="BackgroundImageFix"/>
<feGaussianBlur in="BackgroundImageFix" stdDeviation="23.965"/>
<feComposite in2="SourceAlpha" operator="in" result="effect1_backgroundBlur_372_4"/>
<feBlend mode="normal" in="SourceGraphic" in2="effect1_backgroundBlur_372_4" result="shape"/>
<feColorMatrix in="SourceAlpha" type="matrix" values="0 0 0 0 0 0 0 0 0 0 0 0 0 0 0 0 0 0 127 0" result="hardAlpha"/>
<feOffset dx="-23.97" dy="23.97"/>
<feGaussianBlur stdDeviation="11.985"/>
<feComposite in2="hardAlpha" operator="arithmetic" k2="-1" k3="1"/>
<feColorMatrix type="matrix" values="0 0 0 0 0 0 0 0 0 0 0 0 0 0 0 0 0 0 0.25 0"/>
<feBlend mode="normal" in2="shape" result="effect2_innerShadow_372_4"/>
<feColorMatrix in="SourceAlpha" type="matrix" values="0 0 0 0 0 0 0 0 0 0 0 0 0 0 0 0 0 0 127 0" result="hardAlpha"/>
<feOffset dx="23.97" dy="-23.97"/>
<feGaussianBlur stdDeviation="11.985"/>
<feComposite in2="hardAlpha" operator="arithmetic" k2="-1" k3="1"/>
<feColorMatrix type="matrix" values="0 0 0 0 0 0 0 0 0 0 0 0 0 0 0 0 0 0 0.25 0"/>
<feBlend mode="normal" in2="effect2_innerShadow_372_4" result="effect3_innerShadow_372_4"/>
</filter>
</defs>
</svg>
