<svg width="149" height="153" viewBox="0 0 149 153" fill="none" xmlns="http://www.w3.org/2000/svg">
<g filter="url(#filter0_bii_391_6)">
<path d="M74.5 0L139.019 38.25V114.75L74.5 153L9.98111 114.75V38.25L74.5 0Z" fill="#D9D9D9" fill-opacity="0.1"/>
<path d="M10.9811 38.8197L74.5 1.16253L138.019 38.8197V114.18L74.5 151.837L10.9811 114.18V38.8197Z" stroke="white" stroke-width="2"/>
</g>
<path d="M50.104 112V100.192H54.904C55.3413 100.192 55.752 100.245 56.136 100.352C56.5307 100.448 56.8773 100.629 57.176 100.896C57.4853 101.163 57.7253 101.536 57.896 102.016C58.0773 102.485 58.168 103.099 58.168 103.856C58.168 104.443 58.1093 104.933 57.992 105.328C57.8747 105.712 57.72 106.027 57.528 106.272C57.336 106.517 57.1173 106.709 56.872 106.848C56.6373 106.976 56.4027 107.083 56.168 107.168L58.44 112H56.44L54.392 107.456C54.2427 107.456 54.0667 107.456 53.864 107.456C53.672 107.456 53.4693 107.456 53.256 107.456C53.0427 107.445 52.8347 107.44 52.632 107.44C52.4293 107.429 52.2427 107.424 52.072 107.424V112H50.104ZM52.072 105.872H54.568C54.8027 105.872 55.016 105.845 55.208 105.792C55.4 105.728 55.5707 105.621 55.72 105.472C55.8693 105.323 55.9813 105.12 56.056 104.864C56.1413 104.608 56.184 104.277 56.184 103.872C56.184 103.477 56.1413 103.157 56.056 102.912C55.9813 102.656 55.8693 102.464 55.72 102.336C55.5707 102.197 55.3947 102.101 55.192 102.048C55 101.995 54.792 101.968 54.568 101.968H52.072V105.872ZM62.7619 112.08C62.5059 112.08 62.2179 112.053 61.8979 112C61.5885 111.957 61.2899 111.856 61.0019 111.696C60.7139 111.525 60.4792 111.275 60.2979 110.944C60.1165 110.613 60.0259 110.16 60.0259 109.584V102.768C60.0259 102.267 60.1005 101.851 60.2499 101.52C60.3992 101.179 60.5965 100.912 60.8419 100.72C61.0979 100.528 61.3752 100.395 61.6739 100.32C61.9832 100.235 62.2872 100.192 62.5859 100.192C63.3325 100.192 64.0045 100.203 64.6019 100.224C65.1992 100.245 65.7432 100.267 66.2339 100.288C66.7352 100.309 67.1992 100.336 67.6259 100.368V102.016H63.1619C62.7992 102.016 62.5112 102.107 62.2979 102.288C62.0952 102.469 61.9939 102.752 61.9939 103.136V105.232L66.9059 105.344V106.896L61.9939 107.008V109.04C61.9939 109.36 62.0472 109.605 62.1539 109.776C62.2712 109.947 62.4152 110.064 62.5859 110.128C62.7672 110.192 62.9539 110.224 63.1459 110.224H67.6259V111.872C67.1565 111.915 66.6445 111.952 66.0899 111.984C65.5352 112.005 64.9699 112.021 64.3939 112.032C63.8285 112.053 63.2845 112.069 62.7619 112.08ZM69.5259 112V100.192H74.4059C75.1739 100.192 75.8139 100.331 76.3259 100.608C76.8485 100.875 77.2645 101.269 77.5739 101.792C77.8832 102.304 78.1019 102.923 78.2299 103.648C78.3685 104.373 78.4379 105.189 78.4379 106.096C78.4379 107.397 78.2885 108.485 77.9899 109.36C77.6912 110.224 77.2432 110.88 76.6459 111.328C76.0485 111.776 75.3019 112 74.4059 112H69.5259ZM71.4939 110.224H74.2139C74.7579 110.224 75.1899 110.064 75.5099 109.744C75.8405 109.424 76.0805 108.955 76.2299 108.336C76.3899 107.717 76.4699 106.971 76.4699 106.096C76.4699 105.285 76.4219 104.613 76.3259 104.08C76.2299 103.547 76.0912 103.125 75.9099 102.816C75.7285 102.507 75.4939 102.288 75.2059 102.16C74.9285 102.032 74.5979 101.968 74.2139 101.968H71.4939V110.224ZM84.6904 112.08C84.0397 112.08 83.437 112.027 82.8824 111.92C82.3277 111.803 81.8477 111.605 81.4424 111.328C81.037 111.04 80.7224 110.651 80.4984 110.16C80.285 109.659 80.1784 109.019 80.1784 108.24V100.192H82.1464V108.24C82.1464 108.752 82.2477 109.163 82.4504 109.472C82.653 109.771 82.941 109.984 83.3144 110.112C83.6984 110.24 84.157 110.304 84.6904 110.304C85.2237 110.304 85.677 110.24 86.0504 110.112C86.4344 109.984 86.7277 109.771 86.9304 109.472C87.133 109.163 87.2344 108.752 87.2344 108.24V100.192H89.2024V108.24C89.2024 109.019 89.0904 109.659 88.8664 110.16C88.653 110.651 88.3437 111.04 87.9384 111.328C87.533 111.605 87.053 111.803 86.4984 111.92C85.9544 112.027 85.3517 112.08 84.6904 112.08ZM97.7604 112L90.3684 100.192H92.5444L99.9524 112H97.7604ZM90.4164 112L94.3204 105.632L95.3444 107.312L92.5924 112H90.4164ZM96.0164 106.688L95.0244 104.992L97.8084 100.192H100L96.0164 106.688Z" fill="white"/>
<path d="M85.1088 72.4685C81.2415 80.375 74.4695 85.6946 65.5102 87.4435C64.1366 87.7802 62.7264 87.9448 61.3121 87.9334C56.1557 87.9334 51.429 85.7849 49.1344 82.2657C46.0535 77.5776 45.005 67.6387 55.1631 60.2866C55.3693 61.4081 55.7905 62.9464 56.0698 63.8574C54.0757 65.3388 52.4434 67.2531 51.2958 69.4563C49.4051 73.1689 49.6157 76.8772 51.8544 80.3062C53.4013 82.618 55.8506 84.0231 59.0003 84.4528C62.9343 84.9508 66.9254 84.1992 70.4088 82.3043C75.8703 79.4339 79.5098 76.0049 81.8903 71.3169C81.2172 70.6213 80.8188 69.7054 80.7688 68.7387C80.7328 67.7014 81.1099 66.6921 81.8172 65.9325C82.5245 65.1728 83.5043 64.7248 84.5416 64.6867H84.6877C85.6966 64.6816 86.6688 65.0646 87.4033 65.7564C88.1377 66.4482 88.578 67.3958 88.6332 68.4033C88.6884 69.4107 88.3543 70.4008 87.6998 71.1687C87.0454 71.9365 86.1208 72.4235 85.1174 72.5287L85.1088 72.4685ZM97.4282 63.7886C102.675 69.7356 102.817 76.7354 100.788 80.7961C98.8978 84.5044 93.9133 88.217 87.21 88.217C84.0808 88.1529 81.0025 87.4126 78.1863 86.047C79.1704 85.3466 80.5669 84.2251 81.336 83.5247C83.5075 84.4659 85.8447 84.9655 88.2112 84.9942C92.5512 84.9942 95.8384 82.9661 97.7978 79.2578C99.0568 76.8085 99.1299 73.9381 97.9396 70.999C96.4793 67.3008 93.8804 64.163 90.5187 62.0397C86.1086 59.0668 80.9095 57.482 75.591 57.4892H74.3319C74.0384 58.1674 73.5608 58.7498 72.9532 59.1706C72.3457 59.5913 71.6325 59.8335 70.8944 59.8698H70.7612C69.7403 59.8572 68.7645 59.4472 68.041 58.7267C67.3176 58.0063 66.9035 57.0322 66.8868 56.0114C66.87 54.9906 67.2518 54.0034 67.9512 53.2596C68.6505 52.5157 69.6123 52.0739 70.6322 52.0278H70.774C71.4848 52.0283 72.1816 52.2247 72.7881 52.5954C73.3945 52.966 73.8871 53.4967 74.2116 54.129H75.3331C84.2709 54.129 92.1172 57.558 97.4282 63.7886ZM61.8707 73.6717C61.7968 72.9581 61.9696 72.2407 62.3605 71.6392C58.4417 64.85 56.3448 56.2431 59.5632 47.2839C61.8707 40.5505 67.6802 36 73.9796 36C80.7001 36 87.6999 41.8826 88.5378 53.218C87.4893 52.87 85.9596 52.3586 85.04 52.1696C84.8123 48.4613 81.6798 39.2227 74.2589 39.3602C71.5991 39.4333 67.6802 40.6923 65.6649 43.2791C63.1723 46.3671 61.7222 50.1655 61.5226 54.129C61.05 59.5637 62.3251 65.0074 65.1622 69.6669C65.3188 69.6097 65.4857 69.5862 65.652 69.5981H65.7895C66.8289 69.5793 67.8331 69.9742 68.5814 70.6958C69.3296 71.4174 69.7605 72.4067 69.7793 73.4461C69.7981 74.4854 69.4033 75.4897 68.6816 76.2379C67.96 76.9861 66.9707 77.417 65.9313 77.4358H65.7895C64.7756 77.4322 63.8021 77.0375 63.0721 76.3338C62.342 75.6302 61.9116 74.6719 61.8707 73.6588V73.6717Z" fill="white"/>
<defs>
<filter id="filter0_bii_391_6" x="-37.949" y="-47.93" width="224.898" height="248.86" filterUnits="userSpaceOnUse" color-interpolation-filters="sRGB">
<feFlood flood-opacity="0" result="BackgroundImageFix"/>
<feGaussianBlur in="BackgroundImageFix" stdDeviation="23.965"/>
<feComposite in2="SourceAlpha" operator="in" result="effect1_backgroundBlur_391_6"/>
<feBlend mode="normal" in="SourceGraphic" in2="effect1_backgroundBlur_391_6" result="shape"/>
<feColorMatrix in="SourceAlpha" type="matrix" values="0 0 0 0 0 0 0 0 0 0 0 0 0 0 0 0 0 0 127 0" result="hardAlpha"/>
<feOffset dx="-23.97" dy="23.97"/>
<feGaussianBlur stdDeviation="11.985"/>
<feComposite in2="hardAlpha" operator="arithmetic" k2="-1" k3="1"/>
<feColorMatrix type="matrix" values="0 0 0 0 0 0 0 0 0 0 0 0 0 0 0 0 0 0 0.25 0"/>
<feBlend mode="normal" in2="shape" result="effect2_innerShadow_391_6"/>
<feColorMatrix in="SourceAlpha" type="matrix" values="0 0 0 0 0 0 0 0 0 0 0 0 0 0 0 0 0 0 127 0" result="hardAlpha"/>
<feOffset dx="23.97" dy="-23.97"/>
<feGaussianBlur stdDeviation="11.985"/>
<feComposite in2="hardAlpha" operator="arithmetic" k2="-1" k3="1"/>
<feColorMatrix type="matrix" values="0 0 0 0 0 0 0 0 0 0 0 0 0 0 0 0 0 0 0.25 0"/>
<feBlend mode="normal" in2="effect2_innerShadow_391_6" result="effect3_innerShadow_391_6"/>
</filter>
</defs>
</svg>
