<svg width="149" height="153" viewBox="0 0 149 153" fill="none" xmlns="http://www.w3.org/2000/svg">
<g filter="url(#filter0_bii_391_5)">
<path d="M74.5 0L139.019 38.25V114.75L74.5 153L9.98111 114.75V38.25L74.5 0Z" fill="#D9D9D9" fill-opacity="0.1"/>
<path d="M10.9811 38.8197L74.5 1.16253L138.019 38.8197V114.18L74.5 151.837L10.9811 114.18V38.8197Z" stroke="white" stroke-width="2"/>
</g>
<path d="M25.648 109V98.968H22.256V97.192H31.008V98.968H27.632V109H25.648ZM30.8368 109L34.6768 97.192H37.1728L41.0128 109H38.9488L38.0368 106.2H33.7648L32.8688 109H30.8368ZM34.2288 104.424H37.5568L35.8928 98.888L34.2288 104.424ZM42.4634 109V97.192H44.4314V109H42.4634ZM49.2753 109C48.7206 109 48.2406 108.915 47.8353 108.744C47.4406 108.573 47.1419 108.296 46.9393 107.912C46.7366 107.517 46.6353 107 46.6353 106.36V97.192H48.6033V106.04C48.6033 106.339 48.6566 106.579 48.7633 106.76C48.8699 106.931 49.0086 107.048 49.1793 107.112C49.3606 107.176 49.5579 107.208 49.7713 107.208H53.6913V109H49.2753ZM56.9359 109L54.0399 97.192H56.0879L58.2159 106.12L60.6799 97.192H62.5359L64.9839 106.12L67.1119 97.192H69.1599L66.2639 109H64.2159L61.6079 100.056L58.9839 109H56.9359ZM70.6353 109V97.192H72.6033V109H70.6353ZM74.9351 109V97.192H76.5191L81.8951 105.624V97.192H83.8791V109H82.2951L76.9191 100.568V109H74.9351ZM85.9634 109V97.192H90.8434C91.6114 97.192 92.2514 97.3307 92.7634 97.608C93.286 97.8747 93.702 98.2693 94.0114 98.792C94.3207 99.304 94.5394 99.9227 94.6674 100.648C94.806 101.373 94.8754 102.189 94.8754 103.096C94.8754 104.397 94.726 105.485 94.4274 106.36C94.1287 107.224 93.6807 107.88 93.0834 108.328C92.486 108.776 91.7394 109 90.8434 109H85.9634ZM87.9314 107.224H90.6514C91.1954 107.224 91.6274 107.064 91.9474 106.744C92.278 106.424 92.518 105.955 92.6674 105.336C92.8274 104.717 92.9074 103.971 92.9074 103.096C92.9074 102.285 92.8594 101.613 92.7634 101.08C92.6674 100.547 92.5287 100.125 92.3474 99.816C92.166 99.5067 91.9314 99.288 91.6434 99.16C91.366 99.032 91.0354 98.968 90.6514 98.968H87.9314V107.224ZM104.899 109.096C104.206 109.096 103.593 109.016 103.059 108.856C102.537 108.696 102.094 108.403 101.731 107.976C101.379 107.549 101.113 106.941 100.931 106.152C100.75 105.363 100.659 104.328 100.659 103.048C100.659 101.843 100.75 100.851 100.931 100.072C101.123 99.2933 101.401 98.6853 101.763 98.248C102.137 97.8107 102.59 97.5067 103.123 97.336C103.657 97.1653 104.265 97.08 104.947 97.08C105.417 97.08 105.87 97.1067 106.307 97.16C106.755 97.2133 107.166 97.2773 107.539 97.352C107.923 97.4267 108.254 97.5067 108.531 97.592V99.112C108.35 99.0693 108.094 99.032 107.763 99C107.433 98.9573 107.059 98.9253 106.643 98.904C106.227 98.872 105.795 98.856 105.347 98.856C104.857 98.856 104.435 98.9147 104.083 99.032C103.742 99.1387 103.465 99.3413 103.251 99.64C103.038 99.9387 102.883 100.365 102.787 100.92C102.691 101.475 102.643 102.195 102.643 103.08C102.643 103.955 102.686 104.669 102.771 105.224C102.867 105.779 103.011 106.211 103.203 106.52C103.406 106.819 103.678 107.027 104.019 107.144C104.371 107.261 104.809 107.32 105.331 107.32C106.131 107.32 106.787 107.304 107.299 107.272C107.811 107.229 108.222 107.187 108.531 107.144V108.664C108.233 108.749 107.891 108.824 107.507 108.888C107.134 108.952 106.729 109 106.291 109.032C105.865 109.075 105.401 109.096 104.899 109.096ZM113.795 109.096C113.507 109.096 113.198 109.085 112.867 109.064C112.547 109.053 112.216 109.032 111.875 109C111.544 108.957 111.23 108.92 110.931 108.888C110.632 108.845 110.366 108.797 110.131 108.744V107.192C110.43 107.213 110.776 107.235 111.171 107.256C111.576 107.277 111.998 107.293 112.435 107.304C112.872 107.315 113.294 107.32 113.699 107.32C114.126 107.32 114.504 107.283 114.835 107.208C115.166 107.123 115.422 106.979 115.603 106.776C115.784 106.573 115.875 106.285 115.875 105.912V105.352C115.875 104.936 115.758 104.616 115.523 104.392C115.288 104.168 114.942 104.056 114.483 104.056H113.379C112.302 104.056 111.47 103.821 110.883 103.352C110.307 102.883 110.019 102.077 110.019 100.936V100.328C110.019 99.1867 110.334 98.3653 110.963 97.864C111.603 97.352 112.515 97.096 113.699 97.096C114.104 97.096 114.52 97.1173 114.947 97.16C115.384 97.192 115.8 97.2347 116.195 97.288C116.59 97.3413 116.926 97.4 117.203 97.464V99.016C116.734 98.984 116.195 98.952 115.587 98.92C114.99 98.888 114.435 98.872 113.923 98.872C113.518 98.872 113.16 98.9147 112.851 99C112.542 99.0853 112.307 99.24 112.147 99.464C111.987 99.6773 111.907 99.9973 111.907 100.424V100.808C111.907 101.309 112.04 101.661 112.307 101.864C112.584 102.067 112.979 102.168 113.491 102.168H114.723C115.416 102.168 115.987 102.296 116.435 102.552C116.883 102.808 117.214 103.16 117.427 103.608C117.651 104.045 117.763 104.547 117.763 105.112V105.864C117.763 106.739 117.592 107.411 117.251 107.88C116.91 108.349 116.44 108.669 115.843 108.84C115.246 109.011 114.563 109.096 113.795 109.096ZM123.155 109.096C122.867 109.096 122.557 109.085 122.227 109.064C121.907 109.053 121.576 109.032 121.235 109C120.904 108.957 120.589 108.92 120.291 108.888C119.992 108.845 119.725 108.797 119.491 108.744V107.192C119.789 107.213 120.136 107.235 120.531 107.256C120.936 107.277 121.357 107.293 121.795 107.304C122.232 107.315 122.653 107.32 123.059 107.32C123.485 107.32 123.864 107.283 124.195 107.208C124.525 107.123 124.781 106.979 124.963 106.776C125.144 106.573 125.235 106.285 125.235 105.912V105.352C125.235 104.936 125.117 104.616 124.883 104.392C124.648 104.168 124.301 104.056 123.843 104.056H122.739C121.661 104.056 120.829 103.821 120.243 103.352C119.667 102.883 119.379 102.077 119.379 100.936V100.328C119.379 99.1867 119.693 98.3653 120.323 97.864C120.963 97.352 121.875 97.096 123.059 97.096C123.464 97.096 123.88 97.1173 124.307 97.16C124.744 97.192 125.16 97.2347 125.555 97.288C125.949 97.3413 126.285 97.4 126.562 97.464V99.016C126.093 98.984 125.555 98.952 124.947 98.92C124.349 98.888 123.795 98.872 123.283 98.872C122.877 98.872 122.52 98.9147 122.211 99C121.901 99.0853 121.667 99.24 121.507 99.464C121.347 99.6773 121.267 99.9973 121.267 100.424V100.808C121.267 101.309 121.4 101.661 121.667 101.864C121.944 102.067 122.339 102.168 122.851 102.168H124.083C124.776 102.168 125.347 102.296 125.795 102.552C126.243 102.808 126.573 103.16 126.786 103.608C127.011 104.045 127.123 104.547 127.123 105.112V105.864C127.123 106.739 126.952 107.411 126.611 107.88C126.269 108.349 125.8 108.669 125.203 108.84C124.605 109.011 123.923 109.096 123.155 109.096Z" fill="white"/>
<path d="M75 42.8C65.6665 42.8 59.8352 47.4649 57.5 56.7984C60.9989 52.133 65.0835 50.3836 69.7489 51.55C72.4127 52.214 74.3164 54.1455 76.4246 56.286C79.8557 59.7679 83.8271 63.799 92.5 63.799C101.833 63.799 107.665 59.1336 110 49.7979C106.5 54.4656 102.417 56.216 97.7505 55.049C95.0873 54.3845 93.1858 52.4535 91.0748 50.313C87.6459 46.8311 83.6756 42.8 75 42.8ZM57.5 63.799C48.167 63.799 42.3352 68.4643 40 77.8C43.4996 73.1323 47.5826 71.3819 52.2489 72.549C54.9127 73.2134 56.8164 75.1444 58.9246 77.2849C62.3557 80.7668 66.3271 84.7979 75 84.7979C84.333 84.7979 90.1648 80.133 92.5 70.7995C89 75.4651 84.9169 77.2145 80.2505 76.0479C77.5873 75.384 75.6858 73.4524 73.5748 71.3119C70.1459 67.83 66.1756 63.799 57.5 63.799Z" fill="white"/>
<defs>
<filter id="filter0_bii_391_5" x="-37.949" y="-47.93" width="224.898" height="248.86" filterUnits="userSpaceOnUse" color-interpolation-filters="sRGB">
<feFlood flood-opacity="0" result="BackgroundImageFix"/>
<feGaussianBlur in="BackgroundImageFix" stdDeviation="23.965"/>
<feComposite in2="SourceAlpha" operator="in" result="effect1_backgroundBlur_391_5"/>
<feBlend mode="normal" in="SourceGraphic" in2="effect1_backgroundBlur_391_5" result="shape"/>
<feColorMatrix in="SourceAlpha" type="matrix" values="0 0 0 0 0 0 0 0 0 0 0 0 0 0 0 0 0 0 127 0" result="hardAlpha"/>
<feOffset dx="-23.97" dy="23.97"/>
<feGaussianBlur stdDeviation="11.985"/>
<feComposite in2="hardAlpha" operator="arithmetic" k2="-1" k3="1"/>
<feColorMatrix type="matrix" values="0 0 0 0 0 0 0 0 0 0 0 0 0 0 0 0 0 0 0.25 0"/>
<feBlend mode="normal" in2="shape" result="effect2_innerShadow_391_5"/>
<feColorMatrix in="SourceAlpha" type="matrix" values="0 0 0 0 0 0 0 0 0 0 0 0 0 0 0 0 0 0 127 0" result="hardAlpha"/>
<feOffset dx="23.97" dy="-23.97"/>
<feGaussianBlur stdDeviation="11.985"/>
<feComposite in2="hardAlpha" operator="arithmetic" k2="-1" k3="1"/>
<feColorMatrix type="matrix" values="0 0 0 0 0 0 0 0 0 0 0 0 0 0 0 0 0 0 0.25 0"/>
<feBlend mode="normal" in2="effect2_innerShadow_391_5" result="effect3_innerShadow_391_5"/>
</filter>
</defs>
</svg>
