<svg width="150" height="153" viewBox="0 0 150 153" fill="none" xmlns="http://www.w3.org/2000/svg">
<g filter="url(#filter0_bii_372_6)">
<path d="M75 0L139.952 38.25V114.75L75 153L10.0481 114.75V38.25L75 0Z" fill="#D9D9D9" fill-opacity="0.1"/>
<path d="M11.0481 38.8216L75 1.16052L138.952 38.8216V114.178L75 151.839L11.0481 114.178V38.8216Z" stroke="white" stroke-width="2"/>
</g>
<path d="M28.104 110.534V99.2482H24.288V97.2502H34.134V99.2482H30.336V110.534H28.104ZM38.9238 110.534V106.376L34.8558 97.2502H37.1598L40.0758 104.108L42.9918 97.2502H45.2418L41.1558 106.376V110.534H38.9238ZM46.8983 110.534V97.2502H52.3883C52.8083 97.2502 53.2343 97.3042 53.6663 97.4122C54.0983 97.5082 54.4943 97.7062 54.8543 98.0062C55.2263 98.3062 55.5203 98.7502 55.7363 99.3382C55.9643 99.9262 56.0783 100.712 56.0783 101.696C56.0783 102.68 55.9643 103.472 55.7363 104.072C55.5083 104.672 55.2083 105.134 54.8363 105.458C54.4763 105.77 54.0803 105.986 53.6483 106.106C53.2283 106.214 52.8203 106.268 52.4243 106.268C52.2203 106.268 51.9623 106.262 51.6503 106.25C51.3503 106.226 51.0323 106.202 50.6963 106.178C50.3723 106.142 50.0663 106.112 49.7783 106.088C49.5023 106.052 49.2803 106.022 49.1123 105.998V110.534H46.8983ZM49.1123 104.252H52.1003C52.4483 104.252 52.7543 104.174 53.0183 104.018C53.2823 103.85 53.4863 103.586 53.6303 103.226C53.7743 102.854 53.8463 102.35 53.8463 101.714C53.8463 101.09 53.7683 100.598 53.6123 100.238C53.4683 99.8782 53.2703 99.6262 53.0183 99.4822C52.7783 99.3262 52.4963 99.2482 52.1723 99.2482H49.1123V104.252ZM61.0505 110.624C60.7625 110.624 60.4385 110.594 60.0785 110.534C59.7305 110.486 59.3945 110.372 59.0705 110.192C58.7465 110 58.4825 109.718 58.2785 109.346C58.0745 108.974 57.9725 108.464 57.9725 107.816V100.148C57.9725 99.5842 58.0565 99.1162 58.2245 98.7442C58.3925 98.3602 58.6145 98.0602 58.8905 97.8442C59.1785 97.6282 59.4905 97.4782 59.8265 97.3942C60.1745 97.2982 60.5165 97.2502 60.8525 97.2502C61.6925 97.2502 62.4485 97.2622 63.1205 97.2862C63.7925 97.3102 64.4045 97.3342 64.9565 97.3582C65.5205 97.3822 66.0425 97.4122 66.5225 97.4482V99.3022H61.5005C61.0925 99.3022 60.7685 99.4042 60.5285 99.6082C60.3005 99.8122 60.1865 100.13 60.1865 100.562V102.92L65.7125 103.046V104.792L60.1865 104.918V107.204C60.1865 107.564 60.2465 107.84 60.3665 108.032C60.4985 108.224 60.6605 108.356 60.8525 108.428C61.0565 108.5 61.2665 108.536 61.4825 108.536H66.5225V110.39C65.9945 110.438 65.4185 110.48 64.7945 110.516C64.1705 110.54 63.5345 110.558 62.8865 110.57C62.2505 110.594 61.6385 110.612 61.0505 110.624ZM72.584 110.642C72.26 110.642 71.912 110.63 71.54 110.606C71.18 110.594 70.808 110.57 70.424 110.534C70.052 110.486 69.698 110.444 69.362 110.408C69.026 110.36 68.726 110.306 68.462 110.246V108.5C68.798 108.524 69.188 108.548 69.632 108.572C70.088 108.596 70.562 108.614 71.054 108.626C71.546 108.638 72.02 108.644 72.476 108.644C72.956 108.644 73.382 108.602 73.754 108.518C74.126 108.422 74.414 108.26 74.618 108.032C74.822 107.804 74.924 107.48 74.924 107.06V106.43C74.924 105.962 74.792 105.602 74.528 105.35C74.264 105.098 73.874 104.972 73.358 104.972H72.116C70.904 104.972 69.968 104.708 69.308 104.18C68.66 103.652 68.336 102.746 68.336 101.462V100.778C68.336 99.4942 68.69 98.5702 69.398 98.0062C70.118 97.4302 71.144 97.1422 72.476 97.1422C72.932 97.1422 73.4 97.1662 73.88 97.2142C74.372 97.2502 74.84 97.2982 75.284 97.3582C75.728 97.4182 76.106 97.4842 76.418 97.5562V99.3022C75.89 99.2662 75.284 99.2302 74.6 99.1942C73.928 99.1582 73.304 99.1402 72.728 99.1402C72.272 99.1402 71.87 99.1882 71.522 99.2842C71.174 99.3802 70.91 99.5542 70.73 99.8062C70.55 100.046 70.46 100.406 70.46 100.886V101.318C70.46 101.882 70.61 102.278 70.91 102.506C71.222 102.734 71.666 102.848 72.242 102.848H73.628C74.408 102.848 75.05 102.992 75.554 103.28C76.058 103.568 76.43 103.964 76.67 104.468C76.922 104.96 77.048 105.524 77.048 106.16V107.006C77.048 107.99 76.856 108.746 76.472 109.274C76.088 109.802 75.56 110.162 74.888 110.354C74.216 110.546 73.448 110.642 72.584 110.642ZM83.6173 110.642C82.8373 110.642 82.1473 110.552 81.5473 110.372C80.9593 110.192 80.4613 109.862 80.0533 109.382C79.6573 108.902 79.3573 108.218 79.1533 107.33C78.9493 106.442 78.8473 105.278 78.8473 103.838C78.8473 102.482 78.9493 101.366 79.1533 100.49C79.3693 99.6142 79.6813 98.9302 80.0893 98.4382C80.5093 97.9462 81.0193 97.6042 81.6193 97.4122C82.2193 97.2202 82.9033 97.1242 83.6713 97.1242C84.1993 97.1242 84.7093 97.1542 85.2013 97.2142C85.7053 97.2742 86.1673 97.3462 86.5873 97.4302C87.0193 97.5142 87.3913 97.6042 87.7033 97.7002V99.4102C87.4993 99.3622 87.2113 99.3202 86.8393 99.2842C86.4673 99.2362 86.0473 99.2002 85.5793 99.1762C85.1113 99.1402 84.6253 99.1222 84.1213 99.1222C83.5693 99.1222 83.0953 99.1882 82.6993 99.3202C82.3153 99.4402 82.0033 99.6682 81.7633 100.004C81.5233 100.34 81.3493 100.82 81.2413 101.444C81.1333 102.068 81.0793 102.878 81.0793 103.874C81.0793 104.858 81.1273 105.662 81.2233 106.286C81.3313 106.91 81.4933 107.396 81.7093 107.744C81.9373 108.08 82.2433 108.314 82.6273 108.446C83.0233 108.578 83.5153 108.644 84.1033 108.644C85.0033 108.644 85.7413 108.626 86.3173 108.59C86.8933 108.542 87.3553 108.494 87.7033 108.446V110.156C87.3673 110.252 86.9833 110.336 86.5513 110.408C86.1313 110.48 85.6753 110.534 85.1833 110.57C84.7033 110.618 84.1813 110.642 83.6173 110.642ZM89.701 110.534V97.2502H95.101C95.593 97.2502 96.055 97.3102 96.487 97.4302C96.931 97.5382 97.321 97.7422 97.657 98.0422C98.005 98.3422 98.275 98.7622 98.467 99.3022C98.671 99.8302 98.773 100.52 98.773 101.372C98.773 102.032 98.707 102.584 98.575 103.028C98.443 103.46 98.269 103.814 98.053 104.09C97.837 104.366 97.591 104.582 97.315 104.738C97.051 104.882 96.787 105.002 96.523 105.098L99.079 110.534H96.829L94.525 105.422C94.357 105.422 94.159 105.422 93.931 105.422C93.715 105.422 93.487 105.422 93.247 105.422C93.007 105.41 92.773 105.404 92.545 105.404C92.317 105.392 92.107 105.386 91.915 105.386V110.534H89.701ZM91.915 103.64H94.723C94.987 103.64 95.227 103.61 95.443 103.55C95.659 103.478 95.851 103.358 96.019 103.19C96.187 103.022 96.313 102.794 96.397 102.506C96.493 102.218 96.541 101.846 96.541 101.39C96.541 100.946 96.493 100.586 96.397 100.31C96.313 100.022 96.187 99.8062 96.019 99.6622C95.851 99.5062 95.653 99.3982 95.425 99.3382C95.209 99.2782 94.975 99.2482 94.723 99.2482H91.915V103.64ZM100.863 110.534V97.2502H103.077V110.534H100.863ZM105.556 110.534V97.2502H111.046C111.466 97.2502 111.892 97.3042 112.324 97.4122C112.756 97.5082 113.152 97.7062 113.512 98.0062C113.884 98.3062 114.178 98.7502 114.394 99.3382C114.622 99.9262 114.736 100.712 114.736 101.696C114.736 102.68 114.622 103.472 114.394 104.072C114.166 104.672 113.866 105.134 113.494 105.458C113.134 105.77 112.738 105.986 112.306 106.106C111.886 106.214 111.478 106.268 111.082 106.268C110.878 106.268 110.62 106.262 110.308 106.25C110.008 106.226 109.69 106.202 109.354 106.178C109.03 106.142 108.724 106.112 108.436 106.088C108.16 106.052 107.938 106.022 107.77 105.998V110.534H105.556ZM107.77 104.252H110.758C111.106 104.252 111.412 104.174 111.676 104.018C111.94 103.85 112.144 103.586 112.288 103.226C112.432 102.854 112.504 102.35 112.504 101.714C112.504 101.09 112.426 100.598 112.27 100.238C112.126 99.8782 111.928 99.6262 111.676 99.4822C111.436 99.3262 111.154 99.2482 110.83 99.2482H107.77V104.252ZM119.493 110.534V99.2482H115.677V97.2502H125.523V99.2482H121.725V110.534H119.493Z" fill="white"/>
<path d="M61.6782 55.8936H99.8331V84.6709H61.6782V55.8936Z" fill="black"/>
<path d="M50.4658 61.7671V87.5341H102V36H50.4658V61.7671ZM91.9941 59.7057C93.2284 59.9921 94.3502 60.6377 95.2181 61.5609C95.6958 62.0584 96.1111 62.6121 96.4549 63.21C96.4549 63.276 94.2286 64.7808 92.8722 65.6218C92.8228 65.6548 92.6249 65.4404 92.4064 65.1147C92.1588 64.6875 91.8069 64.3299 91.3838 64.0754C90.9606 63.8209 90.4798 63.6778 89.9863 63.6594C88.4238 63.5522 87.4179 64.3726 87.4261 65.7208C87.4136 66.0564 87.4904 66.3893 87.6487 66.6855C87.9909 67.3987 88.6299 67.8234 90.6336 68.6891C94.3234 70.2764 95.9024 71.3236 96.8836 72.8119C97.9803 74.461 98.2235 77.1242 97.4814 79.0949C96.6569 81.2387 94.6368 82.694 91.7797 83.1764C90.4748 83.326 89.1563 83.3121 87.8549 83.1352C85.8601 82.8064 84.0227 81.8487 82.6108 80.4018C82.1366 79.8782 81.2132 78.5136 81.2709 78.4147C81.4211 78.3025 81.5796 78.2019 81.745 78.1137L83.6538 77.0583L85.1339 76.2008L85.4431 76.6584C85.9651 77.4047 86.6291 78.0407 87.3972 78.5301C89.0463 79.3959 91.2974 79.2763 92.4105 78.2745C92.7842 77.9074 93.0174 77.4208 93.0694 76.8995C93.1213 76.3782 92.9888 75.8552 92.695 75.4216C92.2827 74.8485 91.4581 74.3661 89.1535 73.3602C86.4944 72.2141 85.3482 71.505 84.3011 70.3753C83.6476 69.6297 83.1649 68.7503 82.887 67.7986C82.6798 66.7112 82.6492 65.5976 82.7963 64.5004C83.3446 61.932 85.2699 60.1386 88.0816 59.6068C89.3838 59.4459 90.7027 59.482 91.9941 59.7139V59.7057ZM79.898 61.866V63.9769H73.2068V83.0362H68.4615V63.9727H61.7539V61.9114C61.7328 61.2005 61.7493 60.489 61.8033 59.7799C61.8363 59.7428 65.9261 59.7428 70.8733 59.7428H79.8733L79.898 61.866Z" fill="white"/>
<defs>
<filter id="filter0_bii_372_6" x="-37.8821" y="-47.93" width="225.764" height="248.86" filterUnits="userSpaceOnUse" color-interpolation-filters="sRGB">
<feFlood flood-opacity="0" result="BackgroundImageFix"/>
<feGaussianBlur in="BackgroundImageFix" stdDeviation="23.965"/>
<feComposite in2="SourceAlpha" operator="in" result="effect1_backgroundBlur_372_6"/>
<feBlend mode="normal" in="SourceGraphic" in2="effect1_backgroundBlur_372_6" result="shape"/>
<feColorMatrix in="SourceAlpha" type="matrix" values="0 0 0 0 0 0 0 0 0 0 0 0 0 0 0 0 0 0 127 0" result="hardAlpha"/>
<feOffset dx="-23.97" dy="23.97"/>
<feGaussianBlur stdDeviation="11.985"/>
<feComposite in2="hardAlpha" operator="arithmetic" k2="-1" k3="1"/>
<feColorMatrix type="matrix" values="0 0 0 0 0 0 0 0 0 0 0 0 0 0 0 0 0 0 0.25 0"/>
<feBlend mode="normal" in2="shape" result="effect2_innerShadow_372_6"/>
<feColorMatrix in="SourceAlpha" type="matrix" values="0 0 0 0 0 0 0 0 0 0 0 0 0 0 0 0 0 0 127 0" result="hardAlpha"/>
<feOffset dx="23.97" dy="-23.97"/>
<feGaussianBlur stdDeviation="11.985"/>
<feComposite in2="hardAlpha" operator="arithmetic" k2="-1" k3="1"/>
<feColorMatrix type="matrix" values="0 0 0 0 0 0 0 0 0 0 0 0 0 0 0 0 0 0 0.25 0"/>
<feBlend mode="normal" in2="effect2_innerShadow_372_6" result="effect3_innerShadow_372_6"/>
</filter>
</defs>
</svg>
